<svg xmlns="http://www.w3.org/2000/svg" xmlns:xlink="http://www.w3.org/1999/xlink" width="500" zoomAndPan="magnify" viewBox="0 0 375 374.999991" height="500" preserveAspectRatio="xMidYMid meet" version="1.0"><defs><clipPath id="9c997833f9"><path d="M 93.464844 93.464844 L 281.714844 93.464844 L 281.714844 281.714844 L 93.464844 281.714844 Z M 93.464844 93.464844 " clip-rule="nonzero"/></clipPath><clipPath id="b9e59648ed"><path d="M 275.550781 173.363281 C 272.855469 170.835938 269.558594 167.9375 265.753906 164.90625 C 267.667969 159.355469 268.660156 153.222656 268.660156 146.609375 C 268.660156 135.597656 262.253906 127.285156 251.386719 123.835938 C 247.988281 113.160156 239.664062 106.539062 228.582031 106.539062 C 221.480469 106.539062 215.425781 107.640625 210.277344 109.429688 C 207.246094 105.625 204.355469 102.328125 201.828125 99.636719 C 198.152344 95.714844 192.964844 93.464844 187.597656 93.464844 C 184.917969 93.464844 182.273438 94.03125 179.847656 95.078125 C 177.417969 96.132812 175.203125 97.675781 173.363281 99.636719 C 170.84375 102.328125 167.945312 105.625 164.914062 109.421875 C 159.765625 107.640625 153.710938 106.539062 146.609375 106.539062 C 135.527344 106.539062 127.199219 113.160156 123.804688 123.828125 C 112.933594 127.285156 106.539062 135.589844 106.539062 146.609375 C 106.539062 153.230469 107.523438 159.355469 109.4375 164.90625 C 105.632812 167.9375 102.335938 170.835938 99.636719 173.363281 C 95.714844 177.039062 93.464844 182.226562 93.464844 187.597656 C 93.464844 192.964844 95.714844 198.152344 99.636719 201.828125 C 102.335938 204.355469 105.632812 207.253906 109.4375 210.285156 C 107.523438 215.835938 106.539062 221.96875 106.539062 228.582031 C 106.539062 239.601562 112.933594 247.90625 123.804688 251.355469 C 127.199219 262.03125 135.527344 268.652344 146.609375 268.652344 C 153.710938 268.652344 159.765625 267.550781 164.914062 265.769531 C 167.945312 269.566406 170.84375 272.863281 173.363281 275.550781 C 177.039062 279.476562 182.226562 281.722656 187.597656 281.722656 C 192.964844 281.722656 198.152344 279.476562 201.828125 275.550781 C 204.355469 272.863281 207.246094 269.566406 210.277344 265.769531 C 215.425781 267.550781 221.480469 268.652344 228.582031 268.652344 C 239.664062 268.652344 247.988281 262.03125 251.386719 251.355469 C 262.253906 247.90625 268.660156 239.601562 268.660156 228.582031 C 268.660156 221.96875 267.667969 215.835938 265.753906 210.285156 C 269.558594 207.253906 272.855469 204.355469 275.550781 201.828125 C 279.476562 198.152344 281.722656 192.964844 281.722656 187.597656 C 281.722656 182.226562 279.476562 177.039062 275.550781 173.363281 Z M 253.042969 136.273438 C 255.84375 138.296875 258.117188 141.507812 258.117188 146.609375 C 258.117188 150.769531 257.65625 154.671875 256.757812 158.269531 C 254.464844 156.695312 252.042969 155.144531 249.515625 153.625 C 251.695312 147.941406 252.921875 142.039062 253.042969 136.273438 Z M 242.414062 132.761719 C 242.484375 133.613281 242.53125 134.464844 242.53125 135.320312 C 242.53125 139.675781 241.703125 144.15625 240.183594 148.53125 C 237.167969 147.050781 234.035156 145.660156 230.792969 144.398438 C 229.535156 141.15625 228.148438 138.023438 226.660156 135.015625 C 232.035156 133.140625 237.476562 132.363281 242.414062 132.761719 Z M 228.582031 117.082031 C 233.335938 117.082031 236.660156 119.105469 238.878906 122.136719 C 233.226562 122.269531 227.296875 123.472656 221.558594 125.664062 C 220.046875 123.136719 218.496094 120.726562 216.929688 118.441406 C 220.339844 117.585938 224.195312 117.082031 228.582031 117.082031 Z M 226.335938 169 C 219.542969 174.945312 208.875 180.953125 193.082031 182.101562 C 194.050781 168.984375 198.523438 157.609375 206.199219 148.863281 C 211.882812 149.570312 217.355469 150.886719 222.566406 152.625 C 224.304688 157.84375 225.621094 163.316406 226.335938 169 Z M 181.054688 106.847656 C 182.769531 105.019531 185.09375 104.011719 187.597656 104.011719 C 190.097656 104.011719 192.421875 105.019531 194.136719 106.847656 C 196.074219 108.917969 198.261719 111.367188 200.546875 114.152344 C 194.515625 118.066406 190.367188 122.890625 187.597656 127.125 C 184.832031 122.890625 180.675781 118.066406 174.644531 114.152344 C 176.929688 111.367188 179.117188 108.917969 181.054688 106.847656 Z M 168.238281 122.535156 C 177.464844 128.117188 181.117188 136.449219 182.265625 139.855469 C 183.039062 142.148438 185.179688 143.683594 187.597656 143.683594 C 190.011719 143.683594 192.152344 142.148438 192.925781 139.863281 C 194.074219 136.449219 197.726562 128.117188 206.953125 122.535156 C 208.679688 124.976562 210.402344 127.574219 212.070312 130.316406 C 207.789062 132.914062 203.859375 136.039062 200.34375 139.660156 C 195.972656 144.164062 191.15625 150.601562 187.597656 159.285156 C 184.046875 150.601562 179.234375 144.164062 174.851562 139.667969 C 171.324219 136.03125 167.394531 132.90625 163.128906 130.308594 C 164.796875 127.574219 166.519531 124.976562 168.238281 122.535156 Z M 226.335938 206.191406 C 225.621094 211.875 224.304688 217.347656 222.566406 222.566406 C 217.355469 224.304688 211.882812 225.621094 206.199219 226.335938 C 198.523438 217.582031 194.050781 206.214844 193.082031 193.089844 C 208.875 194.234375 219.542969 200.246094 226.335938 206.191406 Z M 182.125 182.109375 C 166.316406 180.953125 155.65625 174.945312 148.863281 169 C 149.570312 163.316406 150.886719 157.84375 152.625 152.625 C 157.84375 150.886719 163.316406 149.570312 169 148.855469 C 176.675781 157.609375 181.15625 168.976562 182.125 182.109375 Z M 146.609375 117.082031 C 150.996094 117.082031 154.847656 117.585938 158.261719 118.441406 C 156.703125 120.726562 155.144531 123.136719 153.632812 125.65625 C 147.894531 123.472656 141.964844 122.269531 136.320312 122.136719 C 138.535156 119.105469 141.855469 117.082031 146.609375 117.082031 Z M 132.777344 132.769531 C 137.714844 132.363281 143.15625 133.140625 148.53125 135.007812 C 147.050781 138.023438 145.660156 141.15625 144.398438 144.398438 C 141.15625 145.660156 138.023438 147.050781 135.007812 148.53125 C 133.488281 144.15625 132.660156 139.667969 132.660156 135.320312 C 132.660156 134.464844 132.707031 133.613281 132.777344 132.769531 Z M 122.144531 136.265625 C 122.269531 142.03125 123.496094 147.941406 125.671875 153.625 C 123.144531 155.144531 120.726562 156.695312 118.433594 158.269531 C 117.53125 154.671875 117.074219 150.769531 117.074219 146.609375 C 117.074219 141.507812 119.347656 138.296875 122.144531 136.265625 Z M 122.144531 238.925781 C 119.347656 236.894531 117.074219 233.683594 117.074219 228.582031 C 117.074219 224.417969 117.53125 220.519531 118.433594 216.921875 C 120.726562 218.496094 123.144531 220.054688 125.671875 221.566406 C 123.496094 227.25 122.269531 233.15625 122.144531 238.925781 Z M 106.847656 194.136719 C 105.019531 192.421875 104.011719 190.097656 104.011719 187.597656 C 104.011719 185.09375 105.019531 182.769531 106.847656 181.054688 C 112.300781 175.945312 120.371094 169.175781 130.332031 163.113281 C 132.582031 166.8125 135.242188 170.308594 138.273438 173.457031 C 142.980469 178.339844 149.792969 183.730469 159.207031 187.597656 C 149.792969 191.460938 142.972656 196.855469 138.273438 201.734375 C 135.242188 204.882812 132.582031 208.378906 130.332031 212.078125 C 120.371094 206.019531 112.300781 199.253906 106.847656 194.136719 Z M 182.125 193.089844 C 181.15625 206.214844 176.675781 217.582031 169 226.335938 C 163.316406 225.621094 157.84375 224.304688 152.625 222.566406 C 150.886719 217.347656 149.570312 211.875 148.863281 206.191406 C 155.65625 200.246094 166.316406 194.234375 182.125 193.089844 Z M 132.777344 242.421875 C 132.707031 241.578125 132.660156 240.726562 132.660156 239.878906 C 132.660156 235.523438 133.488281 231.03125 135.007812 226.660156 C 138.023438 228.148438 141.15625 229.535156 144.398438 230.792969 C 145.660156 234.035156 147.050781 237.167969 148.53125 240.183594 C 143.15625 242.050781 137.714844 242.824219 132.777344 242.421875 Z M 146.609375 258.117188 C 141.847656 258.117188 138.519531 256.078125 136.304688 253.027344 C 141.957031 252.90625 147.886719 251.710938 153.625 249.523438 C 155.144531 252.050781 156.695312 254.457031 158.261719 256.75 C 154.847656 257.605469 150.996094 258.117188 146.609375 258.117188 Z M 194.136719 268.34375 C 192.421875 270.171875 190.097656 271.1875 187.597656 271.1875 C 185.09375 271.1875 182.769531 270.179688 181.054688 268.34375 C 179.117188 266.273438 176.929688 263.820312 174.644531 261.039062 C 180.675781 257.121094 184.824219 252.300781 187.597656 248.074219 C 190.367188 252.300781 194.515625 257.121094 200.546875 261.039062 C 198.261719 263.820312 196.074219 266.273438 194.136719 268.34375 Z M 206.953125 252.65625 C 197.726562 247.074219 194.082031 238.738281 192.925781 235.335938 C 192.152344 233.050781 190.011719 231.507812 187.597656 231.507812 C 185.179688 231.507812 183.039062 233.050781 182.273438 235.335938 C 181.117188 238.738281 177.464844 247.074219 168.246094 252.65625 C 166.519531 250.214844 164.796875 247.617188 163.128906 244.878906 C 167.394531 242.28125 171.324219 239.160156 174.851562 235.53125 C 179.234375 231.027344 184.046875 224.589844 187.597656 215.90625 C 191.15625 224.589844 195.964844 231.019531 200.34375 235.523438 C 203.859375 239.152344 207.789062 242.277344 212.070312 244.871094 C 210.402344 247.617188 208.679688 250.214844 206.953125 252.65625 Z M 228.582031 258.117188 C 224.195312 258.117188 220.339844 257.605469 216.929688 256.75 C 218.496094 254.457031 220.054688 252.042969 221.566406 249.515625 C 227.3125 251.710938 233.234375 252.90625 238.886719 253.027344 C 236.667969 256.078125 233.34375 258.117188 228.582031 258.117188 Z M 242.414062 242.421875 C 237.476562 242.824219 232.035156 242.050781 226.660156 240.175781 C 228.148438 237.167969 229.535156 234.035156 230.792969 230.792969 C 234.035156 229.535156 237.167969 228.148438 240.183594 226.660156 C 241.703125 231.03125 242.53125 235.523438 242.53125 239.878906 C 242.53125 240.726562 242.484375 241.578125 242.414062 242.421875 Z M 253.042969 238.917969 C 252.921875 233.15625 251.695312 227.25 249.515625 221.566406 C 252.042969 220.054688 254.464844 218.496094 256.757812 216.921875 C 257.65625 220.519531 258.117188 224.417969 258.117188 228.582031 C 258.117188 233.683594 255.84375 236.894531 253.042969 238.917969 Z M 268.34375 194.136719 C 262.890625 199.253906 254.820312 206.011719 244.855469 212.078125 C 242.609375 208.378906 239.949219 204.882812 236.917969 201.734375 C 232.21875 196.855469 225.398438 191.460938 215.984375 187.597656 C 225.398438 183.730469 232.21875 178.339844 236.917969 173.457031 C 239.949219 170.308594 242.609375 166.8125 244.855469 163.113281 C 254.820312 169.175781 262.890625 175.945312 268.34375 181.054688 C 270.179688 182.769531 271.1875 185.09375 271.1875 187.597656 C 271.1875 190.097656 270.171875 192.421875 268.34375 194.136719 Z M 268.34375 194.136719 " clip-rule="nonzero"/></clipPath><linearGradient x1="-0.000000895667" gradientTransform="matrix(0.77533, 0, 0, 0.77533, 93.466494, 93.466458)" y1="121.404999" x2="242.799976" gradientUnits="userSpaceOnUse" y2="121.404999" id="eeebced8af"><stop stop-opacity="1" stop-color="rgb(79.598999%, 42.399597%, 90.19928%)" offset="0"/><stop stop-opacity="1" stop-color="rgb(79.678345%, 42.308044%, 89.92157%)" offset="0.00390625"/><stop stop-opacity="1" stop-color="rgb(79.759216%, 42.218018%, 89.64386%)" offset="0.0078125"/><stop stop-opacity="1" stop-color="rgb(79.838562%, 42.126465%, 89.36615%)" offset="0.0117187"/><stop stop-opacity="1" stop-color="rgb(79.917908%, 42.036438%, 89.089966%)" offset="0.015625"/><stop stop-opacity="1" stop-color="rgb(79.997253%, 41.944885%, 88.812256%)" offset="0.0195313"/><stop stop-opacity="1" stop-color="rgb(80.076599%, 41.854858%, 88.534546%)" offset="0.0234375"/><stop stop-opacity="1" stop-color="rgb(80.155945%, 41.764832%, 88.256836%)" offset="0.0273437"/><stop stop-opacity="1" stop-color="rgb(80.236816%, 41.674805%, 87.980652%)" offset="0.03125"/><stop stop-opacity="1" stop-color="rgb(80.316162%, 41.583252%, 87.702942%)" offset="0.0351562"/><stop stop-opacity="1" stop-color="rgb(80.395508%, 41.493225%, 87.425232%)" offset="0.0390625"/><stop stop-opacity="1" stop-color="rgb(80.474854%, 41.401672%, 87.147522%)" offset="0.0429688"/><stop stop-opacity="1" stop-color="rgb(80.555725%, 41.311646%, 86.871338%)" offset="0.046875"/><stop stop-opacity="1" stop-color="rgb(80.635071%, 41.220093%, 86.593628%)" offset="0.0507812"/><stop stop-opacity="1" stop-color="rgb(80.714417%, 41.130066%, 86.315918%)" offset="0.0546875"/><stop stop-opacity="1" stop-color="rgb(80.793762%, 41.040039%, 86.038208%)" offset="0.0585938"/><stop stop-opacity="1" stop-color="rgb(80.874634%, 40.950012%, 85.762024%)" offset="0.0625"/><stop stop-opacity="1" stop-color="rgb(80.953979%, 40.858459%, 85.484314%)" offset="0.0664062"/><stop stop-opacity="1" stop-color="rgb(81.033325%, 40.768433%, 85.206604%)" offset="0.0703125"/><stop stop-opacity="1" stop-color="rgb(81.112671%, 40.67688%, 84.928894%)" offset="0.0742187"/><stop stop-opacity="1" stop-color="rgb(81.193542%, 40.586853%, 84.65271%)" offset="0.078125"/><stop stop-opacity="1" stop-color="rgb(81.272888%, 40.4953%, 84.375%)" offset="0.0820312"/><stop stop-opacity="1" stop-color="rgb(81.352234%, 40.405273%, 84.09729%)" offset="0.0859375"/><stop stop-opacity="1" stop-color="rgb(81.43158%, 40.313721%, 83.81958%)" offset="0.0898438"/><stop stop-opacity="1" stop-color="rgb(81.510925%, 40.223694%, 83.543396%)" offset="0.09375"/><stop stop-opacity="1" stop-color="rgb(81.590271%, 40.133667%, 83.265686%)" offset="0.0976562"/><stop stop-opacity="1" stop-color="rgb(81.671143%, 40.04364%, 82.987976%)" offset="0.101562"/><stop stop-opacity="1" stop-color="rgb(81.750488%, 39.952087%, 82.710266%)" offset="0.105469"/><stop stop-opacity="1" stop-color="rgb(81.829834%, 39.862061%, 82.434082%)" offset="0.109375"/><stop stop-opacity="1" stop-color="rgb(81.90918%, 39.770508%, 82.156372%)" offset="0.113281"/><stop stop-opacity="1" stop-color="rgb(81.990051%, 39.680481%, 81.878662%)" offset="0.117188"/><stop stop-opacity="1" stop-color="rgb(82.069397%, 39.588928%, 81.600952%)" offset="0.121094"/><stop stop-opacity="1" stop-color="rgb(82.148743%, 39.498901%, 81.324768%)" offset="0.125"/><stop stop-opacity="1" stop-color="rgb(82.228088%, 39.408875%, 81.047058%)" offset="0.128906"/><stop stop-opacity="1" stop-color="rgb(82.30896%, 39.318848%, 80.769348%)" offset="0.132812"/><stop stop-opacity="1" stop-color="rgb(82.388306%, 39.227295%, 80.491638%)" offset="0.136719"/><stop stop-opacity="1" stop-color="rgb(82.467651%, 39.137268%, 80.215454%)" offset="0.140625"/><stop stop-opacity="1" stop-color="rgb(82.546997%, 39.045715%, 79.937744%)" offset="0.144531"/><stop stop-opacity="1" stop-color="rgb(82.627869%, 38.955688%, 79.660034%)" offset="0.148437"/><stop stop-opacity="1" stop-color="rgb(82.707214%, 38.864136%, 79.382324%)" offset="0.152344"/><stop stop-opacity="1" stop-color="rgb(82.78656%, 38.774109%, 79.10614%)" offset="0.15625"/><stop stop-opacity="1" stop-color="rgb(82.865906%, 38.682556%, 78.82843%)" offset="0.160156"/><stop stop-opacity="1" stop-color="rgb(82.945251%, 38.592529%, 78.55072%)" offset="0.164062"/><stop stop-opacity="1" stop-color="rgb(83.024597%, 38.502502%, 78.27301%)" offset="0.167969"/><stop stop-opacity="1" stop-color="rgb(83.105469%, 38.412476%, 77.996826%)" offset="0.171875"/><stop stop-opacity="1" stop-color="rgb(83.184814%, 38.320923%, 77.719116%)" offset="0.175781"/><stop stop-opacity="1" stop-color="rgb(83.26416%, 38.230896%, 77.441406%)" offset="0.179687"/><stop stop-opacity="1" stop-color="rgb(83.343506%, 38.139343%, 77.163696%)" offset="0.183594"/><stop stop-opacity="1" stop-color="rgb(83.424377%, 38.049316%, 76.887512%)" offset="0.1875"/><stop stop-opacity="1" stop-color="rgb(83.503723%, 37.957764%, 76.609802%)" offset="0.191406"/><stop stop-opacity="1" stop-color="rgb(83.583069%, 37.867737%, 76.332092%)" offset="0.195312"/><stop stop-opacity="1" stop-color="rgb(83.662415%, 37.77771%, 76.054382%)" offset="0.199219"/><stop stop-opacity="1" stop-color="rgb(83.743286%, 37.687683%, 75.778198%)" offset="0.203125"/><stop stop-opacity="1" stop-color="rgb(83.822632%, 37.59613%, 75.500488%)" offset="0.207031"/><stop stop-opacity="1" stop-color="rgb(83.901978%, 37.506104%, 75.222778%)" offset="0.210937"/><stop stop-opacity="1" stop-color="rgb(83.981323%, 37.414551%, 74.945068%)" offset="0.214844"/><stop stop-opacity="1" stop-color="rgb(84.062195%, 37.324524%, 74.668884%)" offset="0.21875"/><stop stop-opacity="1" stop-color="rgb(84.141541%, 37.232971%, 74.391174%)" offset="0.222656"/><stop stop-opacity="1" stop-color="rgb(84.220886%, 37.142944%, 74.113464%)" offset="0.226562"/><stop stop-opacity="1" stop-color="rgb(84.300232%, 37.051392%, 73.835754%)" offset="0.230469"/><stop stop-opacity="1" stop-color="rgb(84.379578%, 36.961365%, 73.55957%)" offset="0.234375"/><stop stop-opacity="1" stop-color="rgb(84.458923%, 36.871338%, 73.28186%)" offset="0.238281"/><stop stop-opacity="1" stop-color="rgb(84.539795%, 36.781311%, 73.00415%)" offset="0.242188"/><stop stop-opacity="1" stop-color="rgb(84.619141%, 36.689758%, 72.72644%)" offset="0.246094"/><stop stop-opacity="1" stop-color="rgb(84.698486%, 36.599731%, 72.450256%)" offset="0.25"/><stop stop-opacity="1" stop-color="rgb(84.777832%, 36.508179%, 72.172546%)" offset="0.253906"/><stop stop-opacity="1" stop-color="rgb(84.858704%, 36.418152%, 71.894836%)" offset="0.257812"/><stop stop-opacity="1" stop-color="rgb(84.938049%, 36.326599%, 71.617126%)" offset="0.261719"/><stop stop-opacity="1" stop-color="rgb(85.017395%, 36.236572%, 71.340942%)" offset="0.265625"/><stop stop-opacity="1" stop-color="rgb(85.096741%, 36.14502%, 71.063232%)" offset="0.269531"/><stop stop-opacity="1" stop-color="rgb(85.177612%, 36.054993%, 70.785522%)" offset="0.273437"/><stop stop-opacity="1" stop-color="rgb(85.256958%, 35.964966%, 70.507812%)" offset="0.277344"/><stop stop-opacity="1" stop-color="rgb(85.336304%, 35.874939%, 70.231628%)" offset="0.28125"/><stop stop-opacity="1" stop-color="rgb(85.415649%, 35.783386%, 69.953918%)" offset="0.285156"/><stop stop-opacity="1" stop-color="rgb(85.496521%, 35.693359%, 69.676208%)" offset="0.289062"/><stop stop-opacity="1" stop-color="rgb(85.575867%, 35.601807%, 69.398499%)" offset="0.292969"/><stop stop-opacity="1" stop-color="rgb(85.655212%, 35.51178%, 69.122314%)" offset="0.296875"/><stop stop-opacity="1" stop-color="rgb(85.734558%, 35.420227%, 68.844604%)" offset="0.300781"/><stop stop-opacity="1" stop-color="rgb(85.813904%, 35.3302%, 68.566895%)" offset="0.304687"/><stop stop-opacity="1" stop-color="rgb(85.89325%, 35.240173%, 68.289185%)" offset="0.308594"/><stop stop-opacity="1" stop-color="rgb(85.974121%, 35.150146%, 68.013%)" offset="0.3125"/><stop stop-opacity="1" stop-color="rgb(86.053467%, 35.058594%, 67.735291%)" offset="0.316406"/><stop stop-opacity="1" stop-color="rgb(86.132812%, 34.968567%, 67.457581%)" offset="0.320312"/><stop stop-opacity="1" stop-color="rgb(86.212158%, 34.877014%, 67.179871%)" offset="0.324219"/><stop stop-opacity="1" stop-color="rgb(86.29303%, 34.786987%, 66.903687%)" offset="0.328125"/><stop stop-opacity="1" stop-color="rgb(86.372375%, 34.695435%, 66.625977%)" offset="0.332031"/><stop stop-opacity="1" stop-color="rgb(86.451721%, 34.605408%, 66.348267%)" offset="0.335938"/><stop stop-opacity="1" stop-color="rgb(86.531067%, 34.513855%, 66.070557%)" offset="0.339844"/><stop stop-opacity="1" stop-color="rgb(86.611938%, 34.423828%, 65.794373%)" offset="0.34375"/><stop stop-opacity="1" stop-color="rgb(86.691284%, 34.333801%, 65.516663%)" offset="0.347656"/><stop stop-opacity="1" stop-color="rgb(86.77063%, 34.243774%, 65.238953%)" offset="0.351562"/><stop stop-opacity="1" stop-color="rgb(86.849976%, 34.152222%, 64.961243%)" offset="0.355469"/><stop stop-opacity="1" stop-color="rgb(86.930847%, 34.062195%, 64.685059%)" offset="0.359375"/><stop stop-opacity="1" stop-color="rgb(87.010193%, 33.970642%, 64.407349%)" offset="0.363281"/><stop stop-opacity="1" stop-color="rgb(87.089539%, 33.880615%, 64.129639%)" offset="0.367188"/><stop stop-opacity="1" stop-color="rgb(87.168884%, 33.789062%, 63.851929%)" offset="0.371094"/><stop stop-opacity="1" stop-color="rgb(87.24823%, 33.699036%, 63.575745%)" offset="0.375"/><stop stop-opacity="1" stop-color="rgb(87.327576%, 33.609009%, 63.298035%)" offset="0.378906"/><stop stop-opacity="1" stop-color="rgb(87.408447%, 33.518982%, 63.020325%)" offset="0.382812"/><stop stop-opacity="1" stop-color="rgb(87.487793%, 33.427429%, 62.742615%)" offset="0.386719"/><stop stop-opacity="1" stop-color="rgb(87.567139%, 33.337402%, 62.466431%)" offset="0.390625"/><stop stop-opacity="1" stop-color="rgb(87.646484%, 33.24585%, 62.188721%)" offset="0.394531"/><stop stop-opacity="1" stop-color="rgb(87.727356%, 33.155823%, 61.911011%)" offset="0.398437"/><stop stop-opacity="1" stop-color="rgb(87.806702%, 33.06427%, 61.633301%)" offset="0.402344"/><stop stop-opacity="1" stop-color="rgb(87.886047%, 32.974243%, 61.357117%)" offset="0.40625"/><stop stop-opacity="1" stop-color="rgb(87.965393%, 32.88269%, 61.079407%)" offset="0.410156"/><stop stop-opacity="1" stop-color="rgb(88.046265%, 32.792664%, 60.801697%)" offset="0.414062"/><stop stop-opacity="1" stop-color="rgb(88.12561%, 32.702637%, 60.523987%)" offset="0.417969"/><stop stop-opacity="1" stop-color="rgb(88.204956%, 32.61261%, 60.247803%)" offset="0.421875"/><stop stop-opacity="1" stop-color="rgb(88.284302%, 32.521057%, 59.970093%)" offset="0.425781"/><stop stop-opacity="1" stop-color="rgb(88.365173%, 32.43103%, 59.692383%)" offset="0.429687"/><stop stop-opacity="1" stop-color="rgb(88.444519%, 32.339478%, 59.414673%)" offset="0.433594"/><stop stop-opacity="1" stop-color="rgb(88.523865%, 32.249451%, 59.138489%)" offset="0.4375"/><stop stop-opacity="1" stop-color="rgb(88.60321%, 32.157898%, 58.860779%)" offset="0.441406"/><stop stop-opacity="1" stop-color="rgb(88.682556%, 32.067871%, 58.583069%)" offset="0.445312"/><stop stop-opacity="1" stop-color="rgb(88.761902%, 31.977844%, 58.305359%)" offset="0.449219"/><stop stop-opacity="1" stop-color="rgb(88.842773%, 31.887817%, 58.029175%)" offset="0.453125"/><stop stop-opacity="1" stop-color="rgb(88.922119%, 31.796265%, 57.751465%)" offset="0.457031"/><stop stop-opacity="1" stop-color="rgb(89.001465%, 31.706238%, 57.473755%)" offset="0.460937"/><stop stop-opacity="1" stop-color="rgb(89.080811%, 31.614685%, 57.196045%)" offset="0.464844"/><stop stop-opacity="1" stop-color="rgb(89.161682%, 31.524658%, 56.919861%)" offset="0.46875"/><stop stop-opacity="1" stop-color="rgb(89.241028%, 31.433105%, 56.642151%)" offset="0.472656"/><stop stop-opacity="1" stop-color="rgb(89.320374%, 31.343079%, 56.364441%)" offset="0.476562"/><stop stop-opacity="1" stop-color="rgb(89.399719%, 31.251526%, 56.086731%)" offset="0.480469"/><stop stop-opacity="1" stop-color="rgb(89.480591%, 31.161499%, 55.810547%)" offset="0.484375"/><stop stop-opacity="1" stop-color="rgb(89.559937%, 31.071472%, 55.532837%)" offset="0.488281"/><stop stop-opacity="1" stop-color="rgb(89.639282%, 30.981445%, 55.255127%)" offset="0.492187"/><stop stop-opacity="1" stop-color="rgb(89.718628%, 30.889893%, 54.977417%)" offset="0.496094"/><stop stop-opacity="1" stop-color="rgb(89.7995%, 30.799866%, 54.701233%)" offset="0.5"/><stop stop-opacity="1" stop-color="rgb(89.878845%, 30.708313%, 54.423523%)" offset="0.503906"/><stop stop-opacity="1" stop-color="rgb(89.958191%, 30.618286%, 54.145813%)" offset="0.507812"/><stop stop-opacity="1" stop-color="rgb(90.037537%, 30.526733%, 53.868103%)" offset="0.511719"/><stop stop-opacity="1" stop-color="rgb(90.116882%, 30.436707%, 53.591919%)" offset="0.515625"/><stop stop-opacity="1" stop-color="rgb(90.196228%, 30.34668%, 53.314209%)" offset="0.519531"/><stop stop-opacity="1" stop-color="rgb(90.2771%, 30.256653%, 53.036499%)" offset="0.523437"/><stop stop-opacity="1" stop-color="rgb(90.356445%, 30.1651%, 52.758789%)" offset="0.527344"/><stop stop-opacity="1" stop-color="rgb(90.435791%, 30.075073%, 52.482605%)" offset="0.53125"/><stop stop-opacity="1" stop-color="rgb(90.515137%, 29.983521%, 52.204895%)" offset="0.535156"/><stop stop-opacity="1" stop-color="rgb(90.596008%, 29.893494%, 51.927185%)" offset="0.539062"/><stop stop-opacity="1" stop-color="rgb(90.675354%, 29.801941%, 51.649475%)" offset="0.542969"/><stop stop-opacity="1" stop-color="rgb(90.7547%, 29.711914%, 51.373291%)" offset="0.546875"/><stop stop-opacity="1" stop-color="rgb(90.834045%, 29.620361%, 51.095581%)" offset="0.550781"/><stop stop-opacity="1" stop-color="rgb(90.914917%, 29.530334%, 50.817871%)" offset="0.554687"/><stop stop-opacity="1" stop-color="rgb(90.994263%, 29.440308%, 50.540161%)" offset="0.558594"/><stop stop-opacity="1" stop-color="rgb(91.073608%, 29.350281%, 50.263977%)" offset="0.5625"/><stop stop-opacity="1" stop-color="rgb(91.152954%, 29.258728%, 49.986267%)" offset="0.566406"/><stop stop-opacity="1" stop-color="rgb(91.233826%, 29.168701%, 49.708557%)" offset="0.570312"/><stop stop-opacity="1" stop-color="rgb(91.313171%, 29.077148%, 49.430847%)" offset="0.574219"/><stop stop-opacity="1" stop-color="rgb(91.392517%, 28.987122%, 49.154663%)" offset="0.578125"/><stop stop-opacity="1" stop-color="rgb(91.471863%, 28.895569%, 48.876953%)" offset="0.582031"/><stop stop-opacity="1" stop-color="rgb(91.551208%, 28.805542%, 48.599243%)" offset="0.585937"/><stop stop-opacity="1" stop-color="rgb(91.630554%, 28.715515%, 48.321533%)" offset="0.589844"/><stop stop-opacity="1" stop-color="rgb(91.711426%, 28.625488%, 48.045349%)" offset="0.59375"/><stop stop-opacity="1" stop-color="rgb(91.790771%, 28.533936%, 47.767639%)" offset="0.597656"/><stop stop-opacity="1" stop-color="rgb(91.870117%, 28.443909%, 47.489929%)" offset="0.601562"/><stop stop-opacity="1" stop-color="rgb(91.949463%, 28.352356%, 47.212219%)" offset="0.605469"/><stop stop-opacity="1" stop-color="rgb(92.030334%, 28.262329%, 46.936035%)" offset="0.609375"/><stop stop-opacity="1" stop-color="rgb(92.10968%, 28.170776%, 46.658325%)" offset="0.613281"/><stop stop-opacity="1" stop-color="rgb(92.189026%, 28.08075%, 46.380615%)" offset="0.617187"/><stop stop-opacity="1" stop-color="rgb(92.268372%, 27.989197%, 46.102905%)" offset="0.621094"/><stop stop-opacity="1" stop-color="rgb(92.349243%, 27.89917%, 45.826721%)" offset="0.625"/><stop stop-opacity="1" stop-color="rgb(92.428589%, 27.809143%, 45.549011%)" offset="0.628906"/><stop stop-opacity="1" stop-color="rgb(92.507935%, 27.719116%, 45.271301%)" offset="0.632812"/><stop stop-opacity="1" stop-color="rgb(92.58728%, 27.627563%, 44.993591%)" offset="0.636719"/><stop stop-opacity="1" stop-color="rgb(92.668152%, 27.537537%, 44.717407%)" offset="0.640625"/><stop stop-opacity="1" stop-color="rgb(92.747498%, 27.445984%, 44.439697%)" offset="0.644531"/><stop stop-opacity="1" stop-color="rgb(92.826843%, 27.355957%, 44.161987%)" offset="0.648438"/><stop stop-opacity="1" stop-color="rgb(92.906189%, 27.264404%, 43.884277%)" offset="0.652344"/><stop stop-opacity="1" stop-color="rgb(92.985535%, 27.174377%, 43.608093%)" offset="0.65625"/><stop stop-opacity="1" stop-color="rgb(93.06488%, 27.084351%, 43.330383%)" offset="0.660156"/><stop stop-opacity="1" stop-color="rgb(93.145752%, 26.994324%, 43.052673%)" offset="0.664062"/><stop stop-opacity="1" stop-color="rgb(93.225098%, 26.902771%, 42.774963%)" offset="0.667969"/><stop stop-opacity="1" stop-color="rgb(93.304443%, 26.812744%, 42.498779%)" offset="0.671875"/><stop stop-opacity="1" stop-color="rgb(93.383789%, 26.721191%, 42.221069%)" offset="0.675781"/><stop stop-opacity="1" stop-color="rgb(93.464661%, 26.631165%, 41.943359%)" offset="0.679688"/><stop stop-opacity="1" stop-color="rgb(93.544006%, 26.539612%, 41.665649%)" offset="0.683594"/><stop stop-opacity="1" stop-color="rgb(93.623352%, 26.449585%, 41.389465%)" offset="0.6875"/><stop stop-opacity="1" stop-color="rgb(93.702698%, 26.358032%, 41.111755%)" offset="0.691406"/><stop stop-opacity="1" stop-color="rgb(93.783569%, 26.268005%, 40.834045%)" offset="0.695312"/><stop stop-opacity="1" stop-color="rgb(93.862915%, 26.177979%, 40.556335%)" offset="0.699219"/><stop stop-opacity="1" stop-color="rgb(93.942261%, 26.087952%, 40.280151%)" offset="0.703125"/><stop stop-opacity="1" stop-color="rgb(94.021606%, 25.996399%, 40.002441%)" offset="0.707031"/><stop stop-opacity="1" stop-color="rgb(94.102478%, 25.906372%, 39.724731%)" offset="0.710938"/><stop stop-opacity="1" stop-color="rgb(94.181824%, 25.814819%, 39.447021%)" offset="0.714844"/><stop stop-opacity="1" stop-color="rgb(94.261169%, 25.724792%, 39.170837%)" offset="0.71875"/><stop stop-opacity="1" stop-color="rgb(94.340515%, 25.63324%, 38.893127%)" offset="0.722656"/><stop stop-opacity="1" stop-color="rgb(94.419861%, 25.543213%, 38.615417%)" offset="0.726562"/><stop stop-opacity="1" stop-color="rgb(94.499207%, 25.453186%, 38.337708%)" offset="0.730469"/><stop stop-opacity="1" stop-color="rgb(94.580078%, 25.363159%, 38.061523%)" offset="0.734375"/><stop stop-opacity="1" stop-color="rgb(94.659424%, 25.271606%, 37.783813%)" offset="0.738281"/><stop stop-opacity="1" stop-color="rgb(94.73877%, 25.18158%, 37.506104%)" offset="0.742188"/><stop stop-opacity="1" stop-color="rgb(94.818115%, 25.090027%, 37.228394%)" offset="0.746094"/><stop stop-opacity="1" stop-color="rgb(94.898987%, 25%, 36.950684%)" offset="0.75"/><stop stop-opacity="1" stop-color="rgb(94.978333%, 24.908447%, 36.672974%)" offset="0.753906"/><stop stop-opacity="1" stop-color="rgb(95.057678%, 24.81842%, 36.39679%)" offset="0.757812"/><stop stop-opacity="1" stop-color="rgb(95.137024%, 24.726868%, 36.11908%)" offset="0.761719"/><stop stop-opacity="1" stop-color="rgb(95.217896%, 24.636841%, 35.84137%)" offset="0.765625"/><stop stop-opacity="1" stop-color="rgb(95.297241%, 24.546814%, 35.56366%)" offset="0.769531"/><stop stop-opacity="1" stop-color="rgb(95.376587%, 24.456787%, 35.287476%)" offset="0.773438"/><stop stop-opacity="1" stop-color="rgb(95.455933%, 24.365234%, 35.009766%)" offset="0.777344"/><stop stop-opacity="1" stop-color="rgb(95.536804%, 24.275208%, 34.732056%)" offset="0.78125"/><stop stop-opacity="1" stop-color="rgb(95.61615%, 24.183655%, 34.454346%)" offset="0.785156"/><stop stop-opacity="1" stop-color="rgb(95.695496%, 24.093628%, 34.178162%)" offset="0.789062"/><stop stop-opacity="1" stop-color="rgb(95.774841%, 24.002075%, 33.900452%)" offset="0.792969"/><stop stop-opacity="1" stop-color="rgb(95.854187%, 23.912048%, 33.622742%)" offset="0.796875"/><stop stop-opacity="1" stop-color="rgb(95.933533%, 23.822021%, 33.345032%)" offset="0.800781"/><stop stop-opacity="1" stop-color="rgb(96.014404%, 23.731995%, 33.068848%)" offset="0.804688"/><stop stop-opacity="1" stop-color="rgb(96.09375%, 23.640442%, 32.791138%)" offset="0.808594"/><stop stop-opacity="1" stop-color="rgb(96.173096%, 23.550415%, 32.513428%)" offset="0.8125"/><stop stop-opacity="1" stop-color="rgb(96.252441%, 23.458862%, 32.235718%)" offset="0.816406"/><stop stop-opacity="1" stop-color="rgb(96.333313%, 23.368835%, 31.959534%)" offset="0.820312"/><stop stop-opacity="1" stop-color="rgb(96.412659%, 23.277283%, 31.681824%)" offset="0.824219"/><stop stop-opacity="1" stop-color="rgb(96.492004%, 23.187256%, 31.404114%)" offset="0.828125"/><stop stop-opacity="1" stop-color="rgb(96.57135%, 23.095703%, 31.126404%)" offset="0.832031"/><stop stop-opacity="1" stop-color="rgb(96.652222%, 23.005676%, 30.85022%)" offset="0.835938"/><stop stop-opacity="1" stop-color="rgb(96.731567%, 22.915649%, 30.57251%)" offset="0.839844"/><stop stop-opacity="1" stop-color="rgb(96.810913%, 22.825623%, 30.2948%)" offset="0.84375"/><stop stop-opacity="1" stop-color="rgb(96.890259%, 22.73407%, 30.01709%)" offset="0.847656"/><stop stop-opacity="1" stop-color="rgb(96.97113%, 22.644043%, 29.740906%)" offset="0.851562"/><stop stop-opacity="1" stop-color="rgb(97.050476%, 22.55249%, 29.463196%)" offset="0.855469"/><stop stop-opacity="1" stop-color="rgb(97.129822%, 22.462463%, 29.185486%)" offset="0.859375"/><stop stop-opacity="1" stop-color="rgb(97.209167%, 22.370911%, 28.907776%)" offset="0.863281"/><stop stop-opacity="1" stop-color="rgb(97.288513%, 22.280884%, 28.631592%)" offset="0.867188"/><stop stop-opacity="1" stop-color="rgb(97.367859%, 22.190857%, 28.353882%)" offset="0.871094"/><stop stop-opacity="1" stop-color="rgb(97.44873%, 22.10083%, 28.076172%)" offset="0.875"/><stop stop-opacity="1" stop-color="rgb(97.528076%, 22.009277%, 27.798462%)" offset="0.878906"/><stop stop-opacity="1" stop-color="rgb(97.607422%, 21.91925%, 27.522278%)" offset="0.882813"/><stop stop-opacity="1" stop-color="rgb(97.686768%, 21.827698%, 27.244568%)" offset="0.886719"/><stop stop-opacity="1" stop-color="rgb(97.767639%, 21.737671%, 26.966858%)" offset="0.890625"/><stop stop-opacity="1" stop-color="rgb(97.846985%, 21.646118%, 26.689148%)" offset="0.894531"/><stop stop-opacity="1" stop-color="rgb(97.926331%, 21.556091%, 26.412964%)" offset="0.898438"/><stop stop-opacity="1" stop-color="rgb(98.005676%, 21.464539%, 26.135254%)" offset="0.902344"/><stop stop-opacity="1" stop-color="rgb(98.086548%, 21.374512%, 25.857544%)" offset="0.90625"/><stop stop-opacity="1" stop-color="rgb(98.165894%, 21.284485%, 25.579834%)" offset="0.910156"/><stop stop-opacity="1" stop-color="rgb(98.245239%, 21.194458%, 25.30365%)" offset="0.914063"/><stop stop-opacity="1" stop-color="rgb(98.324585%, 21.102905%, 25.02594%)" offset="0.917969"/><stop stop-opacity="1" stop-color="rgb(98.405457%, 21.012878%, 24.74823%)" offset="0.921875"/><stop stop-opacity="1" stop-color="rgb(98.484802%, 20.921326%, 24.47052%)" offset="0.925781"/><stop stop-opacity="1" stop-color="rgb(98.564148%, 20.831299%, 24.194336%)" offset="0.929688"/><stop stop-opacity="1" stop-color="rgb(98.643494%, 20.739746%, 23.916626%)" offset="0.933594"/><stop stop-opacity="1" stop-color="rgb(98.722839%, 20.649719%, 23.638916%)" offset="0.9375"/><stop stop-opacity="1" stop-color="rgb(98.802185%, 20.558167%, 23.361206%)" offset="0.941406"/><stop stop-opacity="1" stop-color="rgb(98.883057%, 20.46814%, 23.085022%)" offset="0.945313"/><stop stop-opacity="1" stop-color="rgb(98.962402%, 20.378113%, 22.807312%)" offset="0.949219"/><stop stop-opacity="1" stop-color="rgb(99.041748%, 20.288086%, 22.529602%)" offset="0.953125"/><stop stop-opacity="1" stop-color="rgb(99.121094%, 20.196533%, 22.251892%)" offset="0.957031"/><stop stop-opacity="1" stop-color="rgb(99.201965%, 20.106506%, 21.975708%)" offset="0.960938"/><stop stop-opacity="1" stop-color="rgb(99.281311%, 20.014954%, 21.697998%)" offset="0.964844"/><stop stop-opacity="1" stop-color="rgb(99.360657%, 19.924927%, 21.420288%)" offset="0.96875"/><stop stop-opacity="1" stop-color="rgb(99.440002%, 19.833374%, 21.142578%)" offset="0.972656"/><stop stop-opacity="1" stop-color="rgb(99.520874%, 19.743347%, 20.866394%)" offset="0.976563"/><stop stop-opacity="1" stop-color="rgb(99.60022%, 19.65332%, 20.588684%)" offset="0.980469"/><stop stop-opacity="1" stop-color="rgb(99.679565%, 19.563293%, 20.310974%)" offset="0.984375"/><stop stop-opacity="1" stop-color="rgb(99.758911%, 19.471741%, 20.033264%)" offset="0.988281"/><stop stop-opacity="1" stop-color="rgb(99.839783%, 19.381714%, 19.75708%)" offset="0.992188"/><stop stop-opacity="1" stop-color="rgb(99.919128%, 19.290161%, 19.47937%)" offset="0.996094"/><stop stop-opacity="1" stop-color="rgb(99.998474%, 19.200134%, 19.20166%)" offset="1"/></linearGradient></defs><g clip-path="url(#9c997833f9)"><g clip-path="url(#b9e59648ed)"><path fill="url(#eeebced8af)" d="M 93.464844 93.464844 L 93.464844 281.714844 L 281.714844 281.714844 L 281.714844 93.464844 Z M 93.464844 93.464844 " fill-rule="nonzero"/></g></g></svg>