<svg xmlns="http://www.w3.org/2000/svg" xmlns:xlink="http://www.w3.org/1999/xlink" width="500" zoomAndPan="magnify" viewBox="0 0 375 374.999991" height="500" preserveAspectRatio="xMidYMid meet" version="1.0"><defs><clipPath id="cbae468432"><path d="M 362.722656 159.160156 C 357.347656 154.125 350.78125 148.347656 343.199219 142.308594 C 347.015625 131.25 348.992188 119.03125 348.992188 105.859375 C 348.992188 83.925781 336.234375 67.371094 314.578125 60.496094 C 307.816406 39.230469 291.226562 26.039062 269.15625 26.039062 C 255.007812 26.039062 242.945312 28.234375 232.691406 31.800781 C 226.652344 24.21875 220.890625 17.652344 215.855469 12.292969 C 208.535156 4.480469 198.203125 0 187.515625 0 C 182.171875 0 176.90625 1.128906 172.070312 3.210938 C 167.238281 5.3125 162.820312 8.386719 159.160156 12.292969 C 154.140625 17.652344 148.363281 24.21875 142.324219 31.785156 C 132.070312 28.234375 120.007812 26.039062 105.859375 26.039062 C 83.789062 26.039062 67.199219 39.230469 60.433594 60.480469 C 38.78125 67.371094 26.039062 83.910156 26.039062 105.859375 C 26.039062 119.046875 28 131.25 31.816406 142.308594 C 24.234375 148.347656 17.667969 154.125 12.292969 159.160156 C 4.480469 166.480469 0 176.8125 0 187.515625 C 0 198.203125 4.480469 208.535156 12.292969 215.855469 C 17.667969 220.890625 24.234375 226.667969 31.816406 232.707031 C 28 243.765625 26.039062 255.980469 26.039062 269.15625 C 26.039062 291.105469 38.78125 307.644531 60.433594 314.519531 C 67.199219 335.785156 83.789062 348.976562 105.859375 348.976562 C 120.007812 348.976562 132.070312 346.78125 142.324219 343.230469 C 148.363281 350.796875 154.140625 357.363281 159.160156 362.722656 C 166.480469 370.535156 176.8125 375.015625 187.515625 375.015625 C 198.203125 375.015625 208.535156 370.535156 215.855469 362.722656 C 220.890625 357.363281 226.652344 350.796875 232.691406 343.230469 C 242.945312 346.78125 255.007812 348.976562 269.15625 348.976562 C 291.226562 348.976562 307.816406 335.785156 314.578125 314.519531 C 336.234375 307.644531 348.992188 291.105469 348.992188 269.15625 C 348.992188 255.980469 347.015625 243.765625 343.199219 232.707031 C 350.78125 226.667969 357.347656 220.890625 362.722656 215.855469 C 370.535156 208.535156 375.015625 198.203125 375.015625 187.515625 C 375.015625 176.8125 370.535156 166.480469 362.722656 159.160156 Z M 317.886719 85.269531 C 323.460938 89.300781 327.984375 95.695312 327.984375 105.859375 C 327.984375 114.152344 327.074219 121.921875 325.28125 129.085938 C 320.710938 125.953125 315.894531 122.863281 310.859375 119.835938 C 315.199219 108.515625 317.636719 96.761719 317.886719 85.269531 Z M 296.710938 78.273438 C 296.847656 79.972656 296.941406 81.671875 296.941406 83.371094 C 296.941406 92.050781 295.289062 100.976562 292.261719 109.6875 C 286.253906 106.738281 280.015625 103.972656 273.558594 101.457031 C 271.054688 95 268.292969 88.761719 265.328125 82.769531 C 276.03125 79.03125 286.871094 77.488281 296.710938 78.273438 Z M 269.15625 47.042969 C 278.625 47.042969 285.25 51.074219 289.667969 57.113281 C 278.40625 57.378906 266.59375 59.769531 255.164062 64.140625 C 252.152344 59.105469 249.0625 54.304688 245.941406 49.746094 C 252.738281 48.046875 260.414062 47.042969 269.15625 47.042969 Z M 264.675781 150.464844 C 251.148438 162.308594 229.894531 174.277344 198.433594 176.566406 C 200.367188 150.433594 209.277344 127.773438 224.566406 110.351562 C 235.886719 111.757812 246.792969 114.382812 257.171875 117.84375 C 260.632812 128.238281 263.257812 139.140625 264.675781 150.464844 Z M 174.480469 26.65625 C 177.894531 23.011719 182.527344 21.003906 187.515625 21.003906 C 192.488281 21.003906 197.121094 23.011719 200.535156 26.65625 C 204.398438 30.78125 208.753906 35.660156 213.308594 41.207031 C 201.292969 49.007812 193.027344 58.613281 187.515625 67.046875 C 182 58.613281 173.722656 49.007812 161.707031 41.207031 C 166.261719 35.660156 170.617188 30.78125 174.480469 26.65625 Z M 148.949219 57.902344 C 167.328125 69.023438 174.605469 85.625 176.890625 92.40625 C 178.433594 96.976562 182.695312 100.035156 187.515625 100.035156 C 192.320312 100.035156 196.582031 96.976562 198.125 92.421875 C 200.410156 85.625 207.6875 69.023438 226.066406 57.902344 C 229.511719 62.769531 232.9375 67.941406 236.257812 73.410156 C 227.734375 78.582031 219.902344 84.808594 212.90625 92.019531 C 204.195312 100.992188 194.605469 113.8125 187.515625 131.109375 C 180.441406 113.8125 170.851562 100.992188 162.125 92.035156 C 155.097656 84.792969 147.265625 78.566406 138.773438 73.394531 C 142.09375 67.941406 145.519531 62.769531 148.949219 57.902344 Z M 264.675781 224.550781 C 263.257812 235.875 260.632812 246.777344 257.171875 257.171875 C 246.792969 260.632812 235.886719 263.257812 224.566406 264.675781 C 209.277344 247.242188 200.367188 224.597656 198.433594 198.449219 C 229.894531 200.734375 251.148438 212.707031 264.675781 224.550781 Z M 176.613281 176.582031 C 145.121094 174.277344 123.882812 162.308594 110.351562 150.464844 C 111.757812 139.140625 114.382812 128.238281 117.84375 117.84375 C 128.238281 114.382812 139.140625 111.757812 150.464844 110.335938 C 165.753906 127.773438 174.679688 150.417969 176.613281 176.582031 Z M 105.859375 47.042969 C 114.601562 47.042969 122.277344 48.046875 129.074219 49.746094 C 125.96875 54.304688 122.863281 59.105469 119.851562 64.125 C 108.421875 59.769531 96.605469 57.378906 85.363281 57.113281 C 89.78125 51.074219 96.390625 47.042969 105.859375 47.042969 Z M 78.304688 78.289062 C 88.144531 77.488281 98.984375 79.03125 109.6875 82.753906 C 106.738281 88.761719 103.972656 95 101.457031 101.457031 C 95 103.972656 88.761719 106.738281 82.753906 109.6875 C 79.726562 100.976562 78.074219 92.035156 78.074219 83.371094 C 78.074219 81.671875 78.167969 79.972656 78.304688 78.289062 Z M 57.128906 85.253906 C 57.378906 96.746094 59.816406 108.515625 64.15625 119.835938 C 59.121094 122.863281 54.304688 125.953125 49.730469 129.085938 C 47.941406 121.921875 47.03125 114.152344 47.03125 105.859375 C 47.03125 95.695312 51.554688 89.300781 57.128906 85.253906 Z M 57.128906 289.761719 C 51.554688 285.714844 47.03125 279.320312 47.03125 269.15625 C 47.03125 260.863281 47.941406 253.09375 49.730469 245.925781 C 54.304688 249.0625 59.121094 252.167969 64.15625 255.179688 C 59.816406 266.5 57.378906 278.269531 57.128906 289.761719 Z M 26.65625 200.535156 C 23.011719 197.121094 21.003906 192.488281 21.003906 187.515625 C 21.003906 182.527344 23.011719 177.894531 26.65625 174.480469 C 37.515625 164.300781 53.59375 150.820312 73.441406 138.742188 C 77.917969 146.109375 83.214844 153.074219 89.253906 159.34375 C 98.628906 169.074219 112.207031 179.808594 130.957031 187.515625 C 112.207031 195.207031 98.613281 205.957031 89.253906 215.671875 C 83.214844 221.941406 77.917969 228.90625 73.441406 236.273438 C 53.59375 224.210938 37.515625 210.730469 26.65625 200.535156 Z M 176.613281 198.449219 C 174.679688 224.597656 165.753906 247.242188 150.464844 264.675781 C 139.140625 263.257812 128.238281 260.632812 117.84375 257.171875 C 114.382812 246.777344 111.757812 235.875 110.351562 224.550781 C 123.882812 212.707031 145.121094 200.734375 176.613281 198.449219 Z M 78.304688 296.726562 C 78.167969 295.042969 78.074219 293.34375 78.074219 291.660156 C 78.074219 282.980469 79.726562 274.039062 82.753906 265.328125 C 88.761719 268.292969 95 271.054688 101.457031 273.558594 C 103.972656 280.015625 106.738281 286.253906 109.6875 292.261719 C 98.984375 295.984375 88.144531 297.527344 78.304688 296.726562 Z M 105.859375 327.984375 C 96.375 327.984375 89.75 323.925781 85.332031 317.855469 C 96.59375 317.605469 108.40625 315.230469 119.835938 310.875 C 122.863281 315.90625 125.953125 320.695312 129.074219 325.269531 C 122.277344 326.964844 114.601562 327.984375 105.859375 327.984375 Z M 200.535156 348.359375 C 197.121094 352.003906 192.488281 354.027344 187.515625 354.027344 C 182.527344 354.027344 177.894531 352.019531 174.480469 348.359375 C 170.617188 344.234375 166.261719 339.351562 161.707031 333.808594 C 173.722656 326.007812 181.984375 316.402344 187.515625 307.984375 C 193.027344 316.402344 201.292969 326.007812 213.308594 333.808594 C 208.753906 339.351562 204.398438 344.234375 200.535156 348.359375 Z M 226.066406 317.113281 C 207.6875 305.992188 200.425781 289.390625 198.125 282.609375 C 196.582031 278.054688 192.320312 274.980469 187.515625 274.980469 C 182.695312 274.980469 178.433594 278.054688 176.90625 282.609375 C 174.605469 289.390625 167.328125 305.992188 148.964844 317.113281 C 145.519531 312.246094 142.09375 307.074219 138.773438 301.621094 C 147.265625 296.449219 155.097656 290.222656 162.125 282.996094 C 170.851562 274.023438 180.441406 261.203125 187.515625 243.90625 C 194.605469 261.203125 204.179688 274.007812 212.90625 282.980469 C 219.902344 290.207031 227.734375 296.433594 236.257812 301.605469 C 232.9375 307.074219 229.511719 312.246094 226.066406 317.113281 Z M 269.15625 327.984375 C 260.414062 327.984375 252.738281 326.964844 245.941406 325.269531 C 249.0625 320.695312 252.167969 315.894531 255.179688 310.859375 C 266.625 315.230469 278.421875 317.605469 289.683594 317.855469 C 285.265625 323.925781 278.640625 327.984375 269.15625 327.984375 Z M 296.710938 296.726562 C 286.871094 297.527344 276.03125 295.984375 265.328125 292.246094 C 268.292969 286.253906 271.054688 280.015625 273.558594 273.558594 C 280.015625 271.054688 286.253906 268.292969 292.261719 265.328125 C 295.289062 274.039062 296.941406 282.980469 296.941406 291.660156 C 296.941406 293.34375 296.847656 295.042969 296.710938 296.726562 Z M 317.886719 289.746094 C 317.636719 278.269531 315.199219 266.5 310.859375 255.179688 C 315.894531 252.167969 320.710938 249.0625 325.28125 245.925781 C 327.074219 253.09375 327.984375 260.863281 327.984375 269.15625 C 327.984375 279.320312 323.460938 285.714844 317.886719 289.746094 Z M 348.359375 200.535156 C 337.5 210.730469 321.421875 224.195312 301.574219 236.273438 C 297.097656 228.90625 291.796875 221.941406 285.761719 215.671875 C 276.398438 205.957031 262.808594 195.207031 244.058594 187.515625 C 262.808594 179.808594 276.398438 169.074219 285.761719 159.34375 C 291.796875 153.074219 297.097656 146.109375 301.574219 138.742188 C 321.421875 150.820312 337.5 164.300781 348.359375 174.480469 C 352.019531 177.894531 354.027344 182.527344 354.027344 187.515625 C 354.027344 192.488281 352.003906 197.121094 348.359375 200.535156 Z M 348.359375 200.535156 " clip-rule="nonzero"/></clipPath><linearGradient x1="-0" gradientTransform="matrix(1.544481, 0, 0, 1.544481, 0.0000045, 0)" y1="121.404999" x2="242.800011" gradientUnits="userSpaceOnUse" y2="121.404999" id="c152351b86"><stop stop-opacity="1" stop-color="rgb(79.598999%, 42.399597%, 90.19928%)" offset="0"/><stop stop-opacity="1" stop-color="rgb(79.678345%, 42.308044%, 89.92157%)" offset="0.00390625"/><stop stop-opacity="1" stop-color="rgb(79.759216%, 42.218018%, 89.64386%)" offset="0.0078125"/><stop stop-opacity="1" stop-color="rgb(79.838562%, 42.126465%, 89.36615%)" offset="0.0117188"/><stop stop-opacity="1" stop-color="rgb(79.917908%, 42.036438%, 89.089966%)" offset="0.015625"/><stop stop-opacity="1" stop-color="rgb(79.997253%, 41.944885%, 88.812256%)" offset="0.0195312"/><stop stop-opacity="1" stop-color="rgb(80.076599%, 41.854858%, 88.534546%)" offset="0.0234375"/><stop stop-opacity="1" stop-color="rgb(80.155945%, 41.764832%, 88.256836%)" offset="0.0273438"/><stop stop-opacity="1" stop-color="rgb(80.236816%, 41.674805%, 87.980652%)" offset="0.03125"/><stop stop-opacity="1" stop-color="rgb(80.316162%, 41.583252%, 87.702942%)" offset="0.0351562"/><stop stop-opacity="1" stop-color="rgb(80.395508%, 41.493225%, 87.425232%)" offset="0.0390625"/><stop stop-opacity="1" stop-color="rgb(80.474854%, 41.401672%, 87.147522%)" offset="0.0429688"/><stop stop-opacity="1" stop-color="rgb(80.555725%, 41.311646%, 86.871338%)" offset="0.046875"/><stop stop-opacity="1" stop-color="rgb(80.635071%, 41.220093%, 86.593628%)" offset="0.0507812"/><stop stop-opacity="1" stop-color="rgb(80.714417%, 41.130066%, 86.315918%)" offset="0.0546875"/><stop stop-opacity="1" stop-color="rgb(80.793762%, 41.040039%, 86.038208%)" offset="0.0585938"/><stop stop-opacity="1" stop-color="rgb(80.874634%, 40.950012%, 85.762024%)" offset="0.0625"/><stop stop-opacity="1" stop-color="rgb(80.953979%, 40.858459%, 85.484314%)" offset="0.0664062"/><stop stop-opacity="1" stop-color="rgb(81.033325%, 40.768433%, 85.206604%)" offset="0.0703125"/><stop stop-opacity="1" stop-color="rgb(81.112671%, 40.67688%, 84.928894%)" offset="0.0742187"/><stop stop-opacity="1" stop-color="rgb(81.193542%, 40.586853%, 84.65271%)" offset="0.078125"/><stop stop-opacity="1" stop-color="rgb(81.272888%, 40.4953%, 84.375%)" offset="0.0820312"/><stop stop-opacity="1" stop-color="rgb(81.352234%, 40.405273%, 84.09729%)" offset="0.0859375"/><stop stop-opacity="1" stop-color="rgb(81.43158%, 40.313721%, 83.81958%)" offset="0.0898438"/><stop stop-opacity="1" stop-color="rgb(81.510925%, 40.223694%, 83.543396%)" offset="0.09375"/><stop stop-opacity="1" stop-color="rgb(81.590271%, 40.133667%, 83.265686%)" offset="0.0976563"/><stop stop-opacity="1" stop-color="rgb(81.671143%, 40.04364%, 82.987976%)" offset="0.101562"/><stop stop-opacity="1" stop-color="rgb(81.750488%, 39.952087%, 82.710266%)" offset="0.105469"/><stop stop-opacity="1" stop-color="rgb(81.829834%, 39.862061%, 82.434082%)" offset="0.109375"/><stop stop-opacity="1" stop-color="rgb(81.90918%, 39.770508%, 82.156372%)" offset="0.113281"/><stop stop-opacity="1" stop-color="rgb(81.990051%, 39.680481%, 81.878662%)" offset="0.117188"/><stop stop-opacity="1" stop-color="rgb(82.069397%, 39.588928%, 81.600952%)" offset="0.121094"/><stop stop-opacity="1" stop-color="rgb(82.148743%, 39.498901%, 81.324768%)" offset="0.125"/><stop stop-opacity="1" stop-color="rgb(82.228088%, 39.408875%, 81.047058%)" offset="0.128906"/><stop stop-opacity="1" stop-color="rgb(82.30896%, 39.318848%, 80.769348%)" offset="0.132812"/><stop stop-opacity="1" stop-color="rgb(82.388306%, 39.227295%, 80.491638%)" offset="0.136719"/><stop stop-opacity="1" stop-color="rgb(82.467651%, 39.137268%, 80.215454%)" offset="0.140625"/><stop stop-opacity="1" stop-color="rgb(82.546997%, 39.045715%, 79.937744%)" offset="0.144531"/><stop stop-opacity="1" stop-color="rgb(82.627869%, 38.955688%, 79.660034%)" offset="0.148437"/><stop stop-opacity="1" stop-color="rgb(82.707214%, 38.864136%, 79.382324%)" offset="0.152344"/><stop stop-opacity="1" stop-color="rgb(82.78656%, 38.774109%, 79.10614%)" offset="0.15625"/><stop stop-opacity="1" stop-color="rgb(82.865906%, 38.682556%, 78.82843%)" offset="0.160156"/><stop stop-opacity="1" stop-color="rgb(82.945251%, 38.592529%, 78.55072%)" offset="0.164062"/><stop stop-opacity="1" stop-color="rgb(83.024597%, 38.502502%, 78.27301%)" offset="0.167969"/><stop stop-opacity="1" stop-color="rgb(83.105469%, 38.412476%, 77.996826%)" offset="0.171875"/><stop stop-opacity="1" stop-color="rgb(83.184814%, 38.320923%, 77.719116%)" offset="0.175781"/><stop stop-opacity="1" stop-color="rgb(83.26416%, 38.230896%, 77.441406%)" offset="0.179688"/><stop stop-opacity="1" stop-color="rgb(83.343506%, 38.139343%, 77.163696%)" offset="0.183594"/><stop stop-opacity="1" stop-color="rgb(83.424377%, 38.049316%, 76.887512%)" offset="0.1875"/><stop stop-opacity="1" stop-color="rgb(83.503723%, 37.957764%, 76.609802%)" offset="0.191406"/><stop stop-opacity="1" stop-color="rgb(83.583069%, 37.867737%, 76.332092%)" offset="0.195313"/><stop stop-opacity="1" stop-color="rgb(83.662415%, 37.77771%, 76.054382%)" offset="0.199219"/><stop stop-opacity="1" stop-color="rgb(83.743286%, 37.687683%, 75.778198%)" offset="0.203125"/><stop stop-opacity="1" stop-color="rgb(83.822632%, 37.59613%, 75.500488%)" offset="0.207031"/><stop stop-opacity="1" stop-color="rgb(83.901978%, 37.506104%, 75.222778%)" offset="0.210938"/><stop stop-opacity="1" stop-color="rgb(83.981323%, 37.414551%, 74.945068%)" offset="0.214844"/><stop stop-opacity="1" stop-color="rgb(84.062195%, 37.324524%, 74.668884%)" offset="0.21875"/><stop stop-opacity="1" stop-color="rgb(84.141541%, 37.232971%, 74.391174%)" offset="0.222656"/><stop stop-opacity="1" stop-color="rgb(84.220886%, 37.142944%, 74.113464%)" offset="0.226562"/><stop stop-opacity="1" stop-color="rgb(84.300232%, 37.051392%, 73.835754%)" offset="0.230469"/><stop stop-opacity="1" stop-color="rgb(84.379578%, 36.961365%, 73.55957%)" offset="0.234375"/><stop stop-opacity="1" stop-color="rgb(84.458923%, 36.871338%, 73.28186%)" offset="0.238281"/><stop stop-opacity="1" stop-color="rgb(84.539795%, 36.781311%, 73.00415%)" offset="0.242188"/><stop stop-opacity="1" stop-color="rgb(84.619141%, 36.689758%, 72.72644%)" offset="0.246094"/><stop stop-opacity="1" stop-color="rgb(84.698486%, 36.599731%, 72.450256%)" offset="0.25"/><stop stop-opacity="1" stop-color="rgb(84.777832%, 36.508179%, 72.172546%)" offset="0.253906"/><stop stop-opacity="1" stop-color="rgb(84.858704%, 36.418152%, 71.894836%)" offset="0.257812"/><stop stop-opacity="1" stop-color="rgb(84.938049%, 36.326599%, 71.617126%)" offset="0.261719"/><stop stop-opacity="1" stop-color="rgb(85.017395%, 36.236572%, 71.340942%)" offset="0.265625"/><stop stop-opacity="1" stop-color="rgb(85.096741%, 36.14502%, 71.063232%)" offset="0.269531"/><stop stop-opacity="1" stop-color="rgb(85.177612%, 36.054993%, 70.785522%)" offset="0.273438"/><stop stop-opacity="1" stop-color="rgb(85.256958%, 35.964966%, 70.507812%)" offset="0.277344"/><stop stop-opacity="1" stop-color="rgb(85.336304%, 35.874939%, 70.231628%)" offset="0.28125"/><stop stop-opacity="1" stop-color="rgb(85.415649%, 35.783386%, 69.953918%)" offset="0.285156"/><stop stop-opacity="1" stop-color="rgb(85.496521%, 35.693359%, 69.676208%)" offset="0.289062"/><stop stop-opacity="1" stop-color="rgb(85.575867%, 35.601807%, 69.398499%)" offset="0.292969"/><stop stop-opacity="1" stop-color="rgb(85.655212%, 35.51178%, 69.122314%)" offset="0.296875"/><stop stop-opacity="1" stop-color="rgb(85.734558%, 35.420227%, 68.844604%)" offset="0.300781"/><stop stop-opacity="1" stop-color="rgb(85.813904%, 35.3302%, 68.566895%)" offset="0.304688"/><stop stop-opacity="1" stop-color="rgb(85.89325%, 35.240173%, 68.289185%)" offset="0.308594"/><stop stop-opacity="1" stop-color="rgb(85.974121%, 35.150146%, 68.013%)" offset="0.3125"/><stop stop-opacity="1" stop-color="rgb(86.053467%, 35.058594%, 67.735291%)" offset="0.316406"/><stop stop-opacity="1" stop-color="rgb(86.132812%, 34.968567%, 67.457581%)" offset="0.320312"/><stop stop-opacity="1" stop-color="rgb(86.212158%, 34.877014%, 67.179871%)" offset="0.324219"/><stop stop-opacity="1" stop-color="rgb(86.29303%, 34.786987%, 66.903687%)" offset="0.328125"/><stop stop-opacity="1" stop-color="rgb(86.372375%, 34.695435%, 66.625977%)" offset="0.332031"/><stop stop-opacity="1" stop-color="rgb(86.451721%, 34.605408%, 66.348267%)" offset="0.335938"/><stop stop-opacity="1" stop-color="rgb(86.531067%, 34.513855%, 66.070557%)" offset="0.339844"/><stop stop-opacity="1" stop-color="rgb(86.611938%, 34.423828%, 65.794373%)" offset="0.34375"/><stop stop-opacity="1" stop-color="rgb(86.691284%, 34.333801%, 65.516663%)" offset="0.347656"/><stop stop-opacity="1" stop-color="rgb(86.77063%, 34.243774%, 65.238953%)" offset="0.351562"/><stop stop-opacity="1" stop-color="rgb(86.849976%, 34.152222%, 64.961243%)" offset="0.355469"/><stop stop-opacity="1" stop-color="rgb(86.930847%, 34.062195%, 64.685059%)" offset="0.359375"/><stop stop-opacity="1" stop-color="rgb(87.010193%, 33.970642%, 64.407349%)" offset="0.363281"/><stop stop-opacity="1" stop-color="rgb(87.089539%, 33.880615%, 64.129639%)" offset="0.367188"/><stop stop-opacity="1" stop-color="rgb(87.168884%, 33.789062%, 63.851929%)" offset="0.371094"/><stop stop-opacity="1" stop-color="rgb(87.24823%, 33.699036%, 63.575745%)" offset="0.375"/><stop stop-opacity="1" stop-color="rgb(87.327576%, 33.609009%, 63.298035%)" offset="0.378906"/><stop stop-opacity="1" stop-color="rgb(87.408447%, 33.518982%, 63.020325%)" offset="0.382813"/><stop stop-opacity="1" stop-color="rgb(87.487793%, 33.427429%, 62.742615%)" offset="0.386719"/><stop stop-opacity="1" stop-color="rgb(87.567139%, 33.337402%, 62.466431%)" offset="0.390625"/><stop stop-opacity="1" stop-color="rgb(87.646484%, 33.24585%, 62.188721%)" offset="0.394531"/><stop stop-opacity="1" stop-color="rgb(87.727356%, 33.155823%, 61.911011%)" offset="0.398438"/><stop stop-opacity="1" stop-color="rgb(87.806702%, 33.06427%, 61.633301%)" offset="0.402344"/><stop stop-opacity="1" stop-color="rgb(87.886047%, 32.974243%, 61.357117%)" offset="0.40625"/><stop stop-opacity="1" stop-color="rgb(87.965393%, 32.88269%, 61.079407%)" offset="0.410156"/><stop stop-opacity="1" stop-color="rgb(88.046265%, 32.792664%, 60.801697%)" offset="0.414062"/><stop stop-opacity="1" stop-color="rgb(88.12561%, 32.702637%, 60.523987%)" offset="0.417969"/><stop stop-opacity="1" stop-color="rgb(88.204956%, 32.61261%, 60.247803%)" offset="0.421875"/><stop stop-opacity="1" stop-color="rgb(88.284302%, 32.521057%, 59.970093%)" offset="0.425781"/><stop stop-opacity="1" stop-color="rgb(88.365173%, 32.43103%, 59.692383%)" offset="0.429688"/><stop stop-opacity="1" stop-color="rgb(88.444519%, 32.339478%, 59.414673%)" offset="0.433594"/><stop stop-opacity="1" stop-color="rgb(88.523865%, 32.249451%, 59.138489%)" offset="0.4375"/><stop stop-opacity="1" stop-color="rgb(88.60321%, 32.157898%, 58.860779%)" offset="0.441406"/><stop stop-opacity="1" stop-color="rgb(88.682556%, 32.067871%, 58.583069%)" offset="0.445313"/><stop stop-opacity="1" stop-color="rgb(88.761902%, 31.977844%, 58.305359%)" offset="0.449219"/><stop stop-opacity="1" stop-color="rgb(88.842773%, 31.887817%, 58.029175%)" offset="0.453125"/><stop stop-opacity="1" stop-color="rgb(88.922119%, 31.796265%, 57.751465%)" offset="0.457031"/><stop stop-opacity="1" stop-color="rgb(89.001465%, 31.706238%, 57.473755%)" offset="0.460938"/><stop stop-opacity="1" stop-color="rgb(89.080811%, 31.614685%, 57.196045%)" offset="0.464844"/><stop stop-opacity="1" stop-color="rgb(89.161682%, 31.524658%, 56.919861%)" offset="0.46875"/><stop stop-opacity="1" stop-color="rgb(89.241028%, 31.433105%, 56.642151%)" offset="0.472656"/><stop stop-opacity="1" stop-color="rgb(89.320374%, 31.343079%, 56.364441%)" offset="0.476562"/><stop stop-opacity="1" stop-color="rgb(89.399719%, 31.251526%, 56.086731%)" offset="0.480469"/><stop stop-opacity="1" stop-color="rgb(89.480591%, 31.161499%, 55.810547%)" offset="0.484375"/><stop stop-opacity="1" stop-color="rgb(89.559937%, 31.071472%, 55.532837%)" offset="0.488281"/><stop stop-opacity="1" stop-color="rgb(89.639282%, 30.981445%, 55.255127%)" offset="0.492188"/><stop stop-opacity="1" stop-color="rgb(89.718628%, 30.889893%, 54.977417%)" offset="0.496094"/><stop stop-opacity="1" stop-color="rgb(89.7995%, 30.799866%, 54.701233%)" offset="0.5"/><stop stop-opacity="1" stop-color="rgb(89.878845%, 30.708313%, 54.423523%)" offset="0.503906"/><stop stop-opacity="1" stop-color="rgb(89.958191%, 30.618286%, 54.145813%)" offset="0.507812"/><stop stop-opacity="1" stop-color="rgb(90.037537%, 30.526733%, 53.868103%)" offset="0.511719"/><stop stop-opacity="1" stop-color="rgb(90.116882%, 30.436707%, 53.591919%)" offset="0.515625"/><stop stop-opacity="1" stop-color="rgb(90.196228%, 30.34668%, 53.314209%)" offset="0.519531"/><stop stop-opacity="1" stop-color="rgb(90.2771%, 30.256653%, 53.036499%)" offset="0.523438"/><stop stop-opacity="1" stop-color="rgb(90.356445%, 30.1651%, 52.758789%)" offset="0.527344"/><stop stop-opacity="1" stop-color="rgb(90.435791%, 30.075073%, 52.482605%)" offset="0.53125"/><stop stop-opacity="1" stop-color="rgb(90.515137%, 29.983521%, 52.204895%)" offset="0.535156"/><stop stop-opacity="1" stop-color="rgb(90.596008%, 29.893494%, 51.927185%)" offset="0.539062"/><stop stop-opacity="1" stop-color="rgb(90.675354%, 29.801941%, 51.649475%)" offset="0.542969"/><stop stop-opacity="1" stop-color="rgb(90.7547%, 29.711914%, 51.373291%)" offset="0.546875"/><stop stop-opacity="1" stop-color="rgb(90.834045%, 29.620361%, 51.095581%)" offset="0.550781"/><stop stop-opacity="1" stop-color="rgb(90.914917%, 29.530334%, 50.817871%)" offset="0.554688"/><stop stop-opacity="1" stop-color="rgb(90.994263%, 29.440308%, 50.540161%)" offset="0.558594"/><stop stop-opacity="1" stop-color="rgb(91.073608%, 29.350281%, 50.263977%)" offset="0.5625"/><stop stop-opacity="1" stop-color="rgb(91.152954%, 29.258728%, 49.986267%)" offset="0.566406"/><stop stop-opacity="1" stop-color="rgb(91.233826%, 29.168701%, 49.708557%)" offset="0.570312"/><stop stop-opacity="1" stop-color="rgb(91.313171%, 29.077148%, 49.430847%)" offset="0.574219"/><stop stop-opacity="1" stop-color="rgb(91.392517%, 28.987122%, 49.154663%)" offset="0.578125"/><stop stop-opacity="1" stop-color="rgb(91.471863%, 28.895569%, 48.876953%)" offset="0.582031"/><stop stop-opacity="1" stop-color="rgb(91.551208%, 28.805542%, 48.599243%)" offset="0.585937"/><stop stop-opacity="1" stop-color="rgb(91.630554%, 28.715515%, 48.321533%)" offset="0.589844"/><stop stop-opacity="1" stop-color="rgb(91.711426%, 28.625488%, 48.045349%)" offset="0.59375"/><stop stop-opacity="1" stop-color="rgb(91.790771%, 28.533936%, 47.767639%)" offset="0.597656"/><stop stop-opacity="1" stop-color="rgb(91.870117%, 28.443909%, 47.489929%)" offset="0.601562"/><stop stop-opacity="1" stop-color="rgb(91.949463%, 28.352356%, 47.212219%)" offset="0.605469"/><stop stop-opacity="1" stop-color="rgb(92.030334%, 28.262329%, 46.936035%)" offset="0.609375"/><stop stop-opacity="1" stop-color="rgb(92.10968%, 28.170776%, 46.658325%)" offset="0.613281"/><stop stop-opacity="1" stop-color="rgb(92.189026%, 28.08075%, 46.380615%)" offset="0.617188"/><stop stop-opacity="1" stop-color="rgb(92.268372%, 27.989197%, 46.102905%)" offset="0.621094"/><stop stop-opacity="1" stop-color="rgb(92.349243%, 27.89917%, 45.826721%)" offset="0.625"/><stop stop-opacity="1" stop-color="rgb(92.428589%, 27.809143%, 45.549011%)" offset="0.628906"/><stop stop-opacity="1" stop-color="rgb(92.507935%, 27.719116%, 45.271301%)" offset="0.632812"/><stop stop-opacity="1" stop-color="rgb(92.58728%, 27.627563%, 44.993591%)" offset="0.636719"/><stop stop-opacity="1" stop-color="rgb(92.668152%, 27.537537%, 44.717407%)" offset="0.640625"/><stop stop-opacity="1" stop-color="rgb(92.747498%, 27.445984%, 44.439697%)" offset="0.644531"/><stop stop-opacity="1" stop-color="rgb(92.826843%, 27.355957%, 44.161987%)" offset="0.648438"/><stop stop-opacity="1" stop-color="rgb(92.906189%, 27.264404%, 43.884277%)" offset="0.652344"/><stop stop-opacity="1" stop-color="rgb(92.985535%, 27.174377%, 43.608093%)" offset="0.65625"/><stop stop-opacity="1" stop-color="rgb(93.06488%, 27.084351%, 43.330383%)" offset="0.660156"/><stop stop-opacity="1" stop-color="rgb(93.145752%, 26.994324%, 43.052673%)" offset="0.664063"/><stop stop-opacity="1" stop-color="rgb(93.225098%, 26.902771%, 42.774963%)" offset="0.667969"/><stop stop-opacity="1" stop-color="rgb(93.304443%, 26.812744%, 42.498779%)" offset="0.671875"/><stop stop-opacity="1" stop-color="rgb(93.383789%, 26.721191%, 42.221069%)" offset="0.675781"/><stop stop-opacity="1" stop-color="rgb(93.464661%, 26.631165%, 41.943359%)" offset="0.679688"/><stop stop-opacity="1" stop-color="rgb(93.544006%, 26.539612%, 41.665649%)" offset="0.683594"/><stop stop-opacity="1" stop-color="rgb(93.623352%, 26.449585%, 41.389465%)" offset="0.6875"/><stop stop-opacity="1" stop-color="rgb(93.702698%, 26.358032%, 41.111755%)" offset="0.691406"/><stop stop-opacity="1" stop-color="rgb(93.783569%, 26.268005%, 40.834045%)" offset="0.695312"/><stop stop-opacity="1" stop-color="rgb(93.862915%, 26.177979%, 40.556335%)" offset="0.699219"/><stop stop-opacity="1" stop-color="rgb(93.942261%, 26.087952%, 40.280151%)" offset="0.703125"/><stop stop-opacity="1" stop-color="rgb(94.021606%, 25.996399%, 40.002441%)" offset="0.707031"/><stop stop-opacity="1" stop-color="rgb(94.102478%, 25.906372%, 39.724731%)" offset="0.710938"/><stop stop-opacity="1" stop-color="rgb(94.181824%, 25.814819%, 39.447021%)" offset="0.714844"/><stop stop-opacity="1" stop-color="rgb(94.261169%, 25.724792%, 39.170837%)" offset="0.71875"/><stop stop-opacity="1" stop-color="rgb(94.340515%, 25.63324%, 38.893127%)" offset="0.722656"/><stop stop-opacity="1" stop-color="rgb(94.419861%, 25.543213%, 38.615417%)" offset="0.726562"/><stop stop-opacity="1" stop-color="rgb(94.499207%, 25.453186%, 38.337708%)" offset="0.730469"/><stop stop-opacity="1" stop-color="rgb(94.580078%, 25.363159%, 38.059998%)" offset="0.734375"/><stop stop-opacity="1" stop-color="rgb(94.659424%, 25.271606%, 37.782288%)" offset="0.738281"/><stop stop-opacity="1" stop-color="rgb(94.73877%, 25.18158%, 37.506104%)" offset="0.742188"/><stop stop-opacity="1" stop-color="rgb(94.818115%, 25.090027%, 37.228394%)" offset="0.746094"/><stop stop-opacity="1" stop-color="rgb(94.898987%, 25%, 36.950684%)" offset="0.75"/><stop stop-opacity="1" stop-color="rgb(94.978333%, 24.908447%, 36.672974%)" offset="0.753906"/><stop stop-opacity="1" stop-color="rgb(95.057678%, 24.81842%, 36.39679%)" offset="0.757812"/><stop stop-opacity="1" stop-color="rgb(95.137024%, 24.726868%, 36.11908%)" offset="0.761719"/><stop stop-opacity="1" stop-color="rgb(95.217896%, 24.636841%, 35.84137%)" offset="0.765625"/><stop stop-opacity="1" stop-color="rgb(95.297241%, 24.546814%, 35.56366%)" offset="0.769531"/><stop stop-opacity="1" stop-color="rgb(95.376587%, 24.456787%, 35.287476%)" offset="0.773438"/><stop stop-opacity="1" stop-color="rgb(95.455933%, 24.365234%, 35.009766%)" offset="0.777344"/><stop stop-opacity="1" stop-color="rgb(95.536804%, 24.275208%, 34.732056%)" offset="0.78125"/><stop stop-opacity="1" stop-color="rgb(95.61615%, 24.183655%, 34.454346%)" offset="0.785156"/><stop stop-opacity="1" stop-color="rgb(95.695496%, 24.093628%, 34.178162%)" offset="0.789063"/><stop stop-opacity="1" stop-color="rgb(95.774841%, 24.002075%, 33.900452%)" offset="0.792969"/><stop stop-opacity="1" stop-color="rgb(95.854187%, 23.912048%, 33.622742%)" offset="0.796875"/><stop stop-opacity="1" stop-color="rgb(95.933533%, 23.822021%, 33.345032%)" offset="0.800781"/><stop stop-opacity="1" stop-color="rgb(96.014404%, 23.731995%, 33.068848%)" offset="0.804688"/><stop stop-opacity="1" stop-color="rgb(96.09375%, 23.640442%, 32.791138%)" offset="0.808594"/><stop stop-opacity="1" stop-color="rgb(96.173096%, 23.550415%, 32.513428%)" offset="0.8125"/><stop stop-opacity="1" stop-color="rgb(96.252441%, 23.458862%, 32.235718%)" offset="0.816406"/><stop stop-opacity="1" stop-color="rgb(96.333313%, 23.368835%, 31.959534%)" offset="0.820312"/><stop stop-opacity="1" stop-color="rgb(96.412659%, 23.277283%, 31.681824%)" offset="0.824219"/><stop stop-opacity="1" stop-color="rgb(96.492004%, 23.187256%, 31.404114%)" offset="0.828125"/><stop stop-opacity="1" stop-color="rgb(96.57135%, 23.095703%, 31.126404%)" offset="0.832031"/><stop stop-opacity="1" stop-color="rgb(96.652222%, 23.005676%, 30.85022%)" offset="0.835938"/><stop stop-opacity="1" stop-color="rgb(96.731567%, 22.915649%, 30.57251%)" offset="0.839844"/><stop stop-opacity="1" stop-color="rgb(96.810913%, 22.825623%, 30.2948%)" offset="0.84375"/><stop stop-opacity="1" stop-color="rgb(96.890259%, 22.73407%, 30.01709%)" offset="0.847656"/><stop stop-opacity="1" stop-color="rgb(96.97113%, 22.644043%, 29.740906%)" offset="0.851562"/><stop stop-opacity="1" stop-color="rgb(97.050476%, 22.55249%, 29.463196%)" offset="0.855469"/><stop stop-opacity="1" stop-color="rgb(97.129822%, 22.462463%, 29.185486%)" offset="0.859375"/><stop stop-opacity="1" stop-color="rgb(97.209167%, 22.370911%, 28.907776%)" offset="0.863281"/><stop stop-opacity="1" stop-color="rgb(97.288513%, 22.280884%, 28.631592%)" offset="0.867188"/><stop stop-opacity="1" stop-color="rgb(97.367859%, 22.190857%, 28.353882%)" offset="0.871094"/><stop stop-opacity="1" stop-color="rgb(97.44873%, 22.10083%, 28.076172%)" offset="0.875"/><stop stop-opacity="1" stop-color="rgb(97.528076%, 22.009277%, 27.798462%)" offset="0.878906"/><stop stop-opacity="1" stop-color="rgb(97.607422%, 21.91925%, 27.522278%)" offset="0.882813"/><stop stop-opacity="1" stop-color="rgb(97.686768%, 21.827698%, 27.244568%)" offset="0.886719"/><stop stop-opacity="1" stop-color="rgb(97.767639%, 21.737671%, 26.966858%)" offset="0.890625"/><stop stop-opacity="1" stop-color="rgb(97.846985%, 21.646118%, 26.689148%)" offset="0.894531"/><stop stop-opacity="1" stop-color="rgb(97.926331%, 21.556091%, 26.412964%)" offset="0.898438"/><stop stop-opacity="1" stop-color="rgb(98.005676%, 21.464539%, 26.135254%)" offset="0.902344"/><stop stop-opacity="1" stop-color="rgb(98.086548%, 21.374512%, 25.857544%)" offset="0.90625"/><stop stop-opacity="1" stop-color="rgb(98.165894%, 21.284485%, 25.579834%)" offset="0.910156"/><stop stop-opacity="1" stop-color="rgb(98.245239%, 21.194458%, 25.30365%)" offset="0.914062"/><stop stop-opacity="1" stop-color="rgb(98.324585%, 21.102905%, 25.02594%)" offset="0.917969"/><stop stop-opacity="1" stop-color="rgb(98.405457%, 21.012878%, 24.74823%)" offset="0.921875"/><stop stop-opacity="1" stop-color="rgb(98.484802%, 20.921326%, 24.47052%)" offset="0.925781"/><stop stop-opacity="1" stop-color="rgb(98.564148%, 20.831299%, 24.194336%)" offset="0.929688"/><stop stop-opacity="1" stop-color="rgb(98.643494%, 20.739746%, 23.916626%)" offset="0.933594"/><stop stop-opacity="1" stop-color="rgb(98.722839%, 20.649719%, 23.638916%)" offset="0.9375"/><stop stop-opacity="1" stop-color="rgb(98.802185%, 20.558167%, 23.361206%)" offset="0.941406"/><stop stop-opacity="1" stop-color="rgb(98.883057%, 20.46814%, 23.085022%)" offset="0.945312"/><stop stop-opacity="1" stop-color="rgb(98.962402%, 20.378113%, 22.807312%)" offset="0.949219"/><stop stop-opacity="1" stop-color="rgb(99.041748%, 20.288086%, 22.529602%)" offset="0.953125"/><stop stop-opacity="1" stop-color="rgb(99.121094%, 20.196533%, 22.251892%)" offset="0.957031"/><stop stop-opacity="1" stop-color="rgb(99.201965%, 20.106506%, 21.975708%)" offset="0.960938"/><stop stop-opacity="1" stop-color="rgb(99.281311%, 20.014954%, 21.697998%)" offset="0.964844"/><stop stop-opacity="1" stop-color="rgb(99.360657%, 19.924927%, 21.420288%)" offset="0.96875"/><stop stop-opacity="1" stop-color="rgb(99.440002%, 19.833374%, 21.142578%)" offset="0.972656"/><stop stop-opacity="1" stop-color="rgb(99.520874%, 19.743347%, 20.866394%)" offset="0.976563"/><stop stop-opacity="1" stop-color="rgb(99.60022%, 19.65332%, 20.588684%)" offset="0.980469"/><stop stop-opacity="1" stop-color="rgb(99.679565%, 19.563293%, 20.310974%)" offset="0.984375"/><stop stop-opacity="1" stop-color="rgb(99.758911%, 19.471741%, 20.033264%)" offset="0.988281"/><stop stop-opacity="1" stop-color="rgb(99.839783%, 19.381714%, 19.75708%)" offset="0.992188"/><stop stop-opacity="1" stop-color="rgb(99.919128%, 19.290161%, 19.47937%)" offset="0.996094"/><stop stop-opacity="1" stop-color="rgb(99.998474%, 19.200134%, 19.20166%)" offset="1"/></linearGradient></defs><g clip-path="url(#cbae468432)"><rect x="-37.5" fill="url(#c152351b86)" width="450" y="-37.499999" height="449.999989"/></g></svg>