<svg xmlns="http://www.w3.org/2000/svg" xmlns:xlink="http://www.w3.org/1999/xlink" width="500" zoomAndPan="magnify" viewBox="0 0 375 374.999991" height="500" preserveAspectRatio="xMidYMid meet" version="1.0"><defs><g/><clipPath id="6766b1d9bd"><path d="M 94.09375 45.558594 L 280.84375 45.558594 L 280.84375 232.308594 L 94.09375 232.308594 Z M 94.09375 45.558594 " clip-rule="nonzero"/></clipPath><clipPath id="b1da5ed7bd"><path d="M 274.726562 124.820312 C 272.050781 122.3125 268.78125 119.4375 265.003906 116.429688 C 266.90625 110.921875 267.890625 104.835938 267.890625 98.277344 C 267.890625 87.355469 261.535156 79.109375 250.753906 75.6875 C 247.382812 65.09375 239.125 58.527344 228.132812 58.527344 C 221.085938 58.527344 215.082031 59.617188 209.972656 61.394531 C 206.964844 57.617188 204.097656 54.351562 201.589844 51.679688 C 197.945312 47.789062 192.796875 45.558594 187.476562 45.558594 C 184.8125 45.558594 182.191406 46.121094 179.785156 47.160156 C 177.375 48.203125 175.175781 49.734375 173.355469 51.679688 C 170.855469 54.351562 167.976562 57.617188 164.96875 61.386719 C 159.863281 59.617188 153.855469 58.527344 146.808594 58.527344 C 135.820312 58.527344 127.558594 65.09375 124.191406 75.679688 C 113.40625 79.109375 107.058594 87.347656 107.058594 98.277344 C 107.058594 104.84375 108.039062 110.921875 109.9375 116.429688 C 106.160156 119.4375 102.890625 122.3125 100.214844 124.820312 C 96.324219 128.464844 94.09375 133.609375 94.09375 138.941406 C 94.09375 144.265625 96.324219 149.410156 100.214844 153.054688 C 102.890625 155.5625 106.160156 158.4375 109.9375 161.445312 C 108.039062 166.953125 107.058594 173.039062 107.058594 179.597656 C 107.058594 190.527344 113.40625 198.765625 124.191406 202.1875 C 127.558594 212.78125 135.820312 219.347656 146.808594 219.347656 C 153.855469 219.347656 159.863281 218.257812 164.96875 216.488281 C 167.976562 220.257812 170.855469 223.523438 173.355469 226.195312 C 177 230.085938 182.144531 232.316406 187.476562 232.316406 C 192.796875 232.316406 197.945312 230.085938 201.589844 226.195312 C 204.097656 223.523438 206.964844 220.257812 209.972656 216.488281 C 215.082031 218.257812 221.085938 219.347656 228.132812 219.347656 C 239.125 219.347656 247.382812 212.78125 250.753906 202.1875 C 261.535156 198.765625 267.890625 190.527344 267.890625 179.597656 C 267.890625 173.039062 266.90625 166.953125 265.003906 161.445312 C 268.78125 158.4375 272.050781 155.5625 274.726562 153.054688 C 278.621094 149.410156 280.851562 144.265625 280.851562 138.941406 C 280.851562 133.609375 278.621094 128.464844 274.726562 124.820312 Z M 252.398438 88.023438 C 255.175781 90.03125 257.429688 93.214844 257.429688 98.277344 C 257.429688 102.40625 256.976562 106.277344 256.082031 109.84375 C 253.808594 108.28125 251.40625 106.746094 248.898438 105.238281 C 251.0625 99.597656 252.277344 93.746094 252.398438 88.023438 Z M 241.855469 84.539062 C 241.921875 85.386719 241.96875 86.230469 241.96875 87.078125 C 241.96875 91.398438 241.148438 95.84375 239.640625 100.183594 C 236.648438 98.714844 233.539062 97.335938 230.324219 96.085938 C 229.078125 92.867188 227.703125 89.761719 226.226562 86.777344 C 231.554688 84.917969 236.953125 84.148438 241.855469 84.539062 Z M 228.132812 68.988281 C 232.847656 68.988281 236.148438 70.996094 238.347656 74 C 232.738281 74.132812 226.855469 75.324219 221.164062 77.5 C 219.664062 74.992188 218.125 72.601562 216.574219 70.332031 C 219.957031 69.488281 223.777344 68.988281 228.132812 68.988281 Z M 225.902344 120.488281 C 219.164062 126.390625 208.582031 132.351562 192.914062 133.488281 C 193.875 120.472656 198.3125 109.191406 205.925781 100.515625 C 211.566406 101.214844 216.996094 102.523438 222.164062 104.246094 C 223.886719 109.421875 225.195312 114.851562 225.902344 120.488281 Z M 180.984375 58.835938 C 182.683594 57.019531 184.992188 56.019531 187.476562 56.019531 C 189.953125 56.019531 192.257812 57.019531 193.960938 58.835938 C 195.882812 60.886719 198.050781 63.316406 200.320312 66.078125 C 194.335938 69.964844 190.222656 74.746094 187.476562 78.949219 C 184.730469 74.746094 180.605469 69.964844 174.621094 66.078125 C 176.890625 63.316406 179.0625 60.886719 180.984375 58.835938 Z M 168.269531 74.394531 C 177.421875 79.933594 181.046875 88.199219 182.183594 91.578125 C 182.953125 93.855469 185.074219 95.375 187.476562 95.375 C 189.867188 95.375 191.988281 93.855469 192.757812 91.585938 C 193.898438 88.199219 197.519531 79.933594 206.671875 74.394531 C 208.386719 76.816406 210.097656 79.394531 211.75 82.117188 C 207.503906 84.691406 203.605469 87.792969 200.121094 91.382812 C 195.78125 95.851562 191.003906 102.238281 187.476562 110.851562 C 183.953125 102.238281 179.175781 95.851562 174.832031 91.390625 C 171.332031 87.785156 167.429688 84.683594 163.199219 82.109375 C 164.855469 79.394531 166.5625 76.816406 168.269531 74.394531 Z M 225.902344 157.386719 C 225.195312 163.023438 223.886719 168.453125 222.164062 173.628906 C 216.996094 175.351562 211.566406 176.660156 205.925781 177.367188 C 198.3125 168.683594 193.875 157.410156 192.914062 144.386719 C 208.582031 145.523438 219.164062 151.484375 225.902344 157.386719 Z M 182.046875 133.496094 C 166.363281 132.351562 155.785156 126.390625 149.046875 120.488281 C 149.75 114.851562 151.054688 109.421875 152.777344 104.246094 C 157.957031 102.523438 163.386719 101.214844 169.023438 100.507812 C 176.636719 109.191406 181.082031 120.464844 182.046875 133.496094 Z M 146.808594 68.988281 C 151.164062 68.988281 154.984375 69.488281 158.371094 70.332031 C 156.824219 72.601562 155.277344 74.992188 153.777344 77.492188 C 148.085938 75.324219 142.203125 74.132812 136.605469 74 C 138.804688 70.996094 142.09375 68.988281 146.808594 68.988281 Z M 133.089844 84.546875 C 137.988281 84.148438 143.386719 84.917969 148.71875 86.769531 C 147.25 89.761719 145.871094 92.867188 144.617188 96.085938 C 141.402344 97.335938 138.296875 98.714844 135.304688 100.183594 C 133.796875 95.84375 132.972656 91.390625 132.972656 87.078125 C 132.972656 86.230469 133.019531 85.386719 133.089844 84.546875 Z M 122.542969 88.015625 C 122.667969 93.738281 123.882812 99.597656 126.042969 105.238281 C 123.535156 106.746094 121.136719 108.28125 118.859375 109.84375 C 117.96875 106.273438 117.511719 102.40625 117.511719 98.277344 C 117.511719 93.214844 119.765625 90.03125 122.542969 88.015625 Z M 122.542969 189.859375 C 119.765625 187.84375 117.511719 184.660156 117.511719 179.597656 C 117.511719 175.46875 117.96875 171.597656 118.859375 168.03125 C 121.136719 169.59375 123.535156 171.136719 126.042969 172.636719 C 123.882812 178.277344 122.667969 184.136719 122.542969 189.859375 Z M 107.367188 145.425781 C 105.554688 143.726562 104.554688 141.417969 104.554688 138.941406 C 104.554688 136.457031 105.554688 134.148438 107.367188 132.449219 C 112.773438 127.382812 120.78125 120.667969 130.664062 114.652344 C 132.894531 118.320312 135.535156 121.789062 138.542969 124.910156 C 143.210938 129.757812 149.972656 135.101562 159.308594 138.941406 C 149.972656 142.773438 143.203125 148.125 138.542969 152.960938 C 135.535156 156.085938 132.894531 159.554688 130.664062 163.222656 C 120.78125 157.214844 112.773438 150.5 107.367188 145.425781 Z M 182.046875 144.386719 C 181.082031 157.410156 176.636719 168.683594 169.023438 177.367188 C 163.386719 176.660156 157.957031 175.351562 152.777344 173.628906 C 151.054688 168.453125 149.75 163.023438 149.046875 157.386719 C 155.785156 151.484375 166.363281 145.523438 182.046875 144.386719 Z M 133.089844 193.328125 C 133.019531 192.488281 132.972656 191.644531 132.972656 190.804688 C 132.972656 186.484375 133.796875 182.027344 135.304688 177.691406 C 138.296875 179.167969 141.402344 180.542969 144.617188 181.789062 C 145.871094 185.003906 147.25 188.113281 148.71875 191.105469 C 143.386719 192.957031 137.988281 193.726562 133.089844 193.328125 Z M 146.808594 208.894531 C 142.085938 208.894531 138.789062 206.871094 136.589844 203.851562 C 142.195312 203.726562 148.078125 202.542969 153.769531 200.375 C 155.277344 202.878906 156.816406 205.265625 158.371094 207.542969 C 154.984375 208.386719 151.164062 208.894531 146.808594 208.894531 Z M 193.960938 219.039062 C 192.257812 220.855469 189.953125 221.863281 187.476562 221.863281 C 184.992188 221.863281 182.683594 220.863281 180.984375 219.039062 C 179.0625 216.988281 176.890625 214.554688 174.621094 211.796875 C 180.605469 207.910156 184.722656 203.125 187.476562 198.933594 C 190.222656 203.125 194.335938 207.910156 200.320312 211.796875 C 198.050781 214.554688 195.882812 216.988281 193.960938 219.039062 Z M 206.671875 203.480469 C 197.519531 197.941406 193.90625 189.675781 192.757812 186.296875 C 191.988281 184.027344 189.867188 182.5 187.476562 182.5 C 185.074219 182.5 182.953125 184.027344 182.191406 186.296875 C 181.046875 189.675781 177.421875 197.941406 168.277344 203.480469 C 166.5625 201.058594 164.855469 198.480469 163.199219 195.765625 C 167.429688 193.191406 171.332031 190.089844 174.832031 186.488281 C 179.175781 182.019531 183.953125 175.636719 187.476562 167.023438 C 191.003906 175.636719 195.773438 182.015625 200.121094 186.484375 C 203.605469 190.082031 207.503906 193.183594 211.75 195.757812 C 210.097656 198.480469 208.386719 201.058594 206.671875 203.480469 Z M 228.132812 208.894531 C 223.777344 208.894531 219.957031 208.386719 216.574219 207.542969 C 218.125 205.265625 219.671875 202.875 221.171875 200.367188 C 226.871094 202.542969 232.746094 203.726562 238.355469 203.851562 C 236.15625 206.871094 232.855469 208.894531 228.132812 208.894531 Z M 241.855469 193.328125 C 236.953125 193.726562 231.554688 192.957031 226.226562 191.097656 C 227.703125 188.113281 229.078125 185.003906 230.324219 181.789062 C 233.539062 180.542969 236.648438 179.167969 239.640625 177.691406 C 241.148438 182.027344 241.96875 186.484375 241.96875 190.804688 C 241.96875 191.644531 241.921875 192.488281 241.855469 193.328125 Z M 252.398438 189.851562 C 252.277344 184.136719 251.0625 178.277344 248.898438 172.636719 C 251.40625 171.136719 253.808594 169.59375 256.082031 168.03125 C 256.976562 171.597656 257.429688 175.46875 257.429688 179.597656 C 257.429688 184.660156 255.175781 187.84375 252.398438 189.851562 Z M 267.574219 145.425781 C 262.167969 150.5 254.160156 157.207031 244.277344 163.222656 C 242.046875 159.554688 239.410156 156.085938 236.402344 152.960938 C 231.738281 148.125 224.972656 142.773438 215.632812 138.941406 C 224.972656 135.101562 231.738281 129.757812 236.402344 124.910156 C 239.410156 121.789062 242.046875 118.320312 244.277344 114.652344 C 254.160156 120.667969 262.167969 127.382812 267.574219 132.449219 C 269.398438 134.148438 270.398438 136.457031 270.398438 138.941406 C 270.398438 141.417969 269.390625 143.726562 267.574219 145.425781 Z M 267.574219 145.425781 " clip-rule="nonzero"/></clipPath><linearGradient x1="-0.00000379707" gradientTransform="matrix(0.769152, 0, 0, 0.769152, 94.092577, 45.558569)" y1="121.404999" x2="242.799985" gradientUnits="userSpaceOnUse" y2="121.404999" id="d1949db13c"><stop stop-opacity="1" stop-color="rgb(79.598999%, 42.399597%, 90.19928%)" offset="0"/><stop stop-opacity="1" stop-color="rgb(79.678345%, 42.308044%, 89.92157%)" offset="0.00390625"/><stop stop-opacity="1" stop-color="rgb(79.759216%, 42.218018%, 89.64386%)" offset="0.0078125"/><stop stop-opacity="1" stop-color="rgb(79.838562%, 42.126465%, 89.36615%)" offset="0.0117188"/><stop stop-opacity="1" stop-color="rgb(79.917908%, 42.036438%, 89.089966%)" offset="0.015625"/><stop stop-opacity="1" stop-color="rgb(79.997253%, 41.944885%, 88.812256%)" offset="0.0195312"/><stop stop-opacity="1" stop-color="rgb(80.076599%, 41.854858%, 88.534546%)" offset="0.0234375"/><stop stop-opacity="1" stop-color="rgb(80.155945%, 41.764832%, 88.256836%)" offset="0.0273438"/><stop stop-opacity="1" stop-color="rgb(80.236816%, 41.674805%, 87.980652%)" offset="0.03125"/><stop stop-opacity="1" stop-color="rgb(80.316162%, 41.583252%, 87.702942%)" offset="0.0351562"/><stop stop-opacity="1" stop-color="rgb(80.395508%, 41.493225%, 87.425232%)" offset="0.0390625"/><stop stop-opacity="1" stop-color="rgb(80.474854%, 41.401672%, 87.147522%)" offset="0.0429688"/><stop stop-opacity="1" stop-color="rgb(80.555725%, 41.311646%, 86.871338%)" offset="0.046875"/><stop stop-opacity="1" stop-color="rgb(80.635071%, 41.220093%, 86.593628%)" offset="0.0507813"/><stop stop-opacity="1" stop-color="rgb(80.714417%, 41.130066%, 86.315918%)" offset="0.0546875"/><stop stop-opacity="1" stop-color="rgb(80.793762%, 41.040039%, 86.038208%)" offset="0.0585938"/><stop stop-opacity="1" stop-color="rgb(80.874634%, 40.950012%, 85.762024%)" offset="0.0625"/><stop stop-opacity="1" stop-color="rgb(80.953979%, 40.858459%, 85.484314%)" offset="0.0664062"/><stop stop-opacity="1" stop-color="rgb(81.033325%, 40.768433%, 85.206604%)" offset="0.0703125"/><stop stop-opacity="1" stop-color="rgb(81.112671%, 40.67688%, 84.928894%)" offset="0.0742187"/><stop stop-opacity="1" stop-color="rgb(81.193542%, 40.586853%, 84.65271%)" offset="0.078125"/><stop stop-opacity="1" stop-color="rgb(81.272888%, 40.4953%, 84.375%)" offset="0.0820312"/><stop stop-opacity="1" stop-color="rgb(81.352234%, 40.405273%, 84.09729%)" offset="0.0859375"/><stop stop-opacity="1" stop-color="rgb(81.43158%, 40.313721%, 83.81958%)" offset="0.0898437"/><stop stop-opacity="1" stop-color="rgb(81.510925%, 40.223694%, 83.543396%)" offset="0.09375"/><stop stop-opacity="1" stop-color="rgb(81.590271%, 40.133667%, 83.265686%)" offset="0.0976562"/><stop stop-opacity="1" stop-color="rgb(81.671143%, 40.04364%, 82.987976%)" offset="0.101562"/><stop stop-opacity="1" stop-color="rgb(81.750488%, 39.952087%, 82.710266%)" offset="0.105469"/><stop stop-opacity="1" stop-color="rgb(81.829834%, 39.862061%, 82.434082%)" offset="0.109375"/><stop stop-opacity="1" stop-color="rgb(81.90918%, 39.770508%, 82.156372%)" offset="0.113281"/><stop stop-opacity="1" stop-color="rgb(81.990051%, 39.680481%, 81.878662%)" offset="0.117187"/><stop stop-opacity="1" stop-color="rgb(82.069397%, 39.588928%, 81.600952%)" offset="0.121094"/><stop stop-opacity="1" stop-color="rgb(82.148743%, 39.498901%, 81.324768%)" offset="0.125"/><stop stop-opacity="1" stop-color="rgb(82.228088%, 39.408875%, 81.047058%)" offset="0.128906"/><stop stop-opacity="1" stop-color="rgb(82.30896%, 39.318848%, 80.769348%)" offset="0.132812"/><stop stop-opacity="1" stop-color="rgb(82.388306%, 39.227295%, 80.491638%)" offset="0.136719"/><stop stop-opacity="1" stop-color="rgb(82.467651%, 39.137268%, 80.215454%)" offset="0.140625"/><stop stop-opacity="1" stop-color="rgb(82.546997%, 39.045715%, 79.937744%)" offset="0.144531"/><stop stop-opacity="1" stop-color="rgb(82.627869%, 38.955688%, 79.660034%)" offset="0.148437"/><stop stop-opacity="1" stop-color="rgb(82.707214%, 38.864136%, 79.382324%)" offset="0.152344"/><stop stop-opacity="1" stop-color="rgb(82.78656%, 38.774109%, 79.10614%)" offset="0.15625"/><stop stop-opacity="1" stop-color="rgb(82.865906%, 38.682556%, 78.82843%)" offset="0.160156"/><stop stop-opacity="1" stop-color="rgb(82.945251%, 38.592529%, 78.55072%)" offset="0.164062"/><stop stop-opacity="1" stop-color="rgb(83.024597%, 38.502502%, 78.27301%)" offset="0.167969"/><stop stop-opacity="1" stop-color="rgb(83.105469%, 38.412476%, 77.996826%)" offset="0.171875"/><stop stop-opacity="1" stop-color="rgb(83.184814%, 38.320923%, 77.719116%)" offset="0.175781"/><stop stop-opacity="1" stop-color="rgb(83.26416%, 38.230896%, 77.441406%)" offset="0.179687"/><stop stop-opacity="1" stop-color="rgb(83.343506%, 38.139343%, 77.163696%)" offset="0.183594"/><stop stop-opacity="1" stop-color="rgb(83.424377%, 38.049316%, 76.887512%)" offset="0.1875"/><stop stop-opacity="1" stop-color="rgb(83.503723%, 37.957764%, 76.609802%)" offset="0.191406"/><stop stop-opacity="1" stop-color="rgb(83.583069%, 37.867737%, 76.332092%)" offset="0.195312"/><stop stop-opacity="1" stop-color="rgb(83.662415%, 37.77771%, 76.054382%)" offset="0.199219"/><stop stop-opacity="1" stop-color="rgb(83.743286%, 37.687683%, 75.778198%)" offset="0.203125"/><stop stop-opacity="1" stop-color="rgb(83.822632%, 37.59613%, 75.500488%)" offset="0.207031"/><stop stop-opacity="1" stop-color="rgb(83.901978%, 37.506104%, 75.222778%)" offset="0.210938"/><stop stop-opacity="1" stop-color="rgb(83.981323%, 37.414551%, 74.945068%)" offset="0.214844"/><stop stop-opacity="1" stop-color="rgb(84.062195%, 37.324524%, 74.668884%)" offset="0.21875"/><stop stop-opacity="1" stop-color="rgb(84.141541%, 37.232971%, 74.391174%)" offset="0.222656"/><stop stop-opacity="1" stop-color="rgb(84.220886%, 37.142944%, 74.113464%)" offset="0.226562"/><stop stop-opacity="1" stop-color="rgb(84.300232%, 37.051392%, 73.835754%)" offset="0.230469"/><stop stop-opacity="1" stop-color="rgb(84.379578%, 36.961365%, 73.55957%)" offset="0.234375"/><stop stop-opacity="1" stop-color="rgb(84.458923%, 36.871338%, 73.28186%)" offset="0.238281"/><stop stop-opacity="1" stop-color="rgb(84.539795%, 36.781311%, 73.00415%)" offset="0.242187"/><stop stop-opacity="1" stop-color="rgb(84.619141%, 36.689758%, 72.72644%)" offset="0.246094"/><stop stop-opacity="1" stop-color="rgb(84.698486%, 36.599731%, 72.450256%)" offset="0.25"/><stop stop-opacity="1" stop-color="rgb(84.777832%, 36.508179%, 72.172546%)" offset="0.253906"/><stop stop-opacity="1" stop-color="rgb(84.858704%, 36.418152%, 71.894836%)" offset="0.257812"/><stop stop-opacity="1" stop-color="rgb(84.938049%, 36.326599%, 71.617126%)" offset="0.261719"/><stop stop-opacity="1" stop-color="rgb(85.017395%, 36.236572%, 71.340942%)" offset="0.265625"/><stop stop-opacity="1" stop-color="rgb(85.096741%, 36.14502%, 71.063232%)" offset="0.269531"/><stop stop-opacity="1" stop-color="rgb(85.177612%, 36.054993%, 70.785522%)" offset="0.273438"/><stop stop-opacity="1" stop-color="rgb(85.256958%, 35.964966%, 70.507812%)" offset="0.277344"/><stop stop-opacity="1" stop-color="rgb(85.336304%, 35.874939%, 70.231628%)" offset="0.28125"/><stop stop-opacity="1" stop-color="rgb(85.415649%, 35.783386%, 69.953918%)" offset="0.285156"/><stop stop-opacity="1" stop-color="rgb(85.496521%, 35.693359%, 69.676208%)" offset="0.289063"/><stop stop-opacity="1" stop-color="rgb(85.575867%, 35.601807%, 69.398499%)" offset="0.292969"/><stop stop-opacity="1" stop-color="rgb(85.655212%, 35.51178%, 69.122314%)" offset="0.296875"/><stop stop-opacity="1" stop-color="rgb(85.734558%, 35.420227%, 68.844604%)" offset="0.300781"/><stop stop-opacity="1" stop-color="rgb(85.813904%, 35.3302%, 68.566895%)" offset="0.304687"/><stop stop-opacity="1" stop-color="rgb(85.89325%, 35.240173%, 68.289185%)" offset="0.308594"/><stop stop-opacity="1" stop-color="rgb(85.974121%, 35.150146%, 68.013%)" offset="0.3125"/><stop stop-opacity="1" stop-color="rgb(86.053467%, 35.058594%, 67.735291%)" offset="0.316406"/><stop stop-opacity="1" stop-color="rgb(86.132812%, 34.968567%, 67.457581%)" offset="0.320312"/><stop stop-opacity="1" stop-color="rgb(86.212158%, 34.877014%, 67.179871%)" offset="0.324219"/><stop stop-opacity="1" stop-color="rgb(86.29303%, 34.786987%, 66.903687%)" offset="0.328125"/><stop stop-opacity="1" stop-color="rgb(86.372375%, 34.695435%, 66.625977%)" offset="0.332031"/><stop stop-opacity="1" stop-color="rgb(86.451721%, 34.605408%, 66.348267%)" offset="0.335937"/><stop stop-opacity="1" stop-color="rgb(86.531067%, 34.513855%, 66.070557%)" offset="0.339844"/><stop stop-opacity="1" stop-color="rgb(86.611938%, 34.423828%, 65.794373%)" offset="0.34375"/><stop stop-opacity="1" stop-color="rgb(86.691284%, 34.333801%, 65.516663%)" offset="0.347656"/><stop stop-opacity="1" stop-color="rgb(86.77063%, 34.243774%, 65.238953%)" offset="0.351562"/><stop stop-opacity="1" stop-color="rgb(86.849976%, 34.152222%, 64.961243%)" offset="0.355469"/><stop stop-opacity="1" stop-color="rgb(86.930847%, 34.062195%, 64.685059%)" offset="0.359375"/><stop stop-opacity="1" stop-color="rgb(87.010193%, 33.970642%, 64.407349%)" offset="0.363281"/><stop stop-opacity="1" stop-color="rgb(87.089539%, 33.880615%, 64.129639%)" offset="0.367187"/><stop stop-opacity="1" stop-color="rgb(87.168884%, 33.789062%, 63.851929%)" offset="0.371094"/><stop stop-opacity="1" stop-color="rgb(87.24823%, 33.699036%, 63.575745%)" offset="0.375"/><stop stop-opacity="1" stop-color="rgb(87.327576%, 33.609009%, 63.298035%)" offset="0.378906"/><stop stop-opacity="1" stop-color="rgb(87.408447%, 33.518982%, 63.020325%)" offset="0.382812"/><stop stop-opacity="1" stop-color="rgb(87.487793%, 33.427429%, 62.742615%)" offset="0.386719"/><stop stop-opacity="1" stop-color="rgb(87.567139%, 33.337402%, 62.466431%)" offset="0.390625"/><stop stop-opacity="1" stop-color="rgb(87.646484%, 33.24585%, 62.188721%)" offset="0.394531"/><stop stop-opacity="1" stop-color="rgb(87.727356%, 33.155823%, 61.911011%)" offset="0.398437"/><stop stop-opacity="1" stop-color="rgb(87.806702%, 33.06427%, 61.633301%)" offset="0.402344"/><stop stop-opacity="1" stop-color="rgb(87.886047%, 32.974243%, 61.357117%)" offset="0.40625"/><stop stop-opacity="1" stop-color="rgb(87.965393%, 32.88269%, 61.079407%)" offset="0.410156"/><stop stop-opacity="1" stop-color="rgb(88.046265%, 32.792664%, 60.801697%)" offset="0.414062"/><stop stop-opacity="1" stop-color="rgb(88.12561%, 32.702637%, 60.523987%)" offset="0.417969"/><stop stop-opacity="1" stop-color="rgb(88.204956%, 32.61261%, 60.247803%)" offset="0.421875"/><stop stop-opacity="1" stop-color="rgb(88.284302%, 32.521057%, 59.970093%)" offset="0.425781"/><stop stop-opacity="1" stop-color="rgb(88.365173%, 32.43103%, 59.692383%)" offset="0.429687"/><stop stop-opacity="1" stop-color="rgb(88.444519%, 32.339478%, 59.414673%)" offset="0.433594"/><stop stop-opacity="1" stop-color="rgb(88.523865%, 32.249451%, 59.138489%)" offset="0.4375"/><stop stop-opacity="1" stop-color="rgb(88.60321%, 32.157898%, 58.860779%)" offset="0.441406"/><stop stop-opacity="1" stop-color="rgb(88.682556%, 32.067871%, 58.583069%)" offset="0.445312"/><stop stop-opacity="1" stop-color="rgb(88.761902%, 31.977844%, 58.305359%)" offset="0.449219"/><stop stop-opacity="1" stop-color="rgb(88.842773%, 31.887817%, 58.029175%)" offset="0.453125"/><stop stop-opacity="1" stop-color="rgb(88.922119%, 31.796265%, 57.751465%)" offset="0.457031"/><stop stop-opacity="1" stop-color="rgb(89.001465%, 31.706238%, 57.473755%)" offset="0.460937"/><stop stop-opacity="1" stop-color="rgb(89.080811%, 31.614685%, 57.196045%)" offset="0.464844"/><stop stop-opacity="1" stop-color="rgb(89.161682%, 31.524658%, 56.919861%)" offset="0.46875"/><stop stop-opacity="1" stop-color="rgb(89.241028%, 31.433105%, 56.642151%)" offset="0.472656"/><stop stop-opacity="1" stop-color="rgb(89.320374%, 31.343079%, 56.364441%)" offset="0.476562"/><stop stop-opacity="1" stop-color="rgb(89.399719%, 31.251526%, 56.086731%)" offset="0.480469"/><stop stop-opacity="1" stop-color="rgb(89.480591%, 31.161499%, 55.810547%)" offset="0.484375"/><stop stop-opacity="1" stop-color="rgb(89.559937%, 31.071472%, 55.532837%)" offset="0.488281"/><stop stop-opacity="1" stop-color="rgb(89.639282%, 30.981445%, 55.255127%)" offset="0.492188"/><stop stop-opacity="1" stop-color="rgb(89.718628%, 30.889893%, 54.977417%)" offset="0.496094"/><stop stop-opacity="1" stop-color="rgb(89.7995%, 30.799866%, 54.701233%)" offset="0.5"/><stop stop-opacity="1" stop-color="rgb(89.878845%, 30.708313%, 54.423523%)" offset="0.503906"/><stop stop-opacity="1" stop-color="rgb(89.958191%, 30.618286%, 54.145813%)" offset="0.507812"/><stop stop-opacity="1" stop-color="rgb(90.037537%, 30.526733%, 53.868103%)" offset="0.511719"/><stop stop-opacity="1" stop-color="rgb(90.116882%, 30.436707%, 53.591919%)" offset="0.515625"/><stop stop-opacity="1" stop-color="rgb(90.196228%, 30.34668%, 53.314209%)" offset="0.519531"/><stop stop-opacity="1" stop-color="rgb(90.2771%, 30.256653%, 53.036499%)" offset="0.523438"/><stop stop-opacity="1" stop-color="rgb(90.356445%, 30.1651%, 52.758789%)" offset="0.527344"/><stop stop-opacity="1" stop-color="rgb(90.435791%, 30.075073%, 52.482605%)" offset="0.53125"/><stop stop-opacity="1" stop-color="rgb(90.515137%, 29.983521%, 52.204895%)" offset="0.535156"/><stop stop-opacity="1" stop-color="rgb(90.596008%, 29.893494%, 51.927185%)" offset="0.539063"/><stop stop-opacity="1" stop-color="rgb(90.675354%, 29.801941%, 51.649475%)" offset="0.542969"/><stop stop-opacity="1" stop-color="rgb(90.7547%, 29.711914%, 51.373291%)" offset="0.546875"/><stop stop-opacity="1" stop-color="rgb(90.834045%, 29.620361%, 51.095581%)" offset="0.550781"/><stop stop-opacity="1" stop-color="rgb(90.914917%, 29.530334%, 50.817871%)" offset="0.554688"/><stop stop-opacity="1" stop-color="rgb(90.994263%, 29.440308%, 50.540161%)" offset="0.558594"/><stop stop-opacity="1" stop-color="rgb(91.073608%, 29.350281%, 50.263977%)" offset="0.5625"/><stop stop-opacity="1" stop-color="rgb(91.152954%, 29.258728%, 49.986267%)" offset="0.566406"/><stop stop-opacity="1" stop-color="rgb(91.233826%, 29.168701%, 49.708557%)" offset="0.570312"/><stop stop-opacity="1" stop-color="rgb(91.313171%, 29.077148%, 49.430847%)" offset="0.574219"/><stop stop-opacity="1" stop-color="rgb(91.392517%, 28.987122%, 49.154663%)" offset="0.578125"/><stop stop-opacity="1" stop-color="rgb(91.471863%, 28.895569%, 48.876953%)" offset="0.582031"/><stop stop-opacity="1" stop-color="rgb(91.551208%, 28.805542%, 48.599243%)" offset="0.585938"/><stop stop-opacity="1" stop-color="rgb(91.630554%, 28.715515%, 48.321533%)" offset="0.589844"/><stop stop-opacity="1" stop-color="rgb(91.711426%, 28.625488%, 48.045349%)" offset="0.59375"/><stop stop-opacity="1" stop-color="rgb(91.790771%, 28.533936%, 47.767639%)" offset="0.597656"/><stop stop-opacity="1" stop-color="rgb(91.870117%, 28.443909%, 47.489929%)" offset="0.601562"/><stop stop-opacity="1" stop-color="rgb(91.949463%, 28.352356%, 47.212219%)" offset="0.605469"/><stop stop-opacity="1" stop-color="rgb(92.030334%, 28.262329%, 46.936035%)" offset="0.609375"/><stop stop-opacity="1" stop-color="rgb(92.10968%, 28.170776%, 46.658325%)" offset="0.613281"/><stop stop-opacity="1" stop-color="rgb(92.189026%, 28.08075%, 46.380615%)" offset="0.617188"/><stop stop-opacity="1" stop-color="rgb(92.268372%, 27.989197%, 46.102905%)" offset="0.621094"/><stop stop-opacity="1" stop-color="rgb(92.349243%, 27.89917%, 45.826721%)" offset="0.625"/><stop stop-opacity="1" stop-color="rgb(92.428589%, 27.809143%, 45.549011%)" offset="0.628906"/><stop stop-opacity="1" stop-color="rgb(92.507935%, 27.719116%, 45.271301%)" offset="0.632812"/><stop stop-opacity="1" stop-color="rgb(92.58728%, 27.627563%, 44.993591%)" offset="0.636719"/><stop stop-opacity="1" stop-color="rgb(92.668152%, 27.537537%, 44.717407%)" offset="0.640625"/><stop stop-opacity="1" stop-color="rgb(92.747498%, 27.445984%, 44.439697%)" offset="0.644531"/><stop stop-opacity="1" stop-color="rgb(92.826843%, 27.355957%, 44.161987%)" offset="0.648438"/><stop stop-opacity="1" stop-color="rgb(92.906189%, 27.264404%, 43.884277%)" offset="0.652344"/><stop stop-opacity="1" stop-color="rgb(92.985535%, 27.174377%, 43.608093%)" offset="0.65625"/><stop stop-opacity="1" stop-color="rgb(93.06488%, 27.084351%, 43.330383%)" offset="0.660156"/><stop stop-opacity="1" stop-color="rgb(93.145752%, 26.994324%, 43.052673%)" offset="0.664062"/><stop stop-opacity="1" stop-color="rgb(93.225098%, 26.902771%, 42.774963%)" offset="0.667969"/><stop stop-opacity="1" stop-color="rgb(93.304443%, 26.812744%, 42.498779%)" offset="0.671875"/><stop stop-opacity="1" stop-color="rgb(93.383789%, 26.721191%, 42.221069%)" offset="0.675781"/><stop stop-opacity="1" stop-color="rgb(93.464661%, 26.631165%, 41.943359%)" offset="0.679688"/><stop stop-opacity="1" stop-color="rgb(93.544006%, 26.539612%, 41.665649%)" offset="0.683594"/><stop stop-opacity="1" stop-color="rgb(93.623352%, 26.449585%, 41.389465%)" offset="0.6875"/><stop stop-opacity="1" stop-color="rgb(93.702698%, 26.358032%, 41.111755%)" offset="0.691406"/><stop stop-opacity="1" stop-color="rgb(93.783569%, 26.268005%, 40.834045%)" offset="0.695313"/><stop stop-opacity="1" stop-color="rgb(93.862915%, 26.177979%, 40.556335%)" offset="0.699219"/><stop stop-opacity="1" stop-color="rgb(93.942261%, 26.087952%, 40.280151%)" offset="0.703125"/><stop stop-opacity="1" stop-color="rgb(94.021606%, 25.996399%, 40.002441%)" offset="0.707031"/><stop stop-opacity="1" stop-color="rgb(94.102478%, 25.906372%, 39.724731%)" offset="0.710938"/><stop stop-opacity="1" stop-color="rgb(94.181824%, 25.814819%, 39.447021%)" offset="0.714844"/><stop stop-opacity="1" stop-color="rgb(94.261169%, 25.724792%, 39.170837%)" offset="0.71875"/><stop stop-opacity="1" stop-color="rgb(94.340515%, 25.63324%, 38.893127%)" offset="0.722656"/><stop stop-opacity="1" stop-color="rgb(94.419861%, 25.543213%, 38.615417%)" offset="0.726562"/><stop stop-opacity="1" stop-color="rgb(94.499207%, 25.453186%, 38.337708%)" offset="0.730469"/><stop stop-opacity="1" stop-color="rgb(94.580078%, 25.363159%, 38.061523%)" offset="0.734375"/><stop stop-opacity="1" stop-color="rgb(94.659424%, 25.271606%, 37.783813%)" offset="0.738281"/><stop stop-opacity="1" stop-color="rgb(94.73877%, 25.18158%, 37.506104%)" offset="0.742188"/><stop stop-opacity="1" stop-color="rgb(94.818115%, 25.090027%, 37.228394%)" offset="0.746094"/><stop stop-opacity="1" stop-color="rgb(94.898987%, 25%, 36.950684%)" offset="0.75"/><stop stop-opacity="1" stop-color="rgb(94.978333%, 24.908447%, 36.672974%)" offset="0.753906"/><stop stop-opacity="1" stop-color="rgb(95.057678%, 24.81842%, 36.39679%)" offset="0.757812"/><stop stop-opacity="1" stop-color="rgb(95.137024%, 24.726868%, 36.11908%)" offset="0.761719"/><stop stop-opacity="1" stop-color="rgb(95.217896%, 24.636841%, 35.84137%)" offset="0.765625"/><stop stop-opacity="1" stop-color="rgb(95.297241%, 24.546814%, 35.56366%)" offset="0.769531"/><stop stop-opacity="1" stop-color="rgb(95.376587%, 24.456787%, 35.287476%)" offset="0.773438"/><stop stop-opacity="1" stop-color="rgb(95.455933%, 24.365234%, 35.009766%)" offset="0.777344"/><stop stop-opacity="1" stop-color="rgb(95.536804%, 24.275208%, 34.732056%)" offset="0.78125"/><stop stop-opacity="1" stop-color="rgb(95.61615%, 24.183655%, 34.454346%)" offset="0.785156"/><stop stop-opacity="1" stop-color="rgb(95.695496%, 24.093628%, 34.178162%)" offset="0.789062"/><stop stop-opacity="1" stop-color="rgb(95.774841%, 24.002075%, 33.900452%)" offset="0.792969"/><stop stop-opacity="1" stop-color="rgb(95.854187%, 23.912048%, 33.622742%)" offset="0.796875"/><stop stop-opacity="1" stop-color="rgb(95.933533%, 23.822021%, 33.345032%)" offset="0.800781"/><stop stop-opacity="1" stop-color="rgb(96.014404%, 23.731995%, 33.068848%)" offset="0.804688"/><stop stop-opacity="1" stop-color="rgb(96.09375%, 23.640442%, 32.791138%)" offset="0.808594"/><stop stop-opacity="1" stop-color="rgb(96.173096%, 23.550415%, 32.513428%)" offset="0.8125"/><stop stop-opacity="1" stop-color="rgb(96.252441%, 23.458862%, 32.235718%)" offset="0.816406"/><stop stop-opacity="1" stop-color="rgb(96.333313%, 23.368835%, 31.959534%)" offset="0.820312"/><stop stop-opacity="1" stop-color="rgb(96.412659%, 23.277283%, 31.681824%)" offset="0.824219"/><stop stop-opacity="1" stop-color="rgb(96.492004%, 23.187256%, 31.404114%)" offset="0.828125"/><stop stop-opacity="1" stop-color="rgb(96.57135%, 23.095703%, 31.126404%)" offset="0.832031"/><stop stop-opacity="1" stop-color="rgb(96.652222%, 23.005676%, 30.85022%)" offset="0.835938"/><stop stop-opacity="1" stop-color="rgb(96.731567%, 22.915649%, 30.57251%)" offset="0.839844"/><stop stop-opacity="1" stop-color="rgb(96.810913%, 22.825623%, 30.2948%)" offset="0.84375"/><stop stop-opacity="1" stop-color="rgb(96.890259%, 22.73407%, 30.01709%)" offset="0.847656"/><stop stop-opacity="1" stop-color="rgb(96.97113%, 22.644043%, 29.740906%)" offset="0.851562"/><stop stop-opacity="1" stop-color="rgb(97.050476%, 22.55249%, 29.463196%)" offset="0.855469"/><stop stop-opacity="1" stop-color="rgb(97.129822%, 22.462463%, 29.185486%)" offset="0.859375"/><stop stop-opacity="1" stop-color="rgb(97.209167%, 22.370911%, 28.907776%)" offset="0.863281"/><stop stop-opacity="1" stop-color="rgb(97.288513%, 22.280884%, 28.631592%)" offset="0.867187"/><stop stop-opacity="1" stop-color="rgb(97.367859%, 22.190857%, 28.353882%)" offset="0.871094"/><stop stop-opacity="1" stop-color="rgb(97.44873%, 22.10083%, 28.076172%)" offset="0.875"/><stop stop-opacity="1" stop-color="rgb(97.528076%, 22.009277%, 27.798462%)" offset="0.878906"/><stop stop-opacity="1" stop-color="rgb(97.607422%, 21.91925%, 27.522278%)" offset="0.882812"/><stop stop-opacity="1" stop-color="rgb(97.686768%, 21.827698%, 27.244568%)" offset="0.886719"/><stop stop-opacity="1" stop-color="rgb(97.767639%, 21.737671%, 26.966858%)" offset="0.890625"/><stop stop-opacity="1" stop-color="rgb(97.846985%, 21.646118%, 26.689148%)" offset="0.894531"/><stop stop-opacity="1" stop-color="rgb(97.926331%, 21.556091%, 26.412964%)" offset="0.898438"/><stop stop-opacity="1" stop-color="rgb(98.005676%, 21.464539%, 26.135254%)" offset="0.902344"/><stop stop-opacity="1" stop-color="rgb(98.086548%, 21.374512%, 25.857544%)" offset="0.90625"/><stop stop-opacity="1" stop-color="rgb(98.165894%, 21.284485%, 25.579834%)" offset="0.910156"/><stop stop-opacity="1" stop-color="rgb(98.245239%, 21.194458%, 25.30365%)" offset="0.914062"/><stop stop-opacity="1" stop-color="rgb(98.324585%, 21.102905%, 25.02594%)" offset="0.917969"/><stop stop-opacity="1" stop-color="rgb(98.405457%, 21.012878%, 24.74823%)" offset="0.921875"/><stop stop-opacity="1" stop-color="rgb(98.484802%, 20.921326%, 24.47052%)" offset="0.925781"/><stop stop-opacity="1" stop-color="rgb(98.564148%, 20.831299%, 24.194336%)" offset="0.929687"/><stop stop-opacity="1" stop-color="rgb(98.643494%, 20.739746%, 23.916626%)" offset="0.933594"/><stop stop-opacity="1" stop-color="rgb(98.722839%, 20.649719%, 23.638916%)" offset="0.9375"/><stop stop-opacity="1" stop-color="rgb(98.802185%, 20.558167%, 23.361206%)" offset="0.941406"/><stop stop-opacity="1" stop-color="rgb(98.883057%, 20.46814%, 23.085022%)" offset="0.945312"/><stop stop-opacity="1" stop-color="rgb(98.962402%, 20.378113%, 22.807312%)" offset="0.949219"/><stop stop-opacity="1" stop-color="rgb(99.041748%, 20.288086%, 22.529602%)" offset="0.953125"/><stop stop-opacity="1" stop-color="rgb(99.121094%, 20.196533%, 22.251892%)" offset="0.957031"/><stop stop-opacity="1" stop-color="rgb(99.201965%, 20.106506%, 21.975708%)" offset="0.960938"/><stop stop-opacity="1" stop-color="rgb(99.281311%, 20.014954%, 21.697998%)" offset="0.964844"/><stop stop-opacity="1" stop-color="rgb(99.360657%, 19.924927%, 21.420288%)" offset="0.96875"/><stop stop-opacity="1" stop-color="rgb(99.440002%, 19.833374%, 21.142578%)" offset="0.972656"/><stop stop-opacity="1" stop-color="rgb(99.520874%, 19.743347%, 20.866394%)" offset="0.976562"/><stop stop-opacity="1" stop-color="rgb(99.60022%, 19.65332%, 20.588684%)" offset="0.980469"/><stop stop-opacity="1" stop-color="rgb(99.679565%, 19.563293%, 20.310974%)" offset="0.984375"/><stop stop-opacity="1" stop-color="rgb(99.758911%, 19.471741%, 20.033264%)" offset="0.988281"/><stop stop-opacity="1" stop-color="rgb(99.839783%, 19.381714%, 19.75708%)" offset="0.992188"/><stop stop-opacity="1" stop-color="rgb(99.919128%, 19.290161%, 19.47937%)" offset="0.996094"/><stop stop-opacity="1" stop-color="rgb(99.998474%, 19.200134%, 19.20166%)" offset="1"/></linearGradient></defs><g fill="#ffffff" fill-opacity="1"><g transform="translate(82.994647, 271.883421)"><g><path d="M 10.796875 -11.96875 L 10.796875 -6.265625 L 22.84375 -6.265625 L 22.84375 0 L 3.4375 0 L 3.4375 -29.40625 L 22.421875 -29.40625 L 22.421875 -23.140625 L 10.796875 -23.140625 L 10.796875 -18.0625 L 22.015625 -18.0625 L 22.015625 -11.96875 Z M 10.796875 -11.96875 "/></g></g></g><g fill="#ffffff" fill-opacity="1"><g transform="translate(108.02664, 271.883421)"><g><path d="M 17.34375 -11.375 L 25.03125 0 L 17.34375 0 L 12.8125 -7.21875 L 8.234375 0 L 0.625 0 L 8.359375 -11.21875 L 1.21875 -21.84375 L 8.78125 -21.84375 L 12.890625 -15.03125 L 17.015625 -21.84375 L 24.53125 -21.84375 Z M 17.34375 -11.375 "/></g></g></g><g fill="#ffffff" fill-opacity="1"><g transform="translate(133.68864, 271.883421)"><g><path d="M 16 -22.390625 C 17.789062 -22.390625 19.507812 -21.910156 21.15625 -20.953125 C 22.8125 -20.003906 24.15625 -18.660156 25.1875 -16.921875 C 26.226562 -15.191406 26.75 -13.191406 26.75 -10.921875 C 26.75 -8.648438 26.226562 -6.640625 25.1875 -4.890625 C 24.15625 -3.140625 22.8125 -1.796875 21.15625 -0.859375 C 19.507812 0.078125 17.789062 0.546875 16 0.546875 C 13.34375 0.546875 11.226562 -0.195312 9.65625 -1.6875 L 9.65625 8.40625 L 2.640625 8.40625 L 2.640625 -21.84375 L 9.15625 -21.84375 L 9.15625 -19.703125 C 10.8125 -21.492188 13.09375 -22.390625 16 -22.390625 Z M 14.578125 -5.671875 C 16.085938 -5.671875 17.335938 -6.164062 18.328125 -7.15625 C 19.328125 -8.15625 19.828125 -9.410156 19.828125 -10.921875 C 19.828125 -12.429688 19.328125 -13.679688 18.328125 -14.671875 C 17.335938 -15.671875 16.085938 -16.171875 14.578125 -16.171875 C 13.066406 -16.171875 11.8125 -15.671875 10.8125 -14.671875 C 9.820312 -13.679688 9.328125 -12.429688 9.328125 -10.921875 C 9.328125 -9.410156 9.820312 -8.15625 10.8125 -7.15625 C 11.8125 -6.164062 13.066406 -5.671875 14.578125 -5.671875 Z M 14.578125 -5.671875 "/></g></g></g><g fill="#ffffff" fill-opacity="1"><g transform="translate(161.702631, 271.883421)"><g><path d="M 12.9375 -22.390625 C 15.007812 -22.390625 16.929688 -21.910156 18.703125 -20.953125 C 20.484375 -20.003906 21.910156 -18.664062 22.984375 -16.9375 C 24.066406 -15.21875 24.609375 -13.269531 24.609375 -11.09375 C 24.609375 -10.445312 24.539062 -9.703125 24.40625 -8.859375 L 8.1875 -8.859375 C 8.46875 -7.546875 9.023438 -6.523438 9.859375 -5.796875 C 10.703125 -5.066406 11.753906 -4.703125 13.015625 -4.703125 C 14.023438 -4.703125 14.875 -4.882812 15.5625 -5.25 C 16.25 -5.613281 16.828125 -6.160156 17.296875 -6.890625 L 23.984375 -6.890625 C 23.171875 -4.671875 21.8125 -2.875 19.90625 -1.5 C 18 -0.132812 15.675781 0.546875 12.9375 0.546875 C 10.832031 0.546875 8.882812 0.0703125 7.09375 -0.875 C 5.300781 -1.832031 3.863281 -3.175781 2.78125 -4.90625 C 1.707031 -6.644531 1.171875 -8.648438 1.171875 -10.921875 C 1.171875 -13.191406 1.707031 -15.191406 2.78125 -16.921875 C 3.863281 -18.660156 5.300781 -20.003906 7.09375 -20.953125 C 8.882812 -21.910156 10.832031 -22.390625 12.9375 -22.390625 Z M 12.9375 -17.09375 C 11.757812 -17.09375 10.753906 -16.765625 9.921875 -16.109375 C 9.097656 -15.453125 8.535156 -14.492188 8.234375 -13.234375 L 17.71875 -13.234375 C 17.5 -14.378906 16.984375 -15.304688 16.171875 -16.015625 C 15.359375 -16.734375 14.28125 -17.09375 12.9375 -17.09375 Z M 12.9375 -17.09375 "/></g></g><g transform="translate(187.490629, 271.883421)"><g><path d="M 15.625 -22.390625 C 17.332031 -22.390625 18.847656 -21.988281 20.171875 -21.1875 C 21.503906 -20.382812 22.546875 -19.285156 23.296875 -17.890625 C 24.054688 -16.492188 24.4375 -14.898438 24.4375 -13.109375 L 24.4375 0 L 17.4375 0 L 17.4375 -11.640625 C 17.4375 -13.003906 17.101562 -14.09375 16.4375 -14.90625 C 15.78125 -15.71875 14.851562 -16.125 13.65625 -16.125 C 12.476562 -16.125 11.515625 -15.710938 10.765625 -14.890625 C 10.023438 -14.066406 9.65625 -12.984375 9.65625 -11.640625 L 9.65625 0 L 2.640625 0 L 2.640625 -21.84375 L 9.15625 -21.84375 L 9.15625 -19.734375 C 10.894531 -21.503906 13.050781 -22.390625 15.625 -22.390625 Z M 15.625 -22.390625 "/></g></g><g transform="translate(214.412628, 271.883421)"><g><path d="M 11.765625 0.546875 C 9.773438 0.546875 8.035156 0.21875 6.546875 -0.4375 C 5.066406 -1.09375 3.898438 -1.992188 3.046875 -3.140625 C 2.191406 -4.296875 1.707031 -5.585938 1.59375 -7.015625 L 8.234375 -7.015625 C 8.316406 -6.335938 8.65625 -5.773438 9.25 -5.328125 C 9.851562 -4.878906 10.675781 -4.65625 11.71875 -4.65625 C 12.613281 -4.65625 13.304688 -4.800781 13.796875 -5.09375 C 14.285156 -5.394531 14.53125 -5.835938 14.53125 -6.421875 C 14.53125 -7.015625 14.203125 -7.457031 13.546875 -7.75 C 12.890625 -8.039062 11.859375 -8.328125 10.453125 -8.609375 C 8.773438 -8.972656 7.382812 -9.367188 6.28125 -9.796875 C 5.175781 -10.234375 4.21875 -10.9375 3.40625 -11.90625 C 2.59375 -12.875 2.1875 -14.195312 2.1875 -15.875 C 2.1875 -17.101562 2.578125 -18.207031 3.359375 -19.1875 C 4.140625 -20.164062 5.226562 -20.941406 6.625 -21.515625 C 8.03125 -22.097656 9.613281 -22.390625 11.375 -22.390625 C 13 -22.390625 14.503906 -22.078125 15.890625 -21.453125 C 17.273438 -20.835938 18.398438 -19.96875 19.265625 -18.84375 C 20.140625 -17.726562 20.617188 -16.472656 20.703125 -15.078125 L 14.15625 -15.078125 C 14.09375 -15.722656 13.800781 -16.238281 13.28125 -16.625 C 12.769531 -17.019531 12.09375 -17.21875 11.25 -17.21875 C 10.5 -17.21875 9.921875 -17.09375 9.515625 -16.84375 C 9.109375 -16.59375 8.90625 -16.226562 8.90625 -15.75 C 8.90625 -15.1875 9.21875 -14.769531 9.84375 -14.5 C 10.476562 -14.238281 11.507812 -13.941406 12.9375 -13.609375 C 14.613281 -13.242188 16.003906 -12.847656 17.109375 -12.421875 C 18.222656 -12.003906 19.179688 -11.328125 19.984375 -10.390625 C 20.796875 -9.453125 21.203125 -8.171875 21.203125 -6.546875 C 21.203125 -4.335938 20.347656 -2.601562 18.640625 -1.34375 C 16.941406 -0.0820312 14.648438 0.546875 11.765625 0.546875 Z M 11.765625 0.546875 "/></g></g><g transform="translate(237.428626, 271.883421)"><g><path d="M 9.65625 0 L 2.640625 0 L 2.640625 -21.84375 L 9.65625 -21.84375 Z M 9.734375 -25.203125 L 2.515625 -25.203125 L 2.515625 -30.828125 L 9.734375 -30.828125 Z M 9.734375 -25.203125 "/></g></g><g transform="translate(249.776625, 271.883421)"><g><path d="M 14.53125 -25.703125 C 13.550781 -25.703125 12.765625 -25.414062 12.171875 -24.84375 C 11.585938 -24.269531 11.296875 -23.460938 11.296875 -22.421875 L 11.296875 -21.84375 L 16.296875 -21.84375 L 16.296875 -15.671875 L 11.296875 -15.671875 L 11.296875 0 L 4.28125 0 L 4.28125 -15.671875 L 0.71875 -15.671875 L 0.71875 -21.84375 L 4.28125 -21.84375 L 4.28125 -23.265625 C 4.28125 -25.835938 4.988281 -27.851562 6.40625 -29.3125 C 7.820312 -30.769531 9.832031 -31.5 12.4375 -31.5 L 16.296875 -31.5 L 16.296875 -25.703125 Z M 14.53125 -25.703125 "/></g></g></g><g fill="#ffffff" fill-opacity="1"><g transform="translate(266.912623, 271.883421)"><g><path d="M 12.5625 -9.53125 L 17.890625 -21.84375 L 25.03125 -21.84375 L 11.546875 8.40625 L 4.53125 8.40625 L 9.109375 -1.96875 L -0.203125 -21.84375 L 7.09375 -21.84375 Z M 12.5625 -9.53125 "/></g></g></g><g fill="#ffffff" fill-opacity="1"><g transform="translate(78.201365, 296.293399)"><g><path d="M 6.578125 0.15625 C 5.546875 0.15625 4.59375 -0.0976562 3.71875 -0.609375 C 2.84375 -1.117188 2.148438 -1.816406 1.640625 -2.703125 C 1.128906 -3.585938 0.875 -4.550781 0.875 -5.59375 C 0.875 -6.644531 1.128906 -7.613281 1.640625 -8.5 C 2.148438 -9.382812 2.84375 -10.082031 3.71875 -10.59375 C 4.59375 -11.101562 5.546875 -11.359375 6.578125 -11.359375 C 7.765625 -11.359375 8.804688 -11.035156 9.703125 -10.390625 C 10.597656 -9.742188 11.269531 -8.867188 11.71875 -7.765625 L 10.359375 -7.765625 C 9.984375 -8.492188 9.46875 -9.070312 8.8125 -9.5 C 8.15625 -9.9375 7.410156 -10.15625 6.578125 -10.15625 C 5.785156 -10.15625 5.050781 -9.953125 4.375 -9.546875 C 3.707031 -9.140625 3.175781 -8.585938 2.78125 -7.890625 C 2.394531 -7.203125 2.203125 -6.4375 2.203125 -5.59375 C 2.203125 -4.757812 2.394531 -3.992188 2.78125 -3.296875 C 3.175781 -2.597656 3.707031 -2.046875 4.375 -1.640625 C 5.050781 -1.242188 5.785156 -1.046875 6.578125 -1.046875 C 7.441406 -1.046875 8.203125 -1.257812 8.859375 -1.6875 C 9.523438 -2.125 10.046875 -2.707031 10.421875 -3.4375 L 11.78125 -3.4375 C 11.332031 -2.332031 10.65625 -1.457031 9.75 -0.8125 C 8.851562 -0.164062 7.796875 0.15625 6.578125 0.15625 Z M 6.578125 0.15625 "/></g></g></g><g fill="#ffffff" fill-opacity="1"><g transform="translate(90.694381, 296.293399)"><g><path d="M 4.734375 0.15625 C 3.984375 0.15625 3.296875 -0.0195312 2.671875 -0.375 C 2.054688 -0.726562 1.5625 -1.21875 1.1875 -1.84375 C 0.820312 -2.46875 0.640625 -3.160156 0.640625 -3.921875 C 0.640625 -4.679688 0.820312 -5.367188 1.1875 -5.984375 C 1.5625 -6.609375 2.054688 -7.097656 2.671875 -7.453125 C 3.296875 -7.816406 3.984375 -8 4.734375 -8 C 5.484375 -8 6.171875 -7.816406 6.796875 -7.453125 C 7.421875 -7.097656 7.914062 -6.609375 8.28125 -5.984375 C 8.644531 -5.367188 8.828125 -4.679688 8.828125 -3.921875 C 8.828125 -3.160156 8.644531 -2.46875 8.28125 -1.84375 C 7.914062 -1.21875 7.421875 -0.726562 6.796875 -0.375 C 6.171875 -0.0195312 5.484375 0.15625 4.734375 0.15625 Z M 4.734375 -0.953125 C 5.253906 -0.953125 5.726562 -1.082031 6.15625 -1.34375 C 6.59375 -1.613281 6.9375 -1.972656 7.1875 -2.421875 C 7.445312 -2.867188 7.578125 -3.367188 7.578125 -3.921875 C 7.578125 -4.472656 7.445312 -4.972656 7.1875 -5.421875 C 6.9375 -5.867188 6.59375 -6.222656 6.15625 -6.484375 C 5.726562 -6.742188 5.253906 -6.875 4.734375 -6.875 C 4.210938 -6.875 3.734375 -6.742188 3.296875 -6.484375 C 2.867188 -6.222656 2.523438 -5.867188 2.265625 -5.421875 C 2.015625 -4.972656 1.890625 -4.472656 1.890625 -3.921875 C 1.890625 -3.367188 2.015625 -2.867188 2.265625 -2.421875 C 2.523438 -1.972656 2.867188 -1.613281 3.296875 -1.34375 C 3.734375 -1.082031 4.210938 -0.953125 4.734375 -0.953125 Z M 4.734375 -0.953125 "/></g></g></g><g fill="#ffffff" fill-opacity="1"><g transform="translate(100.244103, 296.293399)"><g><path d="M 4.875 -8 C 5.507812 -8 6.066406 -7.847656 6.546875 -7.546875 C 7.035156 -7.242188 7.410156 -6.828125 7.671875 -6.296875 C 7.941406 -5.773438 8.078125 -5.195312 8.078125 -4.5625 L 8.078125 0 L 6.875 0 L 6.875 -4.5625 C 6.875 -5.25 6.679688 -5.804688 6.296875 -6.234375 C 5.921875 -6.660156 5.394531 -6.875 4.71875 -6.875 C 4.289062 -6.875 3.898438 -6.773438 3.546875 -6.578125 C 3.203125 -6.378906 2.925781 -6.101562 2.71875 -5.75 C 2.507812 -5.40625 2.40625 -5.007812 2.40625 -4.5625 L 2.40625 0 L 1.203125 0 L 1.203125 -7.84375 L 2.40625 -7.84375 L 2.40625 -6.796875 C 2.71875 -7.191406 3.082031 -7.488281 3.5 -7.6875 C 3.925781 -7.894531 4.382812 -8 4.875 -8 Z M 4.875 -8 "/></g></g></g><g fill="#ffffff" fill-opacity="1"><g transform="translate(109.521891, 296.293399)"><g><path d="M 4.953125 -6.75 L 2.953125 -6.75 L 2.953125 -2.40625 C 2.953125 -2.007812 3.066406 -1.695312 3.296875 -1.46875 C 3.523438 -1.238281 3.835938 -1.125 4.234375 -1.125 L 4.953125 -1.125 L 4.953125 0 L 4.15625 0 C 3.445312 0 2.867188 -0.210938 2.421875 -0.640625 C 1.984375 -1.078125 1.765625 -1.632812 1.765625 -2.3125 L 1.765625 -6.75 L 0.484375 -6.75 L 0.484375 -7.84375 L 1.765625 -7.84375 L 1.765625 -9.921875 L 2.953125 -9.921875 L 2.953125 -7.84375 L 4.953125 -7.84375 Z M 4.953125 -6.75 "/></g></g></g><g fill="#ffffff" fill-opacity="1"><g transform="translate(115.200546, 296.293399)"><g><path d="M 5.515625 -7.921875 L 5.515625 -6.796875 L 4.71875 -6.796875 C 4.289062 -6.796875 3.898438 -6.695312 3.546875 -6.5 C 3.203125 -6.300781 2.925781 -6.023438 2.71875 -5.671875 C 2.507812 -5.328125 2.40625 -4.929688 2.40625 -4.484375 L 2.40625 0 L 1.203125 0 L 1.203125 -7.84375 L 2.40625 -7.84375 L 2.40625 -6.71875 C 2.71875 -7.113281 3.082031 -7.410156 3.5 -7.609375 C 3.925781 -7.816406 4.382812 -7.921875 4.875 -7.921875 Z M 5.515625 -7.921875 "/></g></g></g><g fill="#ffffff" fill-opacity="1"><g transform="translate(120.959184, 296.293399)"><g><path d="M 4.734375 0.15625 C 3.984375 0.15625 3.296875 -0.0195312 2.671875 -0.375 C 2.054688 -0.726562 1.5625 -1.21875 1.1875 -1.84375 C 0.820312 -2.46875 0.640625 -3.160156 0.640625 -3.921875 C 0.640625 -4.679688 0.820312 -5.367188 1.1875 -5.984375 C 1.5625 -6.609375 2.054688 -7.097656 2.671875 -7.453125 C 3.296875 -7.816406 3.984375 -8 4.734375 -8 C 5.484375 -8 6.171875 -7.816406 6.796875 -7.453125 C 7.421875 -7.097656 7.914062 -6.609375 8.28125 -5.984375 C 8.644531 -5.367188 8.828125 -4.679688 8.828125 -3.921875 C 8.828125 -3.160156 8.644531 -2.46875 8.28125 -1.84375 C 7.914062 -1.21875 7.421875 -0.726562 6.796875 -0.375 C 6.171875 -0.0195312 5.484375 0.15625 4.734375 0.15625 Z M 4.734375 -0.953125 C 5.253906 -0.953125 5.726562 -1.082031 6.15625 -1.34375 C 6.59375 -1.613281 6.9375 -1.972656 7.1875 -2.421875 C 7.445312 -2.867188 7.578125 -3.367188 7.578125 -3.921875 C 7.578125 -4.472656 7.445312 -4.972656 7.1875 -5.421875 C 6.9375 -5.867188 6.59375 -6.222656 6.15625 -6.484375 C 5.726562 -6.742188 5.253906 -6.875 4.734375 -6.875 C 4.210938 -6.875 3.734375 -6.742188 3.296875 -6.484375 C 2.867188 -6.222656 2.523438 -5.867188 2.265625 -5.421875 C 2.015625 -4.972656 1.890625 -4.472656 1.890625 -3.921875 C 1.890625 -3.367188 2.015625 -2.867188 2.265625 -2.421875 C 2.523438 -1.972656 2.867188 -1.613281 3.296875 -1.34375 C 3.734375 -1.082031 4.210938 -0.953125 4.734375 -0.953125 Z M 4.734375 -0.953125 "/></g></g></g><g fill="#ffffff" fill-opacity="1"><g transform="translate(130.508906, 296.293399)"><g><path d="M 2.484375 0 L 1.28125 0 L 1.28125 -11.515625 L 2.484375 -11.515625 Z M 2.484375 0 "/></g></g></g><g fill="#ffffff" fill-opacity="1"><g transform="translate(134.348004, 296.293399)"><g/></g></g><g fill="#ffffff" fill-opacity="1"><g transform="translate(138.906923, 296.293399)"><g><path d="M 4.1875 -1.90625 L 6.796875 -7.84375 L 8.078125 -7.84375 L 3.125 3.203125 L 1.84375 3.203125 L 3.515625 -0.5625 L 0.078125 -7.84375 L 1.421875 -7.84375 Z M 4.1875 -1.90625 "/></g></g></g><g fill="#ffffff" fill-opacity="1"><g transform="translate(147.224941, 296.293399)"><g><path d="M 4.734375 0.15625 C 3.984375 0.15625 3.296875 -0.0195312 2.671875 -0.375 C 2.054688 -0.726562 1.5625 -1.21875 1.1875 -1.84375 C 0.820312 -2.46875 0.640625 -3.160156 0.640625 -3.921875 C 0.640625 -4.679688 0.820312 -5.367188 1.1875 -5.984375 C 1.5625 -6.609375 2.054688 -7.097656 2.671875 -7.453125 C 3.296875 -7.816406 3.984375 -8 4.734375 -8 C 5.484375 -8 6.171875 -7.816406 6.796875 -7.453125 C 7.421875 -7.097656 7.914062 -6.609375 8.28125 -5.984375 C 8.644531 -5.367188 8.828125 -4.679688 8.828125 -3.921875 C 8.828125 -3.160156 8.644531 -2.46875 8.28125 -1.84375 C 7.914062 -1.21875 7.421875 -0.726562 6.796875 -0.375 C 6.171875 -0.0195312 5.484375 0.15625 4.734375 0.15625 Z M 4.734375 -0.953125 C 5.253906 -0.953125 5.726562 -1.082031 6.15625 -1.34375 C 6.59375 -1.613281 6.9375 -1.972656 7.1875 -2.421875 C 7.445312 -2.867188 7.578125 -3.367188 7.578125 -3.921875 C 7.578125 -4.472656 7.445312 -4.972656 7.1875 -5.421875 C 6.9375 -5.867188 6.59375 -6.222656 6.15625 -6.484375 C 5.726562 -6.742188 5.253906 -6.875 4.734375 -6.875 C 4.210938 -6.875 3.734375 -6.742188 3.296875 -6.484375 C 2.867188 -6.222656 2.523438 -5.867188 2.265625 -5.421875 C 2.015625 -4.972656 1.890625 -4.472656 1.890625 -3.921875 C 1.890625 -3.367188 2.015625 -2.867188 2.265625 -2.421875 C 2.523438 -1.972656 2.867188 -1.613281 3.296875 -1.34375 C 3.734375 -1.082031 4.210938 -0.953125 4.734375 -0.953125 Z M 4.734375 -0.953125 "/></g></g></g><g fill="#ffffff" fill-opacity="1"><g transform="translate(156.774663, 296.293399)"><g><path d="M 4.53125 0.15625 C 3.851562 0.15625 3.253906 0.0078125 2.734375 -0.28125 C 2.222656 -0.570312 1.828125 -0.976562 1.546875 -1.5 C 1.265625 -2.019531 1.125 -2.613281 1.125 -3.28125 L 1.125 -7.84375 L 2.3125 -7.84375 L 2.3125 -3.28125 C 2.3125 -2.59375 2.515625 -2.03125 2.921875 -1.59375 C 3.328125 -1.164062 3.863281 -0.953125 4.53125 -0.953125 C 5.1875 -0.953125 5.71875 -1.164062 6.125 -1.59375 C 6.53125 -2.03125 6.734375 -2.59375 6.734375 -3.28125 L 6.734375 -7.84375 L 7.9375 -7.84375 L 7.9375 -3.28125 C 7.9375 -2.613281 7.796875 -2.019531 7.515625 -1.5 C 7.234375 -0.976562 6.832031 -0.570312 6.3125 -0.28125 C 5.789062 0.0078125 5.195312 0.15625 4.53125 0.15625 Z M 4.53125 0.15625 "/></g></g></g><g fill="#ffffff" fill-opacity="1"><g transform="translate(165.908484, 296.293399)"><g><path d="M 5.515625 -7.921875 L 5.515625 -6.796875 L 4.71875 -6.796875 C 4.289062 -6.796875 3.898438 -6.695312 3.546875 -6.5 C 3.203125 -6.300781 2.925781 -6.023438 2.71875 -5.671875 C 2.507812 -5.328125 2.40625 -4.929688 2.40625 -4.484375 L 2.40625 0 L 1.203125 0 L 1.203125 -7.84375 L 2.40625 -7.84375 L 2.40625 -6.71875 C 2.71875 -7.113281 3.082031 -7.410156 3.5 -7.609375 C 3.925781 -7.816406 4.382812 -7.921875 4.875 -7.921875 Z M 5.515625 -7.921875 "/></g></g></g><g fill="#ffffff" fill-opacity="1"><g transform="translate(171.667122, 296.293399)"><g/></g></g><g fill="#ffffff" fill-opacity="1"><g transform="translate(176.226047, 296.293399)"><g><path d="M 4.578125 -8 C 5.285156 -8 5.9375 -7.835938 6.53125 -7.515625 C 7.125 -7.191406 7.59375 -6.734375 7.9375 -6.140625 C 8.28125 -5.546875 8.453125 -4.867188 8.453125 -4.109375 C 8.453125 -3.859375 8.441406 -3.660156 8.421875 -3.515625 L 1.90625 -3.515625 C 1.976562 -2.742188 2.25 -2.125 2.71875 -1.65625 C 3.195312 -1.1875 3.816406 -0.953125 4.578125 -0.953125 C 5.679688 -0.953125 6.476562 -1.40625 6.96875 -2.3125 L 8.25 -2.3125 C 7.9375 -1.519531 7.460938 -0.910156 6.828125 -0.484375 C 6.203125 -0.0546875 5.453125 0.15625 4.578125 0.15625 C 3.835938 0.15625 3.164062 -0.0195312 2.5625 -0.375 C 1.957031 -0.726562 1.484375 -1.210938 1.140625 -1.828125 C 0.804688 -2.453125 0.640625 -3.148438 0.640625 -3.921875 C 0.640625 -4.691406 0.804688 -5.382812 1.140625 -6 C 1.484375 -6.613281 1.957031 -7.097656 2.5625 -7.453125 C 3.164062 -7.816406 3.835938 -8 4.578125 -8 Z M 4.578125 -6.875 C 3.867188 -6.875 3.28125 -6.671875 2.8125 -6.265625 C 2.351562 -5.859375 2.066406 -5.304688 1.953125 -4.609375 L 7.1875 -4.609375 C 7.113281 -5.285156 6.832031 -5.832031 6.34375 -6.25 C 5.851562 -6.664062 5.265625 -6.875 4.578125 -6.875 Z M 4.578125 -6.875 "/></g></g></g><g fill="#ffffff" fill-opacity="1"><g transform="translate(185.311877, 296.293399)"><g><path d="M 4.984375 -4.109375 L 7.984375 0 L 6.5 0 L 4.21875 -3.234375 L 1.90625 0 L 0.484375 0 L 3.453125 -4.0625 L 0.703125 -7.84375 L 2.1875 -7.84375 L 4.234375 -4.890625 L 6.359375 -7.84375 L 7.796875 -7.84375 Z M 4.984375 -4.109375 "/></g></g></g><g fill="#ffffff" fill-opacity="1"><g transform="translate(193.853838, 296.293399)"><g><path d="M 5.28125 -8 C 6 -8 6.664062 -7.816406 7.28125 -7.453125 C 7.894531 -7.097656 8.382812 -6.609375 8.75 -5.984375 C 9.113281 -5.367188 9.296875 -4.679688 9.296875 -3.921875 C 9.296875 -3.160156 9.113281 -2.46875 8.75 -1.84375 C 8.382812 -1.21875 7.894531 -0.726562 7.28125 -0.375 C 6.664062 -0.0195312 6 0.15625 5.28125 0.15625 C 4.695312 0.15625 4.148438 0.0351562 3.640625 -0.203125 C 3.140625 -0.453125 2.726562 -0.785156 2.40625 -1.203125 L 2.40625 3.203125 L 1.203125 3.203125 L 1.203125 -7.84375 L 2.40625 -7.84375 L 2.40625 -6.640625 C 2.726562 -7.054688 3.140625 -7.382812 3.640625 -7.625 C 4.148438 -7.875 4.695312 -8 5.28125 -8 Z M 5.203125 -0.953125 C 5.722656 -0.953125 6.195312 -1.082031 6.625 -1.34375 C 7.0625 -1.613281 7.40625 -1.972656 7.65625 -2.421875 C 7.914062 -2.867188 8.046875 -3.367188 8.046875 -3.921875 C 8.046875 -4.472656 7.914062 -4.972656 7.65625 -5.421875 C 7.40625 -5.867188 7.0625 -6.222656 6.625 -6.484375 C 6.195312 -6.742188 5.722656 -6.875 5.203125 -6.875 C 4.679688 -6.875 4.195312 -6.742188 3.75 -6.484375 C 3.3125 -6.222656 2.960938 -5.867188 2.703125 -5.421875 C 2.441406 -4.972656 2.3125 -4.472656 2.3125 -3.921875 C 2.3125 -3.367188 2.441406 -2.867188 2.703125 -2.421875 C 2.960938 -1.972656 3.3125 -1.613281 3.75 -1.34375 C 4.195312 -1.082031 4.679688 -0.953125 5.203125 -0.953125 Z M 5.203125 -0.953125 "/></g></g></g><g fill="#ffffff" fill-opacity="1"><g transform="translate(203.867441, 296.293399)"><g><path d="M 4.578125 -8 C 5.285156 -8 5.9375 -7.835938 6.53125 -7.515625 C 7.125 -7.191406 7.59375 -6.734375 7.9375 -6.140625 C 8.28125 -5.546875 8.453125 -4.867188 8.453125 -4.109375 C 8.453125 -3.859375 8.441406 -3.660156 8.421875 -3.515625 L 1.90625 -3.515625 C 1.976562 -2.742188 2.25 -2.125 2.71875 -1.65625 C 3.195312 -1.1875 3.816406 -0.953125 4.578125 -0.953125 C 5.679688 -0.953125 6.476562 -1.40625 6.96875 -2.3125 L 8.25 -2.3125 C 7.9375 -1.519531 7.460938 -0.910156 6.828125 -0.484375 C 6.203125 -0.0546875 5.453125 0.15625 4.578125 0.15625 C 3.835938 0.15625 3.164062 -0.0195312 2.5625 -0.375 C 1.957031 -0.726562 1.484375 -1.210938 1.140625 -1.828125 C 0.804688 -2.453125 0.640625 -3.148438 0.640625 -3.921875 C 0.640625 -4.691406 0.804688 -5.382812 1.140625 -6 C 1.484375 -6.613281 1.957031 -7.097656 2.5625 -7.453125 C 3.164062 -7.816406 3.835938 -8 4.578125 -8 Z M 4.578125 -6.875 C 3.867188 -6.875 3.28125 -6.671875 2.8125 -6.265625 C 2.351562 -5.859375 2.066406 -5.304688 1.953125 -4.609375 L 7.1875 -4.609375 C 7.113281 -5.285156 6.832031 -5.832031 6.34375 -6.25 C 5.851562 -6.664062 5.265625 -6.875 4.578125 -6.875 Z M 4.578125 -6.875 "/></g></g></g><g fill="#ffffff" fill-opacity="1"><g transform="translate(212.953271, 296.293399)"><g><path d="M 4.875 -8 C 5.507812 -8 6.066406 -7.847656 6.546875 -7.546875 C 7.035156 -7.242188 7.410156 -6.828125 7.671875 -6.296875 C 7.941406 -5.773438 8.078125 -5.195312 8.078125 -4.5625 L 8.078125 0 L 6.875 0 L 6.875 -4.5625 C 6.875 -5.25 6.679688 -5.804688 6.296875 -6.234375 C 5.921875 -6.660156 5.394531 -6.875 4.71875 -6.875 C 4.289062 -6.875 3.898438 -6.773438 3.546875 -6.578125 C 3.203125 -6.378906 2.925781 -6.101562 2.71875 -5.75 C 2.507812 -5.40625 2.40625 -5.007812 2.40625 -4.5625 L 2.40625 0 L 1.203125 0 L 1.203125 -7.84375 L 2.40625 -7.84375 L 2.40625 -6.796875 C 2.71875 -7.191406 3.082031 -7.488281 3.5 -7.6875 C 3.925781 -7.894531 4.382812 -8 4.875 -8 Z M 4.875 -8 "/></g></g></g><g fill="#ffffff" fill-opacity="1"><g transform="translate(222.231064, 296.293399)"><g><path d="M 3.90625 0.15625 C 3.320312 0.15625 2.796875 0.0507812 2.328125 -0.15625 C 1.859375 -0.375 1.488281 -0.664062 1.21875 -1.03125 C 0.957031 -1.40625 0.816406 -1.832031 0.796875 -2.3125 L 2 -2.3125 C 2.03125 -1.914062 2.21875 -1.585938 2.5625 -1.328125 C 2.90625 -1.078125 3.363281 -0.953125 3.9375 -0.953125 C 4.414062 -0.953125 4.8125 -1.050781 5.125 -1.25 C 5.4375 -1.457031 5.59375 -1.75 5.59375 -2.125 C 5.59375 -2.414062 5.507812 -2.648438 5.34375 -2.828125 C 5.175781 -3.003906 4.96875 -3.132812 4.71875 -3.21875 C 4.46875 -3.300781 4.109375 -3.394531 3.640625 -3.5 C 3.066406 -3.632812 2.609375 -3.765625 2.265625 -3.890625 C 1.929688 -4.023438 1.640625 -4.238281 1.390625 -4.53125 C 1.148438 -4.832031 1.03125 -5.242188 1.03125 -5.765625 C 1.03125 -6.179688 1.15625 -6.554688 1.40625 -6.890625 C 1.664062 -7.234375 2.007812 -7.503906 2.4375 -7.703125 C 2.875 -7.898438 3.347656 -8 3.859375 -8 C 4.359375 -8 4.816406 -7.890625 5.234375 -7.671875 C 5.660156 -7.460938 6 -7.175781 6.25 -6.8125 C 6.507812 -6.445312 6.644531 -6.039062 6.65625 -5.59375 L 5.453125 -5.59375 C 5.429688 -5.957031 5.265625 -6.257812 4.953125 -6.5 C 4.648438 -6.75 4.265625 -6.875 3.796875 -6.875 C 3.367188 -6.875 3.003906 -6.769531 2.703125 -6.5625 C 2.410156 -6.363281 2.265625 -6.097656 2.265625 -5.765625 C 2.265625 -5.503906 2.347656 -5.289062 2.515625 -5.125 C 2.679688 -4.96875 2.882812 -4.847656 3.125 -4.765625 C 3.363281 -4.679688 3.703125 -4.585938 4.140625 -4.484375 C 4.722656 -4.347656 5.191406 -4.207031 5.546875 -4.0625 C 5.898438 -3.925781 6.203125 -3.703125 6.453125 -3.390625 C 6.710938 -3.078125 6.84375 -2.65625 6.84375 -2.125 C 6.84375 -1.445312 6.5625 -0.894531 6 -0.46875 C 5.4375 -0.0507812 4.738281 0.15625 3.90625 0.15625 Z M 3.90625 0.15625 "/></g></g></g><g fill="#ffffff" fill-opacity="1"><g transform="translate(230.037216, 296.293399)"><g><path d="M 4.578125 -8 C 5.285156 -8 5.9375 -7.835938 6.53125 -7.515625 C 7.125 -7.191406 7.59375 -6.734375 7.9375 -6.140625 C 8.28125 -5.546875 8.453125 -4.867188 8.453125 -4.109375 C 8.453125 -3.859375 8.441406 -3.660156 8.421875 -3.515625 L 1.90625 -3.515625 C 1.976562 -2.742188 2.25 -2.125 2.71875 -1.65625 C 3.195312 -1.1875 3.816406 -0.953125 4.578125 -0.953125 C 5.679688 -0.953125 6.476562 -1.40625 6.96875 -2.3125 L 8.25 -2.3125 C 7.9375 -1.519531 7.460938 -0.910156 6.828125 -0.484375 C 6.203125 -0.0546875 5.453125 0.15625 4.578125 0.15625 C 3.835938 0.15625 3.164062 -0.0195312 2.5625 -0.375 C 1.957031 -0.726562 1.484375 -1.210938 1.140625 -1.828125 C 0.804688 -2.453125 0.640625 -3.148438 0.640625 -3.921875 C 0.640625 -4.691406 0.804688 -5.382812 1.140625 -6 C 1.484375 -6.613281 1.957031 -7.097656 2.5625 -7.453125 C 3.164062 -7.816406 3.835938 -8 4.578125 -8 Z M 4.578125 -6.875 C 3.867188 -6.875 3.28125 -6.671875 2.8125 -6.265625 C 2.351562 -5.859375 2.066406 -5.304688 1.953125 -4.609375 L 7.1875 -4.609375 C 7.113281 -5.285156 6.832031 -5.832031 6.34375 -6.25 C 5.851562 -6.664062 5.265625 -6.875 4.578125 -6.875 Z M 4.578125 -6.875 "/></g></g></g><g fill="#ffffff" fill-opacity="1"><g transform="translate(239.123046, 296.293399)"><g><path d="M 3.90625 0.15625 C 3.320312 0.15625 2.796875 0.0507812 2.328125 -0.15625 C 1.859375 -0.375 1.488281 -0.664062 1.21875 -1.03125 C 0.957031 -1.40625 0.816406 -1.832031 0.796875 -2.3125 L 2 -2.3125 C 2.03125 -1.914062 2.21875 -1.585938 2.5625 -1.328125 C 2.90625 -1.078125 3.363281 -0.953125 3.9375 -0.953125 C 4.414062 -0.953125 4.8125 -1.050781 5.125 -1.25 C 5.4375 -1.457031 5.59375 -1.75 5.59375 -2.125 C 5.59375 -2.414062 5.507812 -2.648438 5.34375 -2.828125 C 5.175781 -3.003906 4.96875 -3.132812 4.71875 -3.21875 C 4.46875 -3.300781 4.109375 -3.394531 3.640625 -3.5 C 3.066406 -3.632812 2.609375 -3.765625 2.265625 -3.890625 C 1.929688 -4.023438 1.640625 -4.238281 1.390625 -4.53125 C 1.148438 -4.832031 1.03125 -5.242188 1.03125 -5.765625 C 1.03125 -6.179688 1.15625 -6.554688 1.40625 -6.890625 C 1.664062 -7.234375 2.007812 -7.503906 2.4375 -7.703125 C 2.875 -7.898438 3.347656 -8 3.859375 -8 C 4.359375 -8 4.816406 -7.890625 5.234375 -7.671875 C 5.660156 -7.460938 6 -7.175781 6.25 -6.8125 C 6.507812 -6.445312 6.644531 -6.039062 6.65625 -5.59375 L 5.453125 -5.59375 C 5.429688 -5.957031 5.265625 -6.257812 4.953125 -6.5 C 4.648438 -6.75 4.265625 -6.875 3.796875 -6.875 C 3.367188 -6.875 3.003906 -6.769531 2.703125 -6.5625 C 2.410156 -6.363281 2.265625 -6.097656 2.265625 -5.765625 C 2.265625 -5.503906 2.347656 -5.289062 2.515625 -5.125 C 2.679688 -4.96875 2.882812 -4.847656 3.125 -4.765625 C 3.363281 -4.679688 3.703125 -4.585938 4.140625 -4.484375 C 4.722656 -4.347656 5.191406 -4.207031 5.546875 -4.0625 C 5.898438 -3.925781 6.203125 -3.703125 6.453125 -3.390625 C 6.710938 -3.078125 6.84375 -2.65625 6.84375 -2.125 C 6.84375 -1.445312 6.5625 -0.894531 6 -0.46875 C 5.4375 -0.0507812 4.738281 0.15625 3.90625 0.15625 Z M 3.90625 0.15625 "/></g></g></g><g fill="#ffffff" fill-opacity="1"><g transform="translate(246.929198, 296.293399)"><g/></g></g><g fill="#ffffff" fill-opacity="1"><g transform="translate(251.488123, 296.293399)"><g><path d="M 5.359375 -8 C 6.078125 -8 6.742188 -7.816406 7.359375 -7.453125 C 7.972656 -7.097656 8.460938 -6.609375 8.828125 -5.984375 C 9.191406 -5.367188 9.375 -4.679688 9.375 -3.921875 C 9.375 -3.160156 9.191406 -2.46875 8.828125 -1.84375 C 8.460938 -1.21875 7.972656 -0.726562 7.359375 -0.375 C 6.742188 -0.0195312 6.078125 0.15625 5.359375 0.15625 C 4.773438 0.15625 4.226562 0.0351562 3.71875 -0.203125 C 3.21875 -0.453125 2.804688 -0.785156 2.484375 -1.203125 L 2.484375 0 L 1.28125 0 L 1.28125 -11.515625 L 2.484375 -11.515625 L 2.484375 -6.640625 C 2.804688 -7.054688 3.21875 -7.382812 3.71875 -7.625 C 4.226562 -7.875 4.773438 -8 5.359375 -8 Z M 5.28125 -0.953125 C 5.800781 -0.953125 6.273438 -1.082031 6.703125 -1.34375 C 7.140625 -1.613281 7.484375 -1.972656 7.734375 -2.421875 C 7.992188 -2.867188 8.125 -3.367188 8.125 -3.921875 C 8.125 -4.472656 7.992188 -4.972656 7.734375 -5.421875 C 7.484375 -5.867188 7.140625 -6.222656 6.703125 -6.484375 C 6.273438 -6.742188 5.800781 -6.875 5.28125 -6.875 C 4.757812 -6.875 4.273438 -6.742188 3.828125 -6.484375 C 3.390625 -6.222656 3.039062 -5.867188 2.78125 -5.421875 C 2.53125 -4.972656 2.40625 -4.472656 2.40625 -3.921875 C 2.40625 -3.367188 2.53125 -2.867188 2.78125 -2.421875 C 3.039062 -1.972656 3.390625 -1.613281 3.828125 -1.34375 C 4.273438 -1.082031 4.757812 -0.953125 5.28125 -0.953125 Z M 5.28125 -0.953125 "/></g></g></g><g fill="#ffffff" fill-opacity="1"><g transform="translate(261.581708, 296.293399)"><g><path d="M 4.578125 -8 C 5.285156 -8 5.9375 -7.835938 6.53125 -7.515625 C 7.125 -7.191406 7.59375 -6.734375 7.9375 -6.140625 C 8.28125 -5.546875 8.453125 -4.867188 8.453125 -4.109375 C 8.453125 -3.859375 8.441406 -3.660156 8.421875 -3.515625 L 1.90625 -3.515625 C 1.976562 -2.742188 2.25 -2.125 2.71875 -1.65625 C 3.195312 -1.1875 3.816406 -0.953125 4.578125 -0.953125 C 5.679688 -0.953125 6.476562 -1.40625 6.96875 -2.3125 L 8.25 -2.3125 C 7.9375 -1.519531 7.460938 -0.910156 6.828125 -0.484375 C 6.203125 -0.0546875 5.453125 0.15625 4.578125 0.15625 C 3.835938 0.15625 3.164062 -0.0195312 2.5625 -0.375 C 1.957031 -0.726562 1.484375 -1.210938 1.140625 -1.828125 C 0.804688 -2.453125 0.640625 -3.148438 0.640625 -3.921875 C 0.640625 -4.691406 0.804688 -5.382812 1.140625 -6 C 1.484375 -6.613281 1.957031 -7.097656 2.5625 -7.453125 C 3.164062 -7.816406 3.835938 -8 4.578125 -8 Z M 4.578125 -6.875 C 3.867188 -6.875 3.28125 -6.671875 2.8125 -6.265625 C 2.351562 -5.859375 2.066406 -5.304688 1.953125 -4.609375 L 7.1875 -4.609375 C 7.113281 -5.285156 6.832031 -5.832031 6.34375 -6.25 C 5.851562 -6.664062 5.265625 -6.875 4.578125 -6.875 Z M 4.578125 -6.875 "/></g></g></g><g fill="#ffffff" fill-opacity="1"><g transform="translate(270.667538, 296.293399)"><g><path d="M 4.953125 -6.75 L 2.953125 -6.75 L 2.953125 -2.40625 C 2.953125 -2.007812 3.066406 -1.695312 3.296875 -1.46875 C 3.523438 -1.238281 3.835938 -1.125 4.234375 -1.125 L 4.953125 -1.125 L 4.953125 0 L 4.15625 0 C 3.445312 0 2.867188 -0.210938 2.421875 -0.640625 C 1.984375 -1.078125 1.765625 -1.632812 1.765625 -2.3125 L 1.765625 -6.75 L 0.484375 -6.75 L 0.484375 -7.84375 L 1.765625 -7.84375 L 1.765625 -9.921875 L 2.953125 -9.921875 L 2.953125 -7.84375 L 4.953125 -7.84375 Z M 4.953125 -6.75 "/></g></g></g><g fill="#ffffff" fill-opacity="1"><g transform="translate(276.346188, 296.293399)"><g><path d="M 4.953125 -6.75 L 2.953125 -6.75 L 2.953125 -2.40625 C 2.953125 -2.007812 3.066406 -1.695312 3.296875 -1.46875 C 3.523438 -1.238281 3.835938 -1.125 4.234375 -1.125 L 4.953125 -1.125 L 4.953125 0 L 4.15625 0 C 3.445312 0 2.867188 -0.210938 2.421875 -0.640625 C 1.984375 -1.078125 1.765625 -1.632812 1.765625 -2.3125 L 1.765625 -6.75 L 0.484375 -6.75 L 0.484375 -7.84375 L 1.765625 -7.84375 L 1.765625 -9.921875 L 2.953125 -9.921875 L 2.953125 -7.84375 L 4.953125 -7.84375 Z M 4.953125 -6.75 "/></g></g></g><g fill="#ffffff" fill-opacity="1"><g transform="translate(282.024837, 296.293399)"><g><path d="M 4.578125 -8 C 5.285156 -8 5.9375 -7.835938 6.53125 -7.515625 C 7.125 -7.191406 7.59375 -6.734375 7.9375 -6.140625 C 8.28125 -5.546875 8.453125 -4.867188 8.453125 -4.109375 C 8.453125 -3.859375 8.441406 -3.660156 8.421875 -3.515625 L 1.90625 -3.515625 C 1.976562 -2.742188 2.25 -2.125 2.71875 -1.65625 C 3.195312 -1.1875 3.816406 -0.953125 4.578125 -0.953125 C 5.679688 -0.953125 6.476562 -1.40625 6.96875 -2.3125 L 8.25 -2.3125 C 7.9375 -1.519531 7.460938 -0.910156 6.828125 -0.484375 C 6.203125 -0.0546875 5.453125 0.15625 4.578125 0.15625 C 3.835938 0.15625 3.164062 -0.0195312 2.5625 -0.375 C 1.957031 -0.726562 1.484375 -1.210938 1.140625 -1.828125 C 0.804688 -2.453125 0.640625 -3.148438 0.640625 -3.921875 C 0.640625 -4.691406 0.804688 -5.382812 1.140625 -6 C 1.484375 -6.613281 1.957031 -7.097656 2.5625 -7.453125 C 3.164062 -7.816406 3.835938 -8 4.578125 -8 Z M 4.578125 -6.875 C 3.867188 -6.875 3.28125 -6.671875 2.8125 -6.265625 C 2.351562 -5.859375 2.066406 -5.304688 1.953125 -4.609375 L 7.1875 -4.609375 C 7.113281 -5.285156 6.832031 -5.832031 6.34375 -6.25 C 5.851562 -6.664062 5.265625 -6.875 4.578125 -6.875 Z M 4.578125 -6.875 "/></g></g></g><g fill="#ffffff" fill-opacity="1"><g transform="translate(291.110667, 296.293399)"><g><path d="M 5.515625 -7.921875 L 5.515625 -6.796875 L 4.71875 -6.796875 C 4.289062 -6.796875 3.898438 -6.695312 3.546875 -6.5 C 3.203125 -6.300781 2.925781 -6.023438 2.71875 -5.671875 C 2.507812 -5.328125 2.40625 -4.929688 2.40625 -4.484375 L 2.40625 0 L 1.203125 0 L 1.203125 -7.84375 L 2.40625 -7.84375 L 2.40625 -6.71875 C 2.71875 -7.113281 3.082031 -7.410156 3.5 -7.609375 C 3.925781 -7.816406 4.382812 -7.921875 4.875 -7.921875 Z M 5.515625 -7.921875 "/></g></g></g><g clip-path="url(#6766b1d9bd)"><g clip-path="url(#b1da5ed7bd)"><path fill="url(#d1949db13c)" d="M 94.09375 45.558594 L 94.09375 232.308594 L 280.84375 232.308594 L 280.84375 45.558594 Z M 94.09375 45.558594 " fill-rule="nonzero"/></g></g></svg>