<svg xmlns="http://www.w3.org/2000/svg" xmlns:xlink="http://www.w3.org/1999/xlink" width="500" zoomAndPan="magnify" viewBox="0 0 375 374.999991" height="500" preserveAspectRatio="xMidYMid meet" version="1.0"><defs><g/><clipPath id="49baafb815"><path d="M 30.015625 147.515625 L 110.265625 147.515625 L 110.265625 227.765625 L 30.015625 227.765625 Z M 30.015625 147.515625 " clip-rule="nonzero"/></clipPath><clipPath id="266ba5fe17"><path d="M 107.640625 181.574219 C 106.488281 180.496094 105.085938 179.261719 103.460938 177.96875 C 104.277344 175.601562 104.703125 172.988281 104.703125 170.167969 C 104.703125 165.472656 101.972656 161.929688 97.335938 160.460938 C 95.890625 155.910156 92.339844 153.085938 87.617188 153.085938 C 84.589844 153.085938 82.007812 153.554688 79.8125 154.320312 C 78.519531 152.695312 77.289062 151.292969 76.210938 150.144531 C 74.644531 148.472656 72.433594 147.515625 70.144531 147.515625 C 69.003906 147.515625 67.875 147.753906 66.839844 148.203125 C 65.804688 148.652344 64.859375 149.308594 64.078125 150.144531 C 63.003906 151.292969 61.765625 152.695312 60.472656 154.316406 C 58.28125 153.554688 55.699219 153.085938 52.671875 153.085938 C 47.949219 153.085938 44.398438 155.910156 42.949219 160.457031 C 38.316406 161.929688 35.589844 165.472656 35.589844 170.167969 C 35.589844 172.992188 36.007812 175.601562 36.824219 177.96875 C 35.203125 179.261719 33.796875 180.496094 32.648438 181.574219 C 30.976562 183.140625 30.015625 185.351562 30.015625 187.640625 C 30.015625 189.929688 30.976562 192.140625 32.648438 193.707031 C 33.796875 194.785156 35.203125 196.019531 36.824219 197.3125 C 36.007812 199.679688 35.589844 202.292969 35.589844 205.113281 C 35.589844 209.808594 38.316406 213.351562 42.949219 214.820312 C 44.398438 219.371094 47.949219 222.195312 52.671875 222.195312 C 55.699219 222.195312 58.28125 221.726562 60.472656 220.964844 C 61.765625 222.585938 63.003906 223.988281 64.078125 225.136719 C 65.644531 226.808594 67.855469 227.765625 70.144531 227.765625 C 72.433594 227.765625 74.644531 226.808594 76.210938 225.136719 C 77.289062 223.988281 78.519531 222.585938 79.8125 220.964844 C 82.007812 221.726562 84.589844 222.195312 87.617188 222.195312 C 92.339844 222.195312 95.890625 219.371094 97.335938 214.820312 C 101.972656 213.351562 104.703125 209.808594 104.703125 205.113281 C 104.703125 202.292969 104.277344 199.679688 103.460938 197.3125 C 105.085938 196.019531 106.488281 194.785156 107.640625 193.707031 C 109.3125 192.140625 110.269531 189.929688 110.269531 187.640625 C 110.269531 185.351562 109.3125 183.140625 107.640625 181.574219 Z M 98.042969 165.761719 C 99.238281 166.625 100.207031 167.992188 100.207031 170.167969 C 100.207031 171.941406 100.011719 173.605469 99.628906 175.140625 C 98.648438 174.46875 97.617188 173.808594 96.539062 173.160156 C 97.46875 170.734375 97.992188 168.222656 98.042969 165.761719 Z M 93.511719 164.265625 C 93.542969 164.628906 93.5625 164.992188 93.5625 165.355469 C 93.5625 167.214844 93.210938 169.125 92.5625 170.988281 C 91.277344 170.355469 89.941406 169.765625 88.558594 169.226562 C 88.023438 167.84375 87.433594 166.507812 86.796875 165.226562 C 89.085938 164.425781 91.40625 164.097656 93.511719 164.265625 Z M 87.617188 157.582031 C 89.644531 157.582031 91.0625 158.445312 92.007812 159.738281 C 89.597656 159.792969 87.066406 160.304688 84.621094 161.242188 C 83.976562 160.164062 83.316406 159.136719 82.648438 158.160156 C 84.101562 157.796875 85.746094 157.582031 87.617188 157.582031 Z M 86.660156 179.714844 C 83.761719 182.25 79.214844 184.808594 72.480469 185.300781 C 72.894531 179.707031 74.800781 174.859375 78.074219 171.128906 C 80.496094 171.429688 82.832031 171.992188 85.050781 172.734375 C 85.792969 174.957031 86.355469 177.289062 86.660156 179.714844 Z M 67.355469 153.21875 C 68.085938 152.4375 69.078125 152.007812 70.144531 152.007812 C 71.210938 152.007812 72.203125 152.4375 72.933594 153.21875 C 73.757812 154.101562 74.691406 155.144531 75.664062 156.332031 C 73.09375 158 71.324219 160.058594 70.144531 161.863281 C 68.964844 160.058594 67.195312 158 64.621094 156.332031 C 65.597656 155.144531 66.53125 154.101562 67.355469 153.21875 Z M 61.890625 159.90625 C 65.824219 162.285156 67.382812 165.839844 67.871094 167.289062 C 68.203125 168.265625 69.113281 168.921875 70.144531 168.921875 C 71.171875 168.921875 72.085938 168.265625 72.417969 167.292969 C 72.90625 165.839844 74.460938 162.285156 78.394531 159.90625 C 79.132812 160.945312 79.867188 162.054688 80.578125 163.222656 C 78.753906 164.332031 77.078125 165.664062 75.578125 167.207031 C 73.714844 169.125 71.664062 171.871094 70.144531 175.570312 C 68.632812 171.871094 66.578125 169.125 64.710938 167.210938 C 63.207031 165.660156 61.53125 164.328125 59.714844 163.21875 C 60.425781 162.054688 61.160156 160.945312 61.890625 159.90625 Z M 86.660156 195.566406 C 86.355469 197.992188 85.792969 200.324219 85.050781 202.546875 C 82.832031 203.289062 80.496094 203.851562 78.074219 204.15625 C 74.800781 200.421875 72.894531 195.578125 72.480469 189.980469 C 79.214844 190.472656 83.761719 193.03125 86.660156 195.566406 Z M 67.8125 185.300781 C 61.074219 184.808594 56.527344 182.25 53.632812 179.714844 C 53.933594 177.289062 54.496094 174.957031 55.234375 172.734375 C 57.460938 171.992188 59.792969 171.429688 62.214844 171.125 C 65.488281 174.859375 67.398438 179.703125 67.8125 185.300781 Z M 52.671875 157.582031 C 54.542969 157.582031 56.183594 157.796875 57.640625 158.160156 C 56.972656 159.136719 56.308594 160.164062 55.664062 161.238281 C 53.21875 160.304688 50.691406 159.792969 48.285156 159.738281 C 49.230469 158.445312 50.644531 157.582031 52.671875 157.582031 Z M 46.773438 164.269531 C 48.878906 164.097656 51.199219 164.425781 53.492188 165.222656 C 52.859375 166.507812 52.269531 167.84375 51.730469 169.226562 C 50.347656 169.765625 49.011719 170.355469 47.726562 170.988281 C 47.078125 169.125 46.726562 167.210938 46.726562 165.355469 C 46.726562 164.992188 46.746094 164.628906 46.773438 164.269531 Z M 42.242188 165.757812 C 42.296875 168.21875 42.816406 170.734375 43.746094 173.160156 C 42.667969 173.808594 41.636719 174.46875 40.660156 175.140625 C 40.277344 173.605469 40.082031 171.941406 40.082031 170.167969 C 40.082031 167.992188 41.050781 166.625 42.242188 165.757812 Z M 42.242188 209.523438 C 41.050781 208.65625 40.082031 207.289062 40.082031 205.113281 C 40.082031 203.339844 40.277344 201.675781 40.660156 200.140625 C 41.636719 200.8125 42.667969 201.476562 43.746094 202.121094 C 42.816406 204.546875 42.296875 207.0625 42.242188 209.523438 Z M 35.722656 190.429688 C 34.941406 189.699219 34.511719 188.707031 34.511719 187.640625 C 34.511719 186.574219 34.941406 185.582031 35.722656 184.851562 C 38.046875 182.675781 41.484375 179.789062 45.734375 177.203125 C 46.691406 178.78125 47.824219 180.273438 49.117188 181.613281 C 51.125 183.695312 54.03125 185.992188 58.042969 187.640625 C 54.03125 189.289062 51.121094 191.589844 49.117188 193.667969 C 47.824219 195.007812 46.691406 196.5 45.734375 198.078125 C 41.484375 195.496094 38.046875 192.609375 35.722656 190.429688 Z M 67.8125 189.980469 C 67.398438 195.578125 65.488281 200.421875 62.214844 204.15625 C 59.792969 203.851562 57.460938 203.289062 55.234375 202.546875 C 54.496094 200.324219 53.933594 197.992188 53.632812 195.566406 C 56.527344 193.03125 61.074219 190.472656 67.8125 189.980469 Z M 46.773438 211.011719 C 46.746094 210.652344 46.726562 210.289062 46.726562 209.929688 C 46.726562 208.070312 47.078125 206.15625 47.726562 204.292969 C 49.011719 204.929688 50.347656 205.519531 51.730469 206.054688 C 52.269531 207.4375 52.859375 208.773438 53.492188 210.058594 C 51.199219 210.855469 48.878906 211.183594 46.773438 211.011719 Z M 52.671875 217.703125 C 50.640625 217.703125 49.222656 216.832031 48.277344 215.535156 C 50.6875 215.480469 53.214844 214.972656 55.664062 214.039062 C 56.308594 215.117188 56.972656 216.144531 57.640625 217.121094 C 56.183594 217.484375 54.542969 217.703125 52.671875 217.703125 Z M 72.933594 222.0625 C 72.203125 222.84375 71.210938 223.277344 70.144531 223.277344 C 69.078125 223.277344 68.085938 222.847656 67.355469 222.0625 C 66.53125 221.179688 65.597656 220.136719 64.621094 218.949219 C 67.195312 217.28125 68.960938 215.222656 70.144531 213.421875 C 71.324219 215.222656 73.09375 217.28125 75.664062 218.949219 C 74.691406 220.136719 73.757812 221.179688 72.933594 222.0625 Z M 78.394531 215.375 C 74.460938 212.996094 72.910156 209.441406 72.417969 207.992188 C 72.085938 207.015625 71.171875 206.359375 70.144531 206.359375 C 69.113281 206.359375 68.203125 207.015625 67.875 207.992188 C 67.382812 209.441406 65.824219 212.996094 61.894531 215.375 C 61.160156 214.335938 60.425781 213.226562 59.714844 212.0625 C 61.53125 210.953125 63.207031 209.621094 64.710938 208.074219 C 66.578125 206.15625 68.632812 203.410156 70.144531 199.710938 C 71.664062 203.410156 73.710938 206.152344 75.578125 208.070312 C 77.078125 209.617188 78.753906 210.949219 80.578125 212.058594 C 79.867188 213.226562 79.132812 214.335938 78.394531 215.375 Z M 87.617188 217.703125 C 85.746094 217.703125 84.101562 217.484375 82.648438 217.121094 C 83.316406 216.144531 83.980469 215.113281 84.625 214.039062 C 87.074219 214.972656 89.601562 215.480469 92.007812 215.535156 C 91.0625 216.832031 89.644531 217.703125 87.617188 217.703125 Z M 93.511719 211.011719 C 91.40625 211.183594 89.085938 210.855469 86.796875 210.054688 C 87.433594 208.773438 88.023438 207.4375 88.558594 206.054688 C 89.941406 205.519531 91.277344 204.929688 92.5625 204.292969 C 93.210938 206.15625 93.5625 208.070312 93.5625 209.929688 C 93.5625 210.289062 93.542969 210.652344 93.511719 211.011719 Z M 98.042969 209.519531 C 97.992188 207.0625 97.46875 204.546875 96.539062 202.121094 C 97.617188 201.476562 98.648438 200.8125 99.628906 200.140625 C 100.011719 201.675781 100.207031 203.339844 100.207031 205.113281 C 100.207031 207.289062 99.238281 208.65625 98.042969 209.519531 Z M 104.566406 190.429688 C 102.242188 192.609375 98.800781 195.492188 94.554688 198.078125 C 93.597656 196.5 92.460938 195.007812 91.167969 193.667969 C 89.167969 191.589844 86.257812 189.289062 82.246094 187.640625 C 86.257812 185.992188 89.167969 183.695312 91.167969 181.613281 C 92.460938 180.273438 93.597656 178.78125 94.554688 177.203125 C 98.800781 179.789062 102.242188 182.675781 104.566406 184.851562 C 105.347656 185.582031 105.777344 186.574219 105.777344 187.640625 C 105.777344 188.707031 105.347656 189.699219 104.566406 190.429688 Z M 104.566406 190.429688 " clip-rule="nonzero"/></clipPath><linearGradient x1="0.00000141983" gradientTransform="matrix(0.330519, 0, 0, 0.330519, 30.017271, 147.514016)" y1="121.404999" x2="242.799981" gradientUnits="userSpaceOnUse" y2="121.404999" id="c484e9fde3"><stop stop-opacity="1" stop-color="rgb(79.598999%, 42.399597%, 90.19928%)" offset="0"/><stop stop-opacity="1" stop-color="rgb(79.678345%, 42.308044%, 89.92157%)" offset="0.00390625"/><stop stop-opacity="1" stop-color="rgb(79.759216%, 42.218018%, 89.64386%)" offset="0.0078125"/><stop stop-opacity="1" stop-color="rgb(79.838562%, 42.126465%, 89.36615%)" offset="0.0117188"/><stop stop-opacity="1" stop-color="rgb(79.917908%, 42.036438%, 89.089966%)" offset="0.015625"/><stop stop-opacity="1" stop-color="rgb(79.997253%, 41.944885%, 88.812256%)" offset="0.0195312"/><stop stop-opacity="1" stop-color="rgb(80.076599%, 41.854858%, 88.534546%)" offset="0.0234375"/><stop stop-opacity="1" stop-color="rgb(80.155945%, 41.764832%, 88.256836%)" offset="0.0273438"/><stop stop-opacity="1" stop-color="rgb(80.236816%, 41.674805%, 87.980652%)" offset="0.03125"/><stop stop-opacity="1" stop-color="rgb(80.316162%, 41.583252%, 87.702942%)" offset="0.0351563"/><stop stop-opacity="1" stop-color="rgb(80.395508%, 41.493225%, 87.425232%)" offset="0.0390625"/><stop stop-opacity="1" stop-color="rgb(80.474854%, 41.401672%, 87.147522%)" offset="0.0429687"/><stop stop-opacity="1" stop-color="rgb(80.555725%, 41.311646%, 86.871338%)" offset="0.046875"/><stop stop-opacity="1" stop-color="rgb(80.635071%, 41.220093%, 86.593628%)" offset="0.0507813"/><stop stop-opacity="1" stop-color="rgb(80.714417%, 41.130066%, 86.315918%)" offset="0.0546875"/><stop stop-opacity="1" stop-color="rgb(80.793762%, 41.040039%, 86.038208%)" offset="0.0585937"/><stop stop-opacity="1" stop-color="rgb(80.874634%, 40.950012%, 85.762024%)" offset="0.0625"/><stop stop-opacity="1" stop-color="rgb(80.953979%, 40.858459%, 85.484314%)" offset="0.0664062"/><stop stop-opacity="1" stop-color="rgb(81.033325%, 40.768433%, 85.206604%)" offset="0.0703125"/><stop stop-opacity="1" stop-color="rgb(81.112671%, 40.67688%, 84.928894%)" offset="0.0742188"/><stop stop-opacity="1" stop-color="rgb(81.193542%, 40.586853%, 84.65271%)" offset="0.078125"/><stop stop-opacity="1" stop-color="rgb(81.272888%, 40.4953%, 84.375%)" offset="0.0820312"/><stop stop-opacity="1" stop-color="rgb(81.352234%, 40.405273%, 84.09729%)" offset="0.0859375"/><stop stop-opacity="1" stop-color="rgb(81.43158%, 40.313721%, 83.81958%)" offset="0.0898438"/><stop stop-opacity="1" stop-color="rgb(81.510925%, 40.223694%, 83.543396%)" offset="0.09375"/><stop stop-opacity="1" stop-color="rgb(81.590271%, 40.133667%, 83.265686%)" offset="0.0976562"/><stop stop-opacity="1" stop-color="rgb(81.671143%, 40.04364%, 82.987976%)" offset="0.101562"/><stop stop-opacity="1" stop-color="rgb(81.750488%, 39.952087%, 82.710266%)" offset="0.105469"/><stop stop-opacity="1" stop-color="rgb(81.829834%, 39.862061%, 82.434082%)" offset="0.109375"/><stop stop-opacity="1" stop-color="rgb(81.90918%, 39.770508%, 82.156372%)" offset="0.113281"/><stop stop-opacity="1" stop-color="rgb(81.990051%, 39.680481%, 81.878662%)" offset="0.117188"/><stop stop-opacity="1" stop-color="rgb(82.069397%, 39.588928%, 81.600952%)" offset="0.121094"/><stop stop-opacity="1" stop-color="rgb(82.148743%, 39.498901%, 81.324768%)" offset="0.125"/><stop stop-opacity="1" stop-color="rgb(82.228088%, 39.408875%, 81.047058%)" offset="0.128906"/><stop stop-opacity="1" stop-color="rgb(82.30896%, 39.318848%, 80.769348%)" offset="0.132812"/><stop stop-opacity="1" stop-color="rgb(82.388306%, 39.227295%, 80.491638%)" offset="0.136719"/><stop stop-opacity="1" stop-color="rgb(82.467651%, 39.137268%, 80.215454%)" offset="0.140625"/><stop stop-opacity="1" stop-color="rgb(82.546997%, 39.045715%, 79.937744%)" offset="0.144531"/><stop stop-opacity="1" stop-color="rgb(82.627869%, 38.955688%, 79.660034%)" offset="0.148437"/><stop stop-opacity="1" stop-color="rgb(82.707214%, 38.864136%, 79.382324%)" offset="0.152344"/><stop stop-opacity="1" stop-color="rgb(82.78656%, 38.774109%, 79.10614%)" offset="0.15625"/><stop stop-opacity="1" stop-color="rgb(82.865906%, 38.682556%, 78.82843%)" offset="0.160156"/><stop stop-opacity="1" stop-color="rgb(82.945251%, 38.592529%, 78.55072%)" offset="0.164062"/><stop stop-opacity="1" stop-color="rgb(83.024597%, 38.502502%, 78.27301%)" offset="0.167969"/><stop stop-opacity="1" stop-color="rgb(83.105469%, 38.412476%, 77.996826%)" offset="0.171875"/><stop stop-opacity="1" stop-color="rgb(83.184814%, 38.320923%, 77.719116%)" offset="0.175781"/><stop stop-opacity="1" stop-color="rgb(83.26416%, 38.230896%, 77.441406%)" offset="0.179688"/><stop stop-opacity="1" stop-color="rgb(83.343506%, 38.139343%, 77.163696%)" offset="0.183594"/><stop stop-opacity="1" stop-color="rgb(83.424377%, 38.049316%, 76.887512%)" offset="0.1875"/><stop stop-opacity="1" stop-color="rgb(83.503723%, 37.957764%, 76.609802%)" offset="0.191406"/><stop stop-opacity="1" stop-color="rgb(83.583069%, 37.867737%, 76.332092%)" offset="0.195312"/><stop stop-opacity="1" stop-color="rgb(83.662415%, 37.77771%, 76.054382%)" offset="0.199219"/><stop stop-opacity="1" stop-color="rgb(83.743286%, 37.687683%, 75.778198%)" offset="0.203125"/><stop stop-opacity="1" stop-color="rgb(83.822632%, 37.59613%, 75.500488%)" offset="0.207031"/><stop stop-opacity="1" stop-color="rgb(83.901978%, 37.506104%, 75.222778%)" offset="0.210937"/><stop stop-opacity="1" stop-color="rgb(83.981323%, 37.414551%, 74.945068%)" offset="0.214844"/><stop stop-opacity="1" stop-color="rgb(84.062195%, 37.324524%, 74.668884%)" offset="0.21875"/><stop stop-opacity="1" stop-color="rgb(84.141541%, 37.232971%, 74.391174%)" offset="0.222656"/><stop stop-opacity="1" stop-color="rgb(84.220886%, 37.142944%, 74.113464%)" offset="0.226562"/><stop stop-opacity="1" stop-color="rgb(84.300232%, 37.051392%, 73.835754%)" offset="0.230469"/><stop stop-opacity="1" stop-color="rgb(84.379578%, 36.961365%, 73.55957%)" offset="0.234375"/><stop stop-opacity="1" stop-color="rgb(84.458923%, 36.871338%, 73.28186%)" offset="0.238281"/><stop stop-opacity="1" stop-color="rgb(84.539795%, 36.781311%, 73.00415%)" offset="0.242188"/><stop stop-opacity="1" stop-color="rgb(84.619141%, 36.689758%, 72.72644%)" offset="0.246094"/><stop stop-opacity="1" stop-color="rgb(84.698486%, 36.599731%, 72.450256%)" offset="0.25"/><stop stop-opacity="1" stop-color="rgb(84.777832%, 36.508179%, 72.172546%)" offset="0.253906"/><stop stop-opacity="1" stop-color="rgb(84.858704%, 36.418152%, 71.894836%)" offset="0.257812"/><stop stop-opacity="1" stop-color="rgb(84.938049%, 36.326599%, 71.617126%)" offset="0.261719"/><stop stop-opacity="1" stop-color="rgb(85.017395%, 36.236572%, 71.340942%)" offset="0.265625"/><stop stop-opacity="1" stop-color="rgb(85.096741%, 36.14502%, 71.063232%)" offset="0.269531"/><stop stop-opacity="1" stop-color="rgb(85.177612%, 36.054993%, 70.785522%)" offset="0.273437"/><stop stop-opacity="1" stop-color="rgb(85.256958%, 35.964966%, 70.507812%)" offset="0.277344"/><stop stop-opacity="1" stop-color="rgb(85.336304%, 35.874939%, 70.231628%)" offset="0.28125"/><stop stop-opacity="1" stop-color="rgb(85.415649%, 35.783386%, 69.953918%)" offset="0.285156"/><stop stop-opacity="1" stop-color="rgb(85.496521%, 35.693359%, 69.676208%)" offset="0.289062"/><stop stop-opacity="1" stop-color="rgb(85.575867%, 35.601807%, 69.398499%)" offset="0.292969"/><stop stop-opacity="1" stop-color="rgb(85.655212%, 35.51178%, 69.122314%)" offset="0.296875"/><stop stop-opacity="1" stop-color="rgb(85.734558%, 35.420227%, 68.844604%)" offset="0.300781"/><stop stop-opacity="1" stop-color="rgb(85.813904%, 35.3302%, 68.566895%)" offset="0.304687"/><stop stop-opacity="1" stop-color="rgb(85.89325%, 35.240173%, 68.289185%)" offset="0.308594"/><stop stop-opacity="1" stop-color="rgb(85.974121%, 35.150146%, 68.013%)" offset="0.3125"/><stop stop-opacity="1" stop-color="rgb(86.053467%, 35.058594%, 67.735291%)" offset="0.316406"/><stop stop-opacity="1" stop-color="rgb(86.132812%, 34.968567%, 67.457581%)" offset="0.320312"/><stop stop-opacity="1" stop-color="rgb(86.212158%, 34.877014%, 67.179871%)" offset="0.324219"/><stop stop-opacity="1" stop-color="rgb(86.29303%, 34.786987%, 66.903687%)" offset="0.328125"/><stop stop-opacity="1" stop-color="rgb(86.372375%, 34.695435%, 66.625977%)" offset="0.332031"/><stop stop-opacity="1" stop-color="rgb(86.451721%, 34.605408%, 66.348267%)" offset="0.335937"/><stop stop-opacity="1" stop-color="rgb(86.531067%, 34.513855%, 66.070557%)" offset="0.339844"/><stop stop-opacity="1" stop-color="rgb(86.611938%, 34.423828%, 65.794373%)" offset="0.34375"/><stop stop-opacity="1" stop-color="rgb(86.691284%, 34.333801%, 65.516663%)" offset="0.347656"/><stop stop-opacity="1" stop-color="rgb(86.77063%, 34.243774%, 65.238953%)" offset="0.351562"/><stop stop-opacity="1" stop-color="rgb(86.849976%, 34.152222%, 64.961243%)" offset="0.355469"/><stop stop-opacity="1" stop-color="rgb(86.930847%, 34.062195%, 64.685059%)" offset="0.359375"/><stop stop-opacity="1" stop-color="rgb(87.010193%, 33.970642%, 64.407349%)" offset="0.363281"/><stop stop-opacity="1" stop-color="rgb(87.089539%, 33.880615%, 64.129639%)" offset="0.367187"/><stop stop-opacity="1" stop-color="rgb(87.168884%, 33.789062%, 63.851929%)" offset="0.371094"/><stop stop-opacity="1" stop-color="rgb(87.24823%, 33.699036%, 63.575745%)" offset="0.375"/><stop stop-opacity="1" stop-color="rgb(87.327576%, 33.609009%, 63.298035%)" offset="0.378906"/><stop stop-opacity="1" stop-color="rgb(87.408447%, 33.518982%, 63.020325%)" offset="0.382812"/><stop stop-opacity="1" stop-color="rgb(87.487793%, 33.427429%, 62.742615%)" offset="0.386719"/><stop stop-opacity="1" stop-color="rgb(87.567139%, 33.337402%, 62.466431%)" offset="0.390625"/><stop stop-opacity="1" stop-color="rgb(87.646484%, 33.24585%, 62.188721%)" offset="0.394531"/><stop stop-opacity="1" stop-color="rgb(87.727356%, 33.155823%, 61.911011%)" offset="0.398437"/><stop stop-opacity="1" stop-color="rgb(87.806702%, 33.06427%, 61.633301%)" offset="0.402344"/><stop stop-opacity="1" stop-color="rgb(87.886047%, 32.974243%, 61.357117%)" offset="0.40625"/><stop stop-opacity="1" stop-color="rgb(87.965393%, 32.88269%, 61.079407%)" offset="0.410156"/><stop stop-opacity="1" stop-color="rgb(88.046265%, 32.792664%, 60.801697%)" offset="0.414062"/><stop stop-opacity="1" stop-color="rgb(88.12561%, 32.702637%, 60.523987%)" offset="0.417969"/><stop stop-opacity="1" stop-color="rgb(88.204956%, 32.61261%, 60.247803%)" offset="0.421875"/><stop stop-opacity="1" stop-color="rgb(88.284302%, 32.521057%, 59.970093%)" offset="0.425781"/><stop stop-opacity="1" stop-color="rgb(88.365173%, 32.43103%, 59.692383%)" offset="0.429687"/><stop stop-opacity="1" stop-color="rgb(88.444519%, 32.339478%, 59.414673%)" offset="0.433594"/><stop stop-opacity="1" stop-color="rgb(88.523865%, 32.249451%, 59.138489%)" offset="0.4375"/><stop stop-opacity="1" stop-color="rgb(88.60321%, 32.157898%, 58.860779%)" offset="0.441406"/><stop stop-opacity="1" stop-color="rgb(88.682556%, 32.067871%, 58.583069%)" offset="0.445312"/><stop stop-opacity="1" stop-color="rgb(88.761902%, 31.977844%, 58.305359%)" offset="0.449219"/><stop stop-opacity="1" stop-color="rgb(88.842773%, 31.887817%, 58.029175%)" offset="0.453125"/><stop stop-opacity="1" stop-color="rgb(88.922119%, 31.796265%, 57.751465%)" offset="0.457031"/><stop stop-opacity="1" stop-color="rgb(89.001465%, 31.706238%, 57.473755%)" offset="0.460937"/><stop stop-opacity="1" stop-color="rgb(89.080811%, 31.614685%, 57.196045%)" offset="0.464844"/><stop stop-opacity="1" stop-color="rgb(89.161682%, 31.524658%, 56.919861%)" offset="0.46875"/><stop stop-opacity="1" stop-color="rgb(89.241028%, 31.433105%, 56.642151%)" offset="0.472656"/><stop stop-opacity="1" stop-color="rgb(89.320374%, 31.343079%, 56.364441%)" offset="0.476562"/><stop stop-opacity="1" stop-color="rgb(89.399719%, 31.251526%, 56.086731%)" offset="0.480469"/><stop stop-opacity="1" stop-color="rgb(89.480591%, 31.161499%, 55.810547%)" offset="0.484375"/><stop stop-opacity="1" stop-color="rgb(89.559937%, 31.071472%, 55.532837%)" offset="0.488281"/><stop stop-opacity="1" stop-color="rgb(89.639282%, 30.981445%, 55.255127%)" offset="0.492187"/><stop stop-opacity="1" stop-color="rgb(89.718628%, 30.889893%, 54.977417%)" offset="0.496094"/><stop stop-opacity="1" stop-color="rgb(89.7995%, 30.799866%, 54.701233%)" offset="0.5"/><stop stop-opacity="1" stop-color="rgb(89.878845%, 30.708313%, 54.423523%)" offset="0.503906"/><stop stop-opacity="1" stop-color="rgb(89.958191%, 30.618286%, 54.145813%)" offset="0.507812"/><stop stop-opacity="1" stop-color="rgb(90.037537%, 30.526733%, 53.868103%)" offset="0.511719"/><stop stop-opacity="1" stop-color="rgb(90.116882%, 30.436707%, 53.591919%)" offset="0.515625"/><stop stop-opacity="1" stop-color="rgb(90.196228%, 30.34668%, 53.314209%)" offset="0.519531"/><stop stop-opacity="1" stop-color="rgb(90.2771%, 30.256653%, 53.036499%)" offset="0.523438"/><stop stop-opacity="1" stop-color="rgb(90.356445%, 30.1651%, 52.758789%)" offset="0.527344"/><stop stop-opacity="1" stop-color="rgb(90.435791%, 30.075073%, 52.482605%)" offset="0.53125"/><stop stop-opacity="1" stop-color="rgb(90.515137%, 29.983521%, 52.204895%)" offset="0.535156"/><stop stop-opacity="1" stop-color="rgb(90.596008%, 29.893494%, 51.927185%)" offset="0.539062"/><stop stop-opacity="1" stop-color="rgb(90.675354%, 29.801941%, 51.649475%)" offset="0.542969"/><stop stop-opacity="1" stop-color="rgb(90.7547%, 29.711914%, 51.373291%)" offset="0.546875"/><stop stop-opacity="1" stop-color="rgb(90.834045%, 29.620361%, 51.095581%)" offset="0.550781"/><stop stop-opacity="1" stop-color="rgb(90.914917%, 29.530334%, 50.817871%)" offset="0.554687"/><stop stop-opacity="1" stop-color="rgb(90.994263%, 29.440308%, 50.540161%)" offset="0.558594"/><stop stop-opacity="1" stop-color="rgb(91.073608%, 29.350281%, 50.263977%)" offset="0.5625"/><stop stop-opacity="1" stop-color="rgb(91.152954%, 29.258728%, 49.986267%)" offset="0.566406"/><stop stop-opacity="1" stop-color="rgb(91.233826%, 29.168701%, 49.708557%)" offset="0.570312"/><stop stop-opacity="1" stop-color="rgb(91.313171%, 29.077148%, 49.430847%)" offset="0.574219"/><stop stop-opacity="1" stop-color="rgb(91.392517%, 28.987122%, 49.154663%)" offset="0.578125"/><stop stop-opacity="1" stop-color="rgb(91.471863%, 28.895569%, 48.876953%)" offset="0.582031"/><stop stop-opacity="1" stop-color="rgb(91.551208%, 28.805542%, 48.599243%)" offset="0.585937"/><stop stop-opacity="1" stop-color="rgb(91.630554%, 28.715515%, 48.321533%)" offset="0.589844"/><stop stop-opacity="1" stop-color="rgb(91.711426%, 28.625488%, 48.045349%)" offset="0.59375"/><stop stop-opacity="1" stop-color="rgb(91.790771%, 28.533936%, 47.767639%)" offset="0.597656"/><stop stop-opacity="1" stop-color="rgb(91.870117%, 28.443909%, 47.489929%)" offset="0.601562"/><stop stop-opacity="1" stop-color="rgb(91.949463%, 28.352356%, 47.212219%)" offset="0.605469"/><stop stop-opacity="1" stop-color="rgb(92.030334%, 28.262329%, 46.936035%)" offset="0.609375"/><stop stop-opacity="1" stop-color="rgb(92.10968%, 28.170776%, 46.658325%)" offset="0.613281"/><stop stop-opacity="1" stop-color="rgb(92.189026%, 28.08075%, 46.380615%)" offset="0.617187"/><stop stop-opacity="1" stop-color="rgb(92.268372%, 27.989197%, 46.102905%)" offset="0.621094"/><stop stop-opacity="1" stop-color="rgb(92.349243%, 27.89917%, 45.826721%)" offset="0.625"/><stop stop-opacity="1" stop-color="rgb(92.428589%, 27.809143%, 45.549011%)" offset="0.628906"/><stop stop-opacity="1" stop-color="rgb(92.507935%, 27.719116%, 45.271301%)" offset="0.632813"/><stop stop-opacity="1" stop-color="rgb(92.58728%, 27.627563%, 44.993591%)" offset="0.636719"/><stop stop-opacity="1" stop-color="rgb(92.668152%, 27.537537%, 44.717407%)" offset="0.640625"/><stop stop-opacity="1" stop-color="rgb(92.747498%, 27.445984%, 44.439697%)" offset="0.644531"/><stop stop-opacity="1" stop-color="rgb(92.826843%, 27.355957%, 44.161987%)" offset="0.648438"/><stop stop-opacity="1" stop-color="rgb(92.906189%, 27.264404%, 43.884277%)" offset="0.652344"/><stop stop-opacity="1" stop-color="rgb(92.985535%, 27.174377%, 43.608093%)" offset="0.65625"/><stop stop-opacity="1" stop-color="rgb(93.06488%, 27.084351%, 43.330383%)" offset="0.660156"/><stop stop-opacity="1" stop-color="rgb(93.145752%, 26.994324%, 43.052673%)" offset="0.664063"/><stop stop-opacity="1" stop-color="rgb(93.225098%, 26.902771%, 42.774963%)" offset="0.667969"/><stop stop-opacity="1" stop-color="rgb(93.304443%, 26.812744%, 42.498779%)" offset="0.671875"/><stop stop-opacity="1" stop-color="rgb(93.383789%, 26.721191%, 42.221069%)" offset="0.675781"/><stop stop-opacity="1" stop-color="rgb(93.464661%, 26.631165%, 41.943359%)" offset="0.679688"/><stop stop-opacity="1" stop-color="rgb(93.544006%, 26.539612%, 41.665649%)" offset="0.683594"/><stop stop-opacity="1" stop-color="rgb(93.623352%, 26.449585%, 41.389465%)" offset="0.6875"/><stop stop-opacity="1" stop-color="rgb(93.702698%, 26.358032%, 41.111755%)" offset="0.691406"/><stop stop-opacity="1" stop-color="rgb(93.783569%, 26.268005%, 40.834045%)" offset="0.695313"/><stop stop-opacity="1" stop-color="rgb(93.862915%, 26.177979%, 40.556335%)" offset="0.699219"/><stop stop-opacity="1" stop-color="rgb(93.942261%, 26.087952%, 40.280151%)" offset="0.703125"/><stop stop-opacity="1" stop-color="rgb(94.021606%, 25.996399%, 40.002441%)" offset="0.707031"/><stop stop-opacity="1" stop-color="rgb(94.102478%, 25.906372%, 39.724731%)" offset="0.710938"/><stop stop-opacity="1" stop-color="rgb(94.181824%, 25.814819%, 39.447021%)" offset="0.714844"/><stop stop-opacity="1" stop-color="rgb(94.261169%, 25.724792%, 39.170837%)" offset="0.71875"/><stop stop-opacity="1" stop-color="rgb(94.340515%, 25.63324%, 38.893127%)" offset="0.722656"/><stop stop-opacity="1" stop-color="rgb(94.419861%, 25.543213%, 38.615417%)" offset="0.726562"/><stop stop-opacity="1" stop-color="rgb(94.499207%, 25.453186%, 38.337708%)" offset="0.730469"/><stop stop-opacity="1" stop-color="rgb(94.580078%, 25.363159%, 38.061523%)" offset="0.734375"/><stop stop-opacity="1" stop-color="rgb(94.659424%, 25.271606%, 37.783813%)" offset="0.738281"/><stop stop-opacity="1" stop-color="rgb(94.73877%, 25.18158%, 37.506104%)" offset="0.742188"/><stop stop-opacity="1" stop-color="rgb(94.818115%, 25.090027%, 37.228394%)" offset="0.746094"/><stop stop-opacity="1" stop-color="rgb(94.898987%, 25%, 36.950684%)" offset="0.75"/><stop stop-opacity="1" stop-color="rgb(94.978333%, 24.908447%, 36.672974%)" offset="0.753906"/><stop stop-opacity="1" stop-color="rgb(95.057678%, 24.81842%, 36.39679%)" offset="0.757812"/><stop stop-opacity="1" stop-color="rgb(95.137024%, 24.726868%, 36.11908%)" offset="0.761719"/><stop stop-opacity="1" stop-color="rgb(95.217896%, 24.636841%, 35.84137%)" offset="0.765625"/><stop stop-opacity="1" stop-color="rgb(95.297241%, 24.546814%, 35.56366%)" offset="0.769531"/><stop stop-opacity="1" stop-color="rgb(95.376587%, 24.456787%, 35.287476%)" offset="0.773438"/><stop stop-opacity="1" stop-color="rgb(95.455933%, 24.365234%, 35.009766%)" offset="0.777344"/><stop stop-opacity="1" stop-color="rgb(95.536804%, 24.275208%, 34.732056%)" offset="0.78125"/><stop stop-opacity="1" stop-color="rgb(95.61615%, 24.183655%, 34.454346%)" offset="0.785156"/><stop stop-opacity="1" stop-color="rgb(95.695496%, 24.093628%, 34.178162%)" offset="0.789062"/><stop stop-opacity="1" stop-color="rgb(95.774841%, 24.002075%, 33.900452%)" offset="0.792969"/><stop stop-opacity="1" stop-color="rgb(95.854187%, 23.912048%, 33.622742%)" offset="0.796875"/><stop stop-opacity="1" stop-color="rgb(95.933533%, 23.822021%, 33.345032%)" offset="0.800781"/><stop stop-opacity="1" stop-color="rgb(96.014404%, 23.731995%, 33.068848%)" offset="0.804687"/><stop stop-opacity="1" stop-color="rgb(96.09375%, 23.640442%, 32.791138%)" offset="0.808594"/><stop stop-opacity="1" stop-color="rgb(96.173096%, 23.550415%, 32.513428%)" offset="0.8125"/><stop stop-opacity="1" stop-color="rgb(96.252441%, 23.458862%, 32.235718%)" offset="0.816406"/><stop stop-opacity="1" stop-color="rgb(96.333313%, 23.368835%, 31.959534%)" offset="0.820312"/><stop stop-opacity="1" stop-color="rgb(96.412659%, 23.277283%, 31.681824%)" offset="0.824219"/><stop stop-opacity="1" stop-color="rgb(96.492004%, 23.187256%, 31.404114%)" offset="0.828125"/><stop stop-opacity="1" stop-color="rgb(96.57135%, 23.095703%, 31.126404%)" offset="0.832031"/><stop stop-opacity="1" stop-color="rgb(96.652222%, 23.005676%, 30.85022%)" offset="0.835937"/><stop stop-opacity="1" stop-color="rgb(96.731567%, 22.915649%, 30.57251%)" offset="0.839844"/><stop stop-opacity="1" stop-color="rgb(96.810913%, 22.825623%, 30.2948%)" offset="0.84375"/><stop stop-opacity="1" stop-color="rgb(96.890259%, 22.73407%, 30.01709%)" offset="0.847656"/><stop stop-opacity="1" stop-color="rgb(96.97113%, 22.644043%, 29.740906%)" offset="0.851562"/><stop stop-opacity="1" stop-color="rgb(97.050476%, 22.55249%, 29.463196%)" offset="0.855469"/><stop stop-opacity="1" stop-color="rgb(97.129822%, 22.462463%, 29.185486%)" offset="0.859375"/><stop stop-opacity="1" stop-color="rgb(97.209167%, 22.370911%, 28.907776%)" offset="0.863281"/><stop stop-opacity="1" stop-color="rgb(97.288513%, 22.280884%, 28.631592%)" offset="0.867187"/><stop stop-opacity="1" stop-color="rgb(97.367859%, 22.190857%, 28.353882%)" offset="0.871094"/><stop stop-opacity="1" stop-color="rgb(97.44873%, 22.10083%, 28.076172%)" offset="0.875"/><stop stop-opacity="1" stop-color="rgb(97.528076%, 22.009277%, 27.798462%)" offset="0.878906"/><stop stop-opacity="1" stop-color="rgb(97.607422%, 21.91925%, 27.522278%)" offset="0.882813"/><stop stop-opacity="1" stop-color="rgb(97.686768%, 21.827698%, 27.244568%)" offset="0.886719"/><stop stop-opacity="1" stop-color="rgb(97.767639%, 21.737671%, 26.966858%)" offset="0.890625"/><stop stop-opacity="1" stop-color="rgb(97.846985%, 21.646118%, 26.689148%)" offset="0.894531"/><stop stop-opacity="1" stop-color="rgb(97.926331%, 21.556091%, 26.412964%)" offset="0.898438"/><stop stop-opacity="1" stop-color="rgb(98.005676%, 21.464539%, 26.135254%)" offset="0.902344"/><stop stop-opacity="1" stop-color="rgb(98.086548%, 21.374512%, 25.857544%)" offset="0.90625"/><stop stop-opacity="1" stop-color="rgb(98.165894%, 21.284485%, 25.579834%)" offset="0.910156"/><stop stop-opacity="1" stop-color="rgb(98.245239%, 21.194458%, 25.30365%)" offset="0.914063"/><stop stop-opacity="1" stop-color="rgb(98.324585%, 21.102905%, 25.02594%)" offset="0.917969"/><stop stop-opacity="1" stop-color="rgb(98.405457%, 21.012878%, 24.74823%)" offset="0.921875"/><stop stop-opacity="1" stop-color="rgb(98.484802%, 20.921326%, 24.47052%)" offset="0.925781"/><stop stop-opacity="1" stop-color="rgb(98.564148%, 20.831299%, 24.194336%)" offset="0.929688"/><stop stop-opacity="1" stop-color="rgb(98.643494%, 20.739746%, 23.916626%)" offset="0.933594"/><stop stop-opacity="1" stop-color="rgb(98.722839%, 20.649719%, 23.638916%)" offset="0.9375"/><stop stop-opacity="1" stop-color="rgb(98.802185%, 20.558167%, 23.361206%)" offset="0.941406"/><stop stop-opacity="1" stop-color="rgb(98.883057%, 20.46814%, 23.085022%)" offset="0.945313"/><stop stop-opacity="1" stop-color="rgb(98.962402%, 20.378113%, 22.807312%)" offset="0.949219"/><stop stop-opacity="1" stop-color="rgb(99.041748%, 20.288086%, 22.529602%)" offset="0.953125"/><stop stop-opacity="1" stop-color="rgb(99.121094%, 20.196533%, 22.251892%)" offset="0.957031"/><stop stop-opacity="1" stop-color="rgb(99.201965%, 20.106506%, 21.975708%)" offset="0.960938"/><stop stop-opacity="1" stop-color="rgb(99.281311%, 20.014954%, 21.697998%)" offset="0.964844"/><stop stop-opacity="1" stop-color="rgb(99.360657%, 19.924927%, 21.420288%)" offset="0.96875"/><stop stop-opacity="1" stop-color="rgb(99.440002%, 19.833374%, 21.142578%)" offset="0.972656"/><stop stop-opacity="1" stop-color="rgb(99.520874%, 19.743347%, 20.866394%)" offset="0.976562"/><stop stop-opacity="1" stop-color="rgb(99.60022%, 19.65332%, 20.588684%)" offset="0.980469"/><stop stop-opacity="1" stop-color="rgb(99.679565%, 19.563293%, 20.310974%)" offset="0.984375"/><stop stop-opacity="1" stop-color="rgb(99.758911%, 19.471741%, 20.033264%)" offset="0.988281"/><stop stop-opacity="1" stop-color="rgb(99.839783%, 19.381714%, 19.75708%)" offset="0.992188"/><stop stop-opacity="1" stop-color="rgb(99.919128%, 19.290161%, 19.47937%)" offset="0.996094"/><stop stop-opacity="1" stop-color="rgb(99.998474%, 19.200134%, 19.20166%)" offset="1"/></linearGradient></defs><g fill="#ffffff" fill-opacity="1"><g transform="translate(124.211905, 191.787106)"><g><path d="M 11.015625 -12.21875 L 11.015625 -6.390625 L 23.328125 -6.390625 L 23.328125 0 L 3.515625 0 L 3.515625 -30.015625 L 22.90625 -30.015625 L 22.90625 -23.625 L 11.015625 -23.625 L 11.015625 -18.4375 L 22.46875 -18.4375 L 22.46875 -12.21875 Z M 11.015625 -12.21875 "/></g></g></g><g fill="#ffffff" fill-opacity="1"><g transform="translate(149.770166, 191.787106)"><g><path d="M 17.71875 -11.625 L 25.5625 0 L 17.71875 0 L 13.078125 -7.375 L 8.40625 0 L 0.640625 0 L 8.53125 -11.453125 L 1.25 -22.296875 L 8.96875 -22.296875 L 13.171875 -15.359375 L 17.375 -22.296875 L 25.046875 -22.296875 Z M 17.71875 -11.625 "/></g></g></g><g fill="#ffffff" fill-opacity="1"><g transform="translate(175.971668, 191.787106)"><g><path d="M 16.34375 -22.859375 C 18.175781 -22.859375 19.929688 -22.367188 21.609375 -21.390625 C 23.296875 -20.421875 24.671875 -19.050781 25.734375 -17.28125 C 26.796875 -15.507812 27.328125 -13.46875 27.328125 -11.15625 C 27.328125 -8.832031 26.796875 -6.773438 25.734375 -4.984375 C 24.671875 -3.203125 23.296875 -1.832031 21.609375 -0.875 C 19.929688 0.0820312 18.175781 0.5625 16.34375 0.5625 C 13.625 0.5625 11.460938 -0.195312 9.859375 -1.71875 L 9.859375 8.578125 L 2.703125 8.578125 L 2.703125 -22.296875 L 9.34375 -22.296875 L 9.34375 -20.109375 C 11.03125 -21.941406 13.363281 -22.859375 16.34375 -22.859375 Z M 14.890625 -5.796875 C 16.429688 -5.796875 17.707031 -6.300781 18.71875 -7.3125 C 19.738281 -8.320312 20.25 -9.601562 20.25 -11.15625 C 20.25 -12.695312 19.738281 -13.972656 18.71875 -14.984375 C 17.707031 -16.003906 16.429688 -16.515625 14.890625 -16.515625 C 13.335938 -16.515625 12.050781 -16.003906 11.03125 -14.984375 C 10.019531 -13.972656 9.515625 -12.695312 9.515625 -11.15625 C 9.515625 -9.601562 10.019531 -8.320312 11.03125 -7.3125 C 12.050781 -6.300781 13.335938 -5.796875 14.890625 -5.796875 Z M 14.890625 -5.796875 "/></g></g></g><g fill="#ffffff" fill-opacity="1"><g transform="translate(204.574613, 191.787106)"><g><path d="M 13.203125 -22.859375 C 15.328125 -22.859375 17.296875 -22.367188 19.109375 -21.390625 C 20.921875 -20.421875 22.378906 -19.054688 23.484375 -17.296875 C 24.585938 -15.546875 25.140625 -13.554688 25.140625 -11.328125 C 25.140625 -10.671875 25.066406 -9.910156 24.921875 -9.046875 L 8.359375 -9.046875 C 8.648438 -7.703125 9.222656 -6.65625 10.078125 -5.90625 C 10.929688 -5.164062 12.003906 -4.796875 13.296875 -4.796875 C 14.328125 -4.796875 15.191406 -4.984375 15.890625 -5.359375 C 16.585938 -5.734375 17.179688 -6.289062 17.671875 -7.03125 L 24.484375 -7.03125 C 23.660156 -4.769531 22.273438 -2.9375 20.328125 -1.53125 C 18.378906 -0.132812 16.003906 0.5625 13.203125 0.5625 C 11.066406 0.5625 9.082031 0.078125 7.25 -0.890625 C 5.414062 -1.867188 3.945312 -3.242188 2.84375 -5.015625 C 1.75 -6.785156 1.203125 -8.832031 1.203125 -11.15625 C 1.203125 -13.46875 1.75 -15.507812 2.84375 -17.28125 C 3.945312 -19.050781 5.414062 -20.421875 7.25 -21.390625 C 9.082031 -22.367188 11.066406 -22.859375 13.203125 -22.859375 Z M 13.203125 -17.453125 C 12.003906 -17.453125 10.984375 -17.113281 10.140625 -16.4375 C 9.296875 -15.769531 8.71875 -14.796875 8.40625 -13.515625 L 18.09375 -13.515625 C 17.863281 -14.679688 17.332031 -15.628906 16.5 -16.359375 C 15.675781 -17.085938 14.578125 -17.453125 13.203125 -17.453125 Z M 13.203125 -17.453125 "/></g></g></g><g fill="#ffffff" fill-opacity="1"><g transform="translate(230.904763, 191.787106)"><g><path d="M 15.953125 -22.859375 C 17.703125 -22.859375 19.253906 -22.453125 20.609375 -21.640625 C 21.960938 -20.828125 23.023438 -19.703125 23.796875 -18.265625 C 24.578125 -16.835938 24.96875 -15.207031 24.96875 -13.375 L 24.96875 0 L 17.796875 0 L 17.796875 -11.875 C 17.796875 -13.28125 17.457031 -14.394531 16.78125 -15.21875 C 16.113281 -16.050781 15.164062 -16.46875 13.9375 -16.46875 C 12.738281 -16.46875 11.757812 -16.046875 11 -15.203125 C 10.238281 -14.359375 9.859375 -13.25 9.859375 -11.875 L 9.859375 0 L 2.703125 0 L 2.703125 -22.296875 L 9.34375 -22.296875 L 9.34375 -20.15625 C 11.125 -21.957031 13.328125 -22.859375 15.953125 -22.859375 Z M 15.953125 -22.859375 "/></g></g></g><g fill="#ffffff" fill-opacity="1"><g transform="translate(258.39275, 191.787106)"><g><path d="M 12.015625 0.5625 C 9.984375 0.5625 8.207031 0.226562 6.6875 -0.4375 C 5.175781 -1.113281 3.984375 -2.035156 3.109375 -3.203125 C 2.234375 -4.378906 1.738281 -5.695312 1.625 -7.15625 L 8.40625 -7.15625 C 8.488281 -6.476562 8.835938 -5.910156 9.453125 -5.453125 C 10.066406 -4.992188 10.90625 -4.765625 11.96875 -4.765625 C 12.882812 -4.765625 13.59375 -4.910156 14.09375 -5.203125 C 14.59375 -5.503906 14.84375 -5.957031 14.84375 -6.5625 C 14.84375 -7.164062 14.503906 -7.613281 13.828125 -7.90625 C 13.160156 -8.207031 12.113281 -8.503906 10.6875 -8.796875 C 8.96875 -9.160156 7.539062 -9.566406 6.40625 -10.015625 C 5.28125 -10.460938 4.300781 -11.175781 3.46875 -12.15625 C 2.644531 -13.144531 2.234375 -14.5 2.234375 -16.21875 C 2.234375 -17.46875 2.628906 -18.59375 3.421875 -19.59375 C 4.222656 -20.601562 5.335938 -21.398438 6.765625 -21.984375 C 8.203125 -22.566406 9.820312 -22.859375 11.625 -22.859375 C 13.28125 -22.859375 14.816406 -22.539062 16.234375 -21.90625 C 17.648438 -21.28125 18.800781 -20.394531 19.6875 -19.25 C 20.570312 -18.113281 21.054688 -16.828125 21.140625 -15.390625 L 14.453125 -15.390625 C 14.398438 -16.054688 14.109375 -16.585938 13.578125 -16.984375 C 13.046875 -17.378906 12.351562 -17.578125 11.5 -17.578125 C 10.726562 -17.578125 10.132812 -17.445312 9.71875 -17.1875 C 9.300781 -16.9375 9.09375 -16.566406 9.09375 -16.078125 C 9.09375 -15.503906 9.410156 -15.082031 10.046875 -14.8125 C 10.691406 -14.539062 11.742188 -14.234375 13.203125 -13.890625 C 14.921875 -13.523438 16.34375 -13.125 17.46875 -12.6875 C 18.601562 -12.257812 19.582031 -11.566406 20.40625 -10.609375 C 21.238281 -9.648438 21.65625 -8.34375 21.65625 -6.6875 C 21.65625 -4.425781 20.78125 -2.648438 19.03125 -1.359375 C 17.289062 -0.078125 14.953125 0.5625 12.015625 0.5625 Z M 12.015625 0.5625 "/></g></g></g><g fill="#ffffff" fill-opacity="1"><g transform="translate(281.892619, 191.787106)"><g><path d="M 9.859375 0 L 2.703125 0 L 2.703125 -22.296875 L 9.859375 -22.296875 Z M 9.953125 -25.734375 L 2.578125 -25.734375 L 2.578125 -31.484375 L 9.953125 -31.484375 Z M 9.953125 -25.734375 "/></g></g></g><g fill="#ffffff" fill-opacity="1"><g transform="translate(294.500215, 191.787106)"><g><path d="M 14.84375 -26.25 C 13.84375 -26.25 13.039062 -25.953125 12.4375 -25.359375 C 11.832031 -24.773438 11.53125 -23.957031 11.53125 -22.90625 L 11.53125 -22.296875 L 16.640625 -22.296875 L 16.640625 -16 L 11.53125 -16 L 11.53125 0 L 4.375 0 L 4.375 -16 L 0.734375 -16 L 0.734375 -22.296875 L 4.375 -22.296875 L 4.375 -23.765625 C 4.375 -26.390625 5.09375 -28.445312 6.53125 -29.9375 C 7.976562 -31.425781 10.035156 -32.171875 12.703125 -32.171875 L 16.640625 -32.171875 L 16.640625 -26.25 Z M 14.84375 -26.25 "/></g></g></g><g fill="#ffffff" fill-opacity="1"><g transform="translate(311.996468, 191.787106)"><g><path d="M 12.828125 -9.734375 L 18.265625 -22.296875 L 25.5625 -22.296875 L 11.796875 8.578125 L 4.625 8.578125 L 9.3125 -2.015625 L -0.21875 -22.296875 L 7.25 -22.296875 Z M 12.828125 -9.734375 "/></g></g></g><g fill="#ffffff" fill-opacity="1"><g transform="translate(124.211905, 217.815013)"><g><path d="M 6.296875 0.15625 C 5.304688 0.15625 4.390625 -0.0859375 3.546875 -0.578125 C 2.710938 -1.066406 2.050781 -1.734375 1.5625 -2.578125 C 1.082031 -3.429688 0.84375 -4.359375 0.84375 -5.359375 C 0.84375 -6.359375 1.082031 -7.28125 1.5625 -8.125 C 2.050781 -8.976562 2.710938 -9.648438 3.546875 -10.140625 C 4.390625 -10.628906 5.304688 -10.875 6.296875 -10.875 C 7.429688 -10.875 8.425781 -10.5625 9.28125 -9.9375 C 10.132812 -9.320312 10.773438 -8.484375 11.203125 -7.421875 L 9.90625 -7.421875 C 9.550781 -8.128906 9.054688 -8.6875 8.421875 -9.09375 C 7.796875 -9.507812 7.085938 -9.71875 6.296875 -9.71875 C 5.535156 -9.71875 4.832031 -9.523438 4.1875 -9.140625 C 3.550781 -8.753906 3.046875 -8.226562 2.671875 -7.5625 C 2.296875 -6.894531 2.109375 -6.160156 2.109375 -5.359375 C 2.109375 -4.554688 2.296875 -3.820312 2.671875 -3.15625 C 3.046875 -2.488281 3.550781 -1.960938 4.1875 -1.578125 C 4.832031 -1.191406 5.535156 -1 6.296875 -1 C 7.117188 -1 7.847656 -1.203125 8.484375 -1.609375 C 9.117188 -2.023438 9.613281 -2.585938 9.96875 -3.296875 L 11.265625 -3.296875 C 10.835938 -2.234375 10.191406 -1.390625 9.328125 -0.765625 C 8.460938 -0.148438 7.453125 0.15625 6.296875 0.15625 Z M 6.296875 0.15625 "/></g></g></g><g fill="#ffffff" fill-opacity="1"><g transform="translate(136.170144, 217.815013)"><g><path d="M 4.53125 0.15625 C 3.8125 0.15625 3.15625 -0.015625 2.5625 -0.359375 C 1.96875 -0.703125 1.492188 -1.171875 1.140625 -1.765625 C 0.785156 -2.367188 0.609375 -3.03125 0.609375 -3.75 C 0.609375 -4.476562 0.785156 -5.140625 1.140625 -5.734375 C 1.492188 -6.328125 1.96875 -6.796875 2.5625 -7.140625 C 3.15625 -7.484375 3.8125 -7.65625 4.53125 -7.65625 C 5.25 -7.65625 5.90625 -7.484375 6.5 -7.140625 C 7.09375 -6.796875 7.566406 -6.328125 7.921875 -5.734375 C 8.273438 -5.140625 8.453125 -4.476562 8.453125 -3.75 C 8.453125 -3.03125 8.273438 -2.367188 7.921875 -1.765625 C 7.566406 -1.171875 7.09375 -0.703125 6.5 -0.359375 C 5.90625 -0.015625 5.25 0.15625 4.53125 0.15625 Z M 4.53125 -0.921875 C 5.03125 -0.921875 5.484375 -1.046875 5.890625 -1.296875 C 6.304688 -1.546875 6.640625 -1.882812 6.890625 -2.3125 C 7.140625 -2.738281 7.265625 -3.21875 7.265625 -3.75 C 7.265625 -4.28125 7.140625 -4.757812 6.890625 -5.1875 C 6.640625 -5.613281 6.304688 -5.953125 5.890625 -6.203125 C 5.484375 -6.453125 5.03125 -6.578125 4.53125 -6.578125 C 4.03125 -6.578125 3.570312 -6.453125 3.15625 -6.203125 C 2.75 -5.953125 2.421875 -5.613281 2.171875 -5.1875 C 1.929688 -4.757812 1.8125 -4.28125 1.8125 -3.75 C 1.8125 -3.21875 1.929688 -2.738281 2.171875 -2.3125 C 2.421875 -1.882812 2.75 -1.546875 3.15625 -1.296875 C 3.570312 -1.046875 4.03125 -0.921875 4.53125 -0.921875 Z M 4.53125 -0.921875 "/></g></g></g><g fill="#ffffff" fill-opacity="1"><g transform="translate(145.311089, 217.815013)"><g><path d="M 4.671875 -7.65625 C 5.273438 -7.65625 5.804688 -7.507812 6.265625 -7.21875 C 6.734375 -6.925781 7.09375 -6.53125 7.34375 -6.03125 C 7.601562 -5.53125 7.734375 -4.972656 7.734375 -4.359375 L 7.734375 0 L 6.578125 0 L 6.578125 -4.359375 C 6.578125 -5.023438 6.394531 -5.5625 6.03125 -5.96875 C 5.664062 -6.375 5.160156 -6.578125 4.515625 -6.578125 C 4.109375 -6.578125 3.734375 -6.484375 3.390625 -6.296875 C 3.054688 -6.109375 2.789062 -5.84375 2.59375 -5.5 C 2.394531 -5.164062 2.296875 -4.785156 2.296875 -4.359375 L 2.296875 0 L 1.140625 0 L 1.140625 -7.5 L 2.296875 -7.5 L 2.296875 -6.5 C 2.597656 -6.882812 2.953125 -7.171875 3.359375 -7.359375 C 3.765625 -7.554688 4.203125 -7.65625 4.671875 -7.65625 Z M 4.671875 -7.65625 "/></g></g></g><g fill="#ffffff" fill-opacity="1"><g transform="translate(154.19174, 217.815013)"><g><path d="M 4.75 -6.46875 L 2.828125 -6.46875 L 2.828125 -2.296875 C 2.828125 -1.921875 2.9375 -1.625 3.15625 -1.40625 C 3.375 -1.1875 3.675781 -1.078125 4.0625 -1.078125 L 4.75 -1.078125 L 4.75 0 L 3.984375 0 C 3.296875 0 2.738281 -0.203125 2.3125 -0.609375 C 1.894531 -1.023438 1.6875 -1.5625 1.6875 -2.21875 L 1.6875 -6.46875 L 0.453125 -6.46875 L 0.453125 -7.5 L 1.6875 -7.5 L 1.6875 -9.5 L 2.828125 -9.5 L 2.828125 -7.5 L 4.75 -7.5 Z M 4.75 -6.46875 "/></g></g></g><g fill="#ffffff" fill-opacity="1"><g transform="translate(159.627317, 217.815013)"><g><path d="M 5.28125 -7.578125 L 5.28125 -6.5 L 4.515625 -6.5 C 4.109375 -6.5 3.734375 -6.40625 3.390625 -6.21875 C 3.054688 -6.03125 2.789062 -5.769531 2.59375 -5.4375 C 2.394531 -5.101562 2.296875 -4.71875 2.296875 -4.28125 L 2.296875 0 L 1.140625 0 L 1.140625 -7.5 L 2.296875 -7.5 L 2.296875 -6.4375 C 2.597656 -6.8125 2.953125 -7.09375 3.359375 -7.28125 C 3.765625 -7.476562 4.203125 -7.578125 4.671875 -7.578125 Z M 5.28125 -7.578125 "/></g></g></g><g fill="#ffffff" fill-opacity="1"><g transform="translate(165.139447, 217.815013)"><g><path d="M 4.53125 0.15625 C 3.8125 0.15625 3.15625 -0.015625 2.5625 -0.359375 C 1.96875 -0.703125 1.492188 -1.171875 1.140625 -1.765625 C 0.785156 -2.367188 0.609375 -3.03125 0.609375 -3.75 C 0.609375 -4.476562 0.785156 -5.140625 1.140625 -5.734375 C 1.492188 -6.328125 1.96875 -6.796875 2.5625 -7.140625 C 3.15625 -7.484375 3.8125 -7.65625 4.53125 -7.65625 C 5.25 -7.65625 5.90625 -7.484375 6.5 -7.140625 C 7.09375 -6.796875 7.566406 -6.328125 7.921875 -5.734375 C 8.273438 -5.140625 8.453125 -4.476562 8.453125 -3.75 C 8.453125 -3.03125 8.273438 -2.367188 7.921875 -1.765625 C 7.566406 -1.171875 7.09375 -0.703125 6.5 -0.359375 C 5.90625 -0.015625 5.25 0.15625 4.53125 0.15625 Z M 4.53125 -0.921875 C 5.03125 -0.921875 5.484375 -1.046875 5.890625 -1.296875 C 6.304688 -1.546875 6.640625 -1.882812 6.890625 -2.3125 C 7.140625 -2.738281 7.265625 -3.21875 7.265625 -3.75 C 7.265625 -4.28125 7.140625 -4.757812 6.890625 -5.1875 C 6.640625 -5.613281 6.304688 -5.953125 5.890625 -6.203125 C 5.484375 -6.453125 5.03125 -6.578125 4.53125 -6.578125 C 4.03125 -6.578125 3.570312 -6.453125 3.15625 -6.203125 C 2.75 -5.953125 2.421875 -5.613281 2.171875 -5.1875 C 1.929688 -4.757812 1.8125 -4.28125 1.8125 -3.75 C 1.8125 -3.21875 1.929688 -2.738281 2.171875 -2.3125 C 2.421875 -1.882812 2.75 -1.546875 3.15625 -1.296875 C 3.570312 -1.046875 4.03125 -0.921875 4.53125 -0.921875 Z M 4.53125 -0.921875 "/></g></g></g><g fill="#ffffff" fill-opacity="1"><g transform="translate(174.280394, 217.815013)"><g><path d="M 2.375 0 L 1.21875 0 L 1.21875 -11.03125 L 2.375 -11.03125 Z M 2.375 0 "/></g></g></g><g fill="#ffffff" fill-opacity="1"><g transform="translate(177.955161, 217.815013)"><g/></g></g><g fill="#ffffff" fill-opacity="1"><g transform="translate(182.318939, 217.815013)"><g><path d="M 4.015625 -1.828125 L 6.5 -7.5 L 7.734375 -7.5 L 2.984375 3.0625 L 1.765625 3.0625 L 3.375 -0.53125 L 0.078125 -7.5 L 1.359375 -7.5 Z M 4.015625 -1.828125 "/></g></g></g><g fill="#ffffff" fill-opacity="1"><g transform="translate(190.280893, 217.815013)"><g><path d="M 4.53125 0.15625 C 3.8125 0.15625 3.15625 -0.015625 2.5625 -0.359375 C 1.96875 -0.703125 1.492188 -1.171875 1.140625 -1.765625 C 0.785156 -2.367188 0.609375 -3.03125 0.609375 -3.75 C 0.609375 -4.476562 0.785156 -5.140625 1.140625 -5.734375 C 1.492188 -6.328125 1.96875 -6.796875 2.5625 -7.140625 C 3.15625 -7.484375 3.8125 -7.65625 4.53125 -7.65625 C 5.25 -7.65625 5.90625 -7.484375 6.5 -7.140625 C 7.09375 -6.796875 7.566406 -6.328125 7.921875 -5.734375 C 8.273438 -5.140625 8.453125 -4.476562 8.453125 -3.75 C 8.453125 -3.03125 8.273438 -2.367188 7.921875 -1.765625 C 7.566406 -1.171875 7.09375 -0.703125 6.5 -0.359375 C 5.90625 -0.015625 5.25 0.15625 4.53125 0.15625 Z M 4.53125 -0.921875 C 5.03125 -0.921875 5.484375 -1.046875 5.890625 -1.296875 C 6.304688 -1.546875 6.640625 -1.882812 6.890625 -2.3125 C 7.140625 -2.738281 7.265625 -3.21875 7.265625 -3.75 C 7.265625 -4.28125 7.140625 -4.757812 6.890625 -5.1875 C 6.640625 -5.613281 6.304688 -5.953125 5.890625 -6.203125 C 5.484375 -6.453125 5.03125 -6.578125 4.53125 -6.578125 C 4.03125 -6.578125 3.570312 -6.453125 3.15625 -6.203125 C 2.75 -5.953125 2.421875 -5.613281 2.171875 -5.1875 C 1.929688 -4.757812 1.8125 -4.28125 1.8125 -3.75 C 1.8125 -3.21875 1.929688 -2.738281 2.171875 -2.3125 C 2.421875 -1.882812 2.75 -1.546875 3.15625 -1.296875 C 3.570312 -1.046875 4.03125 -0.921875 4.53125 -0.921875 Z M 4.53125 -0.921875 "/></g></g></g><g fill="#ffffff" fill-opacity="1"><g transform="translate(199.42184, 217.815013)"><g><path d="M 4.328125 0.15625 C 3.691406 0.15625 3.125 0.015625 2.625 -0.265625 C 2.132812 -0.546875 1.753906 -0.9375 1.484375 -1.4375 C 1.210938 -1.9375 1.078125 -2.503906 1.078125 -3.140625 L 1.078125 -7.5 L 2.21875 -7.5 L 2.21875 -3.140625 C 2.21875 -2.484375 2.410156 -1.945312 2.796875 -1.53125 C 3.191406 -1.125 3.703125 -0.921875 4.328125 -0.921875 C 4.960938 -0.921875 5.472656 -1.125 5.859375 -1.53125 C 6.253906 -1.945312 6.453125 -2.484375 6.453125 -3.140625 L 6.453125 -7.5 L 7.59375 -7.5 L 7.59375 -3.140625 C 7.59375 -2.503906 7.457031 -1.9375 7.1875 -1.4375 C 6.914062 -0.9375 6.53125 -0.546875 6.03125 -0.265625 C 5.539062 0.015625 4.972656 0.15625 4.328125 0.15625 Z M 4.328125 0.15625 "/></g></g></g><g fill="#ffffff" fill-opacity="1"><g transform="translate(208.164673, 217.815013)"><g><path d="M 5.28125 -7.578125 L 5.28125 -6.5 L 4.515625 -6.5 C 4.109375 -6.5 3.734375 -6.40625 3.390625 -6.21875 C 3.054688 -6.03125 2.789062 -5.769531 2.59375 -5.4375 C 2.394531 -5.101562 2.296875 -4.71875 2.296875 -4.28125 L 2.296875 0 L 1.140625 0 L 1.140625 -7.5 L 2.296875 -7.5 L 2.296875 -6.4375 C 2.597656 -6.8125 2.953125 -7.09375 3.359375 -7.28125 C 3.765625 -7.476562 4.203125 -7.578125 4.671875 -7.578125 Z M 5.28125 -7.578125 "/></g></g></g><g fill="#ffffff" fill-opacity="1"><g transform="translate(213.676798, 217.815013)"><g/></g></g><g fill="#ffffff" fill-opacity="1"><g transform="translate(218.040572, 217.815013)"><g><path d="M 4.375 -7.65625 C 5.0625 -7.65625 5.6875 -7.5 6.25 -7.1875 C 6.820312 -6.875 7.269531 -6.429688 7.59375 -5.859375 C 7.914062 -5.296875 8.078125 -4.65625 8.078125 -3.9375 C 8.078125 -3.6875 8.066406 -3.5 8.046875 -3.375 L 1.828125 -3.375 C 1.890625 -2.625 2.148438 -2.023438 2.609375 -1.578125 C 3.066406 -1.140625 3.65625 -0.921875 4.375 -0.921875 C 5.4375 -0.921875 6.203125 -1.351562 6.671875 -2.21875 L 7.90625 -2.21875 C 7.59375 -1.457031 7.132812 -0.867188 6.53125 -0.453125 C 5.9375 -0.046875 5.21875 0.15625 4.375 0.15625 C 3.675781 0.15625 3.035156 -0.015625 2.453125 -0.359375 C 1.878906 -0.703125 1.425781 -1.171875 1.09375 -1.765625 C 0.769531 -2.359375 0.609375 -3.019531 0.609375 -3.75 C 0.609375 -4.488281 0.769531 -5.148438 1.09375 -5.734375 C 1.425781 -6.328125 1.878906 -6.796875 2.453125 -7.140625 C 3.035156 -7.484375 3.675781 -7.65625 4.375 -7.65625 Z M 4.375 -6.578125 C 3.707031 -6.578125 3.148438 -6.382812 2.703125 -6 C 2.253906 -5.613281 1.976562 -5.082031 1.875 -4.40625 L 6.875 -4.40625 C 6.800781 -5.0625 6.53125 -5.585938 6.0625 -5.984375 C 5.601562 -6.378906 5.039062 -6.578125 4.375 -6.578125 Z M 4.375 -6.578125 "/></g></g></g><g fill="#ffffff" fill-opacity="1"><g transform="translate(226.737477, 217.815013)"><g><path d="M 4.78125 -3.9375 L 7.640625 0 L 6.21875 0 L 4.046875 -3.09375 L 1.828125 0 L 0.453125 0 L 3.3125 -3.890625 L 0.671875 -7.5 L 2.09375 -7.5 L 4.0625 -4.6875 L 6.078125 -7.5 L 7.453125 -7.5 Z M 4.78125 -3.9375 "/></g></g></g><g fill="#ffffff" fill-opacity="1"><g transform="translate(234.913794, 217.815013)"><g><path d="M 5.046875 -7.65625 C 5.734375 -7.65625 6.375 -7.484375 6.96875 -7.140625 C 7.5625 -6.796875 8.03125 -6.328125 8.375 -5.734375 C 8.71875 -5.140625 8.890625 -4.476562 8.890625 -3.75 C 8.890625 -3.03125 8.71875 -2.367188 8.375 -1.765625 C 8.03125 -1.171875 7.5625 -0.703125 6.96875 -0.359375 C 6.375 -0.015625 5.734375 0.15625 5.046875 0.15625 C 4.484375 0.15625 3.960938 0.0390625 3.484375 -0.1875 C 3.003906 -0.425781 2.609375 -0.742188 2.296875 -1.140625 L 2.296875 3.0625 L 1.140625 3.0625 L 1.140625 -7.5 L 2.296875 -7.5 L 2.296875 -6.359375 C 2.609375 -6.753906 3.003906 -7.066406 3.484375 -7.296875 C 3.960938 -7.535156 4.484375 -7.65625 5.046875 -7.65625 Z M 4.96875 -0.921875 C 5.476562 -0.921875 5.9375 -1.046875 6.34375 -1.296875 C 6.757812 -1.546875 7.085938 -1.882812 7.328125 -2.3125 C 7.578125 -2.738281 7.703125 -3.21875 7.703125 -3.75 C 7.703125 -4.28125 7.578125 -4.757812 7.328125 -5.1875 C 7.085938 -5.613281 6.757812 -5.953125 6.34375 -6.203125 C 5.9375 -6.453125 5.476562 -6.578125 4.96875 -6.578125 C 4.46875 -6.578125 4.003906 -6.453125 3.578125 -6.203125 C 3.160156 -5.953125 2.828125 -5.613281 2.578125 -5.1875 C 2.335938 -4.757812 2.21875 -4.28125 2.21875 -3.75 C 2.21875 -3.21875 2.335938 -2.738281 2.578125 -2.3125 C 2.828125 -1.882812 3.160156 -1.546875 3.578125 -1.296875 C 4.003906 -1.046875 4.46875 -0.921875 4.96875 -0.921875 Z M 4.96875 -0.921875 "/></g></g></g><g fill="#ffffff" fill-opacity="1"><g transform="translate(244.498757, 217.815013)"><g><path d="M 4.375 -7.65625 C 5.0625 -7.65625 5.6875 -7.5 6.25 -7.1875 C 6.820312 -6.875 7.269531 -6.429688 7.59375 -5.859375 C 7.914062 -5.296875 8.078125 -4.65625 8.078125 -3.9375 C 8.078125 -3.6875 8.066406 -3.5 8.046875 -3.375 L 1.828125 -3.375 C 1.890625 -2.625 2.148438 -2.023438 2.609375 -1.578125 C 3.066406 -1.140625 3.65625 -0.921875 4.375 -0.921875 C 5.4375 -0.921875 6.203125 -1.351562 6.671875 -2.21875 L 7.90625 -2.21875 C 7.59375 -1.457031 7.132812 -0.867188 6.53125 -0.453125 C 5.9375 -0.046875 5.21875 0.15625 4.375 0.15625 C 3.675781 0.15625 3.035156 -0.015625 2.453125 -0.359375 C 1.878906 -0.703125 1.425781 -1.171875 1.09375 -1.765625 C 0.769531 -2.359375 0.609375 -3.019531 0.609375 -3.75 C 0.609375 -4.488281 0.769531 -5.148438 1.09375 -5.734375 C 1.425781 -6.328125 1.878906 -6.796875 2.453125 -7.140625 C 3.035156 -7.484375 3.675781 -7.65625 4.375 -7.65625 Z M 4.375 -6.578125 C 3.707031 -6.578125 3.148438 -6.382812 2.703125 -6 C 2.253906 -5.613281 1.976562 -5.082031 1.875 -4.40625 L 6.875 -4.40625 C 6.800781 -5.0625 6.53125 -5.585938 6.0625 -5.984375 C 5.601562 -6.378906 5.039062 -6.578125 4.375 -6.578125 Z M 4.375 -6.578125 "/></g></g></g><g fill="#ffffff" fill-opacity="1"><g transform="translate(253.195663, 217.815013)"><g><path d="M 4.671875 -7.65625 C 5.273438 -7.65625 5.804688 -7.507812 6.265625 -7.21875 C 6.734375 -6.925781 7.09375 -6.53125 7.34375 -6.03125 C 7.601562 -5.53125 7.734375 -4.972656 7.734375 -4.359375 L 7.734375 0 L 6.578125 0 L 6.578125 -4.359375 C 6.578125 -5.023438 6.394531 -5.5625 6.03125 -5.96875 C 5.664062 -6.375 5.160156 -6.578125 4.515625 -6.578125 C 4.109375 -6.578125 3.734375 -6.484375 3.390625 -6.296875 C 3.054688 -6.109375 2.789062 -5.84375 2.59375 -5.5 C 2.394531 -5.164062 2.296875 -4.785156 2.296875 -4.359375 L 2.296875 0 L 1.140625 0 L 1.140625 -7.5 L 2.296875 -7.5 L 2.296875 -6.5 C 2.597656 -6.882812 2.953125 -7.171875 3.359375 -7.359375 C 3.765625 -7.554688 4.203125 -7.65625 4.671875 -7.65625 Z M 4.671875 -7.65625 "/></g></g></g><g fill="#ffffff" fill-opacity="1"><g transform="translate(262.076312, 217.815013)"><g><path d="M 3.734375 0.15625 C 3.171875 0.15625 2.664062 0.0546875 2.21875 -0.140625 C 1.78125 -0.347656 1.429688 -0.628906 1.171875 -0.984375 C 0.921875 -1.347656 0.785156 -1.757812 0.765625 -2.21875 L 1.90625 -2.21875 C 1.9375 -1.832031 2.113281 -1.519531 2.4375 -1.28125 C 2.769531 -1.039062 3.210938 -0.921875 3.765625 -0.921875 C 4.222656 -0.921875 4.601562 -1.015625 4.90625 -1.203125 C 5.207031 -1.398438 5.359375 -1.675781 5.359375 -2.03125 C 5.359375 -2.3125 5.273438 -2.535156 5.109375 -2.703125 C 4.953125 -2.867188 4.753906 -2.992188 4.515625 -3.078125 C 4.273438 -3.160156 3.929688 -3.253906 3.484375 -3.359375 C 2.941406 -3.472656 2.503906 -3.59375 2.171875 -3.71875 C 1.847656 -3.851562 1.566406 -4.0625 1.328125 -4.34375 C 1.097656 -4.632812 0.984375 -5.023438 0.984375 -5.515625 C 0.984375 -5.910156 1.101562 -6.269531 1.34375 -6.59375 C 1.59375 -6.925781 1.921875 -7.1875 2.328125 -7.375 C 2.742188 -7.5625 3.195312 -7.65625 3.6875 -7.65625 C 4.164062 -7.65625 4.609375 -7.550781 5.015625 -7.34375 C 5.421875 -7.144531 5.742188 -6.867188 5.984375 -6.515625 C 6.234375 -6.171875 6.363281 -5.785156 6.375 -5.359375 L 5.21875 -5.359375 C 5.195312 -5.703125 5.035156 -5.988281 4.734375 -6.21875 C 4.441406 -6.457031 4.070312 -6.578125 3.625 -6.578125 C 3.21875 -6.578125 2.875 -6.476562 2.59375 -6.28125 C 2.3125 -6.09375 2.171875 -5.835938 2.171875 -5.515625 C 2.171875 -5.265625 2.25 -5.0625 2.40625 -4.90625 C 2.570312 -4.757812 2.769531 -4.644531 3 -4.5625 C 3.226562 -4.476562 3.550781 -4.382812 3.96875 -4.28125 C 4.519531 -4.164062 4.960938 -4.035156 5.296875 -3.890625 C 5.640625 -3.753906 5.929688 -3.535156 6.171875 -3.234375 C 6.421875 -2.941406 6.546875 -2.539062 6.546875 -2.03125 C 6.546875 -1.382812 6.273438 -0.859375 5.734375 -0.453125 C 5.203125 -0.046875 4.535156 0.15625 3.734375 0.15625 Z M 3.734375 0.15625 "/></g></g></g><g fill="#ffffff" fill-opacity="1"><g transform="translate(269.548296, 217.815013)"><g><path d="M 4.375 -7.65625 C 5.0625 -7.65625 5.6875 -7.5 6.25 -7.1875 C 6.820312 -6.875 7.269531 -6.429688 7.59375 -5.859375 C 7.914062 -5.296875 8.078125 -4.65625 8.078125 -3.9375 C 8.078125 -3.6875 8.066406 -3.5 8.046875 -3.375 L 1.828125 -3.375 C 1.890625 -2.625 2.148438 -2.023438 2.609375 -1.578125 C 3.066406 -1.140625 3.65625 -0.921875 4.375 -0.921875 C 5.4375 -0.921875 6.203125 -1.351562 6.671875 -2.21875 L 7.90625 -2.21875 C 7.59375 -1.457031 7.132812 -0.867188 6.53125 -0.453125 C 5.9375 -0.046875 5.21875 0.15625 4.375 0.15625 C 3.675781 0.15625 3.035156 -0.015625 2.453125 -0.359375 C 1.878906 -0.703125 1.425781 -1.171875 1.09375 -1.765625 C 0.769531 -2.359375 0.609375 -3.019531 0.609375 -3.75 C 0.609375 -4.488281 0.769531 -5.148438 1.09375 -5.734375 C 1.425781 -6.328125 1.878906 -6.796875 2.453125 -7.140625 C 3.035156 -7.484375 3.675781 -7.65625 4.375 -7.65625 Z M 4.375 -6.578125 C 3.707031 -6.578125 3.148438 -6.382812 2.703125 -6 C 2.253906 -5.613281 1.976562 -5.082031 1.875 -4.40625 L 6.875 -4.40625 C 6.800781 -5.0625 6.53125 -5.585938 6.0625 -5.984375 C 5.601562 -6.378906 5.039062 -6.578125 4.375 -6.578125 Z M 4.375 -6.578125 "/></g></g></g><g fill="#ffffff" fill-opacity="1"><g transform="translate(278.245202, 217.815013)"><g><path d="M 3.734375 0.15625 C 3.171875 0.15625 2.664062 0.0546875 2.21875 -0.140625 C 1.78125 -0.347656 1.429688 -0.628906 1.171875 -0.984375 C 0.921875 -1.347656 0.785156 -1.757812 0.765625 -2.21875 L 1.90625 -2.21875 C 1.9375 -1.832031 2.113281 -1.519531 2.4375 -1.28125 C 2.769531 -1.039062 3.210938 -0.921875 3.765625 -0.921875 C 4.222656 -0.921875 4.601562 -1.015625 4.90625 -1.203125 C 5.207031 -1.398438 5.359375 -1.675781 5.359375 -2.03125 C 5.359375 -2.3125 5.273438 -2.535156 5.109375 -2.703125 C 4.953125 -2.867188 4.753906 -2.992188 4.515625 -3.078125 C 4.273438 -3.160156 3.929688 -3.253906 3.484375 -3.359375 C 2.941406 -3.472656 2.503906 -3.59375 2.171875 -3.71875 C 1.847656 -3.851562 1.566406 -4.0625 1.328125 -4.34375 C 1.097656 -4.632812 0.984375 -5.023438 0.984375 -5.515625 C 0.984375 -5.910156 1.101562 -6.269531 1.34375 -6.59375 C 1.59375 -6.925781 1.921875 -7.1875 2.328125 -7.375 C 2.742188 -7.5625 3.195312 -7.65625 3.6875 -7.65625 C 4.164062 -7.65625 4.609375 -7.550781 5.015625 -7.34375 C 5.421875 -7.144531 5.742188 -6.867188 5.984375 -6.515625 C 6.234375 -6.171875 6.363281 -5.785156 6.375 -5.359375 L 5.21875 -5.359375 C 5.195312 -5.703125 5.035156 -5.988281 4.734375 -6.21875 C 4.441406 -6.457031 4.070312 -6.578125 3.625 -6.578125 C 3.21875 -6.578125 2.875 -6.476562 2.59375 -6.28125 C 2.3125 -6.09375 2.171875 -5.835938 2.171875 -5.515625 C 2.171875 -5.265625 2.25 -5.0625 2.40625 -4.90625 C 2.570312 -4.757812 2.769531 -4.644531 3 -4.5625 C 3.226562 -4.476562 3.550781 -4.382812 3.96875 -4.28125 C 4.519531 -4.164062 4.960938 -4.035156 5.296875 -3.890625 C 5.640625 -3.753906 5.929688 -3.535156 6.171875 -3.234375 C 6.421875 -2.941406 6.546875 -2.539062 6.546875 -2.03125 C 6.546875 -1.382812 6.273438 -0.859375 5.734375 -0.453125 C 5.203125 -0.046875 4.535156 0.15625 3.734375 0.15625 Z M 3.734375 0.15625 "/></g></g></g><g fill="#ffffff" fill-opacity="1"><g transform="translate(285.717187, 217.815013)"><g/></g></g><g fill="#ffffff" fill-opacity="1"><g transform="translate(290.08096, 217.815013)"><g><path d="M 5.125 -7.65625 C 5.8125 -7.65625 6.453125 -7.484375 7.046875 -7.140625 C 7.640625 -6.796875 8.109375 -6.328125 8.453125 -5.734375 C 8.796875 -5.140625 8.96875 -4.476562 8.96875 -3.75 C 8.96875 -3.03125 8.796875 -2.367188 8.453125 -1.765625 C 8.109375 -1.171875 7.640625 -0.703125 7.046875 -0.359375 C 6.453125 -0.015625 5.8125 0.15625 5.125 0.15625 C 4.5625 0.15625 4.039062 0.0390625 3.5625 -0.1875 C 3.082031 -0.425781 2.6875 -0.742188 2.375 -1.140625 L 2.375 0 L 1.21875 0 L 1.21875 -11.03125 L 2.375 -11.03125 L 2.375 -6.359375 C 2.6875 -6.753906 3.082031 -7.066406 3.5625 -7.296875 C 4.039062 -7.535156 4.5625 -7.65625 5.125 -7.65625 Z M 5.046875 -0.921875 C 5.546875 -0.921875 6.003906 -1.046875 6.421875 -1.296875 C 6.835938 -1.546875 7.164062 -1.882812 7.40625 -2.3125 C 7.65625 -2.738281 7.78125 -3.21875 7.78125 -3.75 C 7.78125 -4.28125 7.65625 -4.757812 7.40625 -5.1875 C 7.164062 -5.613281 6.835938 -5.953125 6.421875 -6.203125 C 6.003906 -6.453125 5.546875 -6.578125 5.046875 -6.578125 C 4.546875 -6.578125 4.082031 -6.453125 3.65625 -6.203125 C 3.238281 -5.953125 2.90625 -5.613281 2.65625 -5.1875 C 2.414062 -4.757812 2.296875 -4.28125 2.296875 -3.75 C 2.296875 -3.21875 2.414062 -2.738281 2.65625 -2.3125 C 2.90625 -1.882812 3.238281 -1.546875 3.65625 -1.296875 C 4.082031 -1.046875 4.546875 -0.921875 5.046875 -0.921875 Z M 5.046875 -0.921875 "/></g></g></g><g fill="#ffffff" fill-opacity="1"><g transform="translate(299.742474, 217.815013)"><g><path d="M 4.375 -7.65625 C 5.0625 -7.65625 5.6875 -7.5 6.25 -7.1875 C 6.820312 -6.875 7.269531 -6.429688 7.59375 -5.859375 C 7.914062 -5.296875 8.078125 -4.65625 8.078125 -3.9375 C 8.078125 -3.6875 8.066406 -3.5 8.046875 -3.375 L 1.828125 -3.375 C 1.890625 -2.625 2.148438 -2.023438 2.609375 -1.578125 C 3.066406 -1.140625 3.65625 -0.921875 4.375 -0.921875 C 5.4375 -0.921875 6.203125 -1.351562 6.671875 -2.21875 L 7.90625 -2.21875 C 7.59375 -1.457031 7.132812 -0.867188 6.53125 -0.453125 C 5.9375 -0.046875 5.21875 0.15625 4.375 0.15625 C 3.675781 0.15625 3.035156 -0.015625 2.453125 -0.359375 C 1.878906 -0.703125 1.425781 -1.171875 1.09375 -1.765625 C 0.769531 -2.359375 0.609375 -3.019531 0.609375 -3.75 C 0.609375 -4.488281 0.769531 -5.148438 1.09375 -5.734375 C 1.425781 -6.328125 1.878906 -6.796875 2.453125 -7.140625 C 3.035156 -7.484375 3.675781 -7.65625 4.375 -7.65625 Z M 4.375 -6.578125 C 3.707031 -6.578125 3.148438 -6.382812 2.703125 -6 C 2.253906 -5.613281 1.976562 -5.082031 1.875 -4.40625 L 6.875 -4.40625 C 6.800781 -5.0625 6.53125 -5.585938 6.0625 -5.984375 C 5.601562 -6.378906 5.039062 -6.578125 4.375 -6.578125 Z M 4.375 -6.578125 "/></g></g></g><g fill="#ffffff" fill-opacity="1"><g transform="translate(308.43938, 217.815013)"><g><path d="M 4.75 -6.46875 L 2.828125 -6.46875 L 2.828125 -2.296875 C 2.828125 -1.921875 2.9375 -1.625 3.15625 -1.40625 C 3.375 -1.1875 3.675781 -1.078125 4.0625 -1.078125 L 4.75 -1.078125 L 4.75 0 L 3.984375 0 C 3.296875 0 2.738281 -0.203125 2.3125 -0.609375 C 1.894531 -1.023438 1.6875 -1.5625 1.6875 -2.21875 L 1.6875 -6.46875 L 0.453125 -6.46875 L 0.453125 -7.5 L 1.6875 -7.5 L 1.6875 -9.5 L 2.828125 -9.5 L 2.828125 -7.5 L 4.75 -7.5 Z M 4.75 -6.46875 "/></g></g></g><g fill="#ffffff" fill-opacity="1"><g transform="translate(313.874955, 217.815013)"><g><path d="M 4.75 -6.46875 L 2.828125 -6.46875 L 2.828125 -2.296875 C 2.828125 -1.921875 2.9375 -1.625 3.15625 -1.40625 C 3.375 -1.1875 3.675781 -1.078125 4.0625 -1.078125 L 4.75 -1.078125 L 4.75 0 L 3.984375 0 C 3.296875 0 2.738281 -0.203125 2.3125 -0.609375 C 1.894531 -1.023438 1.6875 -1.5625 1.6875 -2.21875 L 1.6875 -6.46875 L 0.453125 -6.46875 L 0.453125 -7.5 L 1.6875 -7.5 L 1.6875 -9.5 L 2.828125 -9.5 L 2.828125 -7.5 L 4.75 -7.5 Z M 4.75 -6.46875 "/></g></g></g><g fill="#ffffff" fill-opacity="1"><g transform="translate(319.310529, 217.815013)"><g><path d="M 4.375 -7.65625 C 5.0625 -7.65625 5.6875 -7.5 6.25 -7.1875 C 6.820312 -6.875 7.269531 -6.429688 7.59375 -5.859375 C 7.914062 -5.296875 8.078125 -4.65625 8.078125 -3.9375 C 8.078125 -3.6875 8.066406 -3.5 8.046875 -3.375 L 1.828125 -3.375 C 1.890625 -2.625 2.148438 -2.023438 2.609375 -1.578125 C 3.066406 -1.140625 3.65625 -0.921875 4.375 -0.921875 C 5.4375 -0.921875 6.203125 -1.351562 6.671875 -2.21875 L 7.90625 -2.21875 C 7.59375 -1.457031 7.132812 -0.867188 6.53125 -0.453125 C 5.9375 -0.046875 5.21875 0.15625 4.375 0.15625 C 3.675781 0.15625 3.035156 -0.015625 2.453125 -0.359375 C 1.878906 -0.703125 1.425781 -1.171875 1.09375 -1.765625 C 0.769531 -2.359375 0.609375 -3.019531 0.609375 -3.75 C 0.609375 -4.488281 0.769531 -5.148438 1.09375 -5.734375 C 1.425781 -6.328125 1.878906 -6.796875 2.453125 -7.140625 C 3.035156 -7.484375 3.675781 -7.65625 4.375 -7.65625 Z M 4.375 -6.578125 C 3.707031 -6.578125 3.148438 -6.382812 2.703125 -6 C 2.253906 -5.613281 1.976562 -5.082031 1.875 -4.40625 L 6.875 -4.40625 C 6.800781 -5.0625 6.53125 -5.585938 6.0625 -5.984375 C 5.601562 -6.378906 5.039062 -6.578125 4.375 -6.578125 Z M 4.375 -6.578125 "/></g></g></g><g fill="#ffffff" fill-opacity="1"><g transform="translate(328.007435, 217.815013)"><g><path d="M 5.28125 -7.578125 L 5.28125 -6.5 L 4.515625 -6.5 C 4.109375 -6.5 3.734375 -6.40625 3.390625 -6.21875 C 3.054688 -6.03125 2.789062 -5.769531 2.59375 -5.4375 C 2.394531 -5.101562 2.296875 -4.71875 2.296875 -4.28125 L 2.296875 0 L 1.140625 0 L 1.140625 -7.5 L 2.296875 -7.5 L 2.296875 -6.4375 C 2.597656 -6.8125 2.953125 -7.09375 3.359375 -7.28125 C 3.765625 -7.476562 4.203125 -7.578125 4.671875 -7.578125 Z M 5.28125 -7.578125 "/></g></g></g><g clip-path="url(#49baafb815)"><g clip-path="url(#266ba5fe17)"><path fill="url(#c484e9fde3)" d="M 30.015625 147.515625 L 30.015625 227.765625 L 110.265625 227.765625 L 110.265625 147.515625 Z M 30.015625 147.515625 " fill-rule="nonzero"/></g></g></svg>