<?xml version="1.0" standalone="no"?>
<!DOCTYPE svg PUBLIC "-//W3C//DTD SVG 20010904//EN"
 "http://www.w3.org/TR/2001/REC-SVG-20010904/DTD/svg10.dtd">
<svg version="1.0" xmlns="http://www.w3.org/2000/svg"
 width="1563.000000pt" height="1563.000000pt" viewBox="0 0 1563.000000 1563.000000"
 preserveAspectRatio="xMidYMid meet">
<metadata>
Created by potrace 1.14, written by Peter Selinger 2001-2017
</metadata>
<g transform="translate(0.000000,1563.000000) scale(0.100000,-0.100000)"
fill="#000000" stroke="none">
<path d="M1300 13240 l0 -1480 3238 -3 3237 -3 150 -22 c193 -28 292 -46 440
-83 895 -222 1676 -745 2236 -1496 351 -470 606 -1059 709 -1635 44 -248 52
-337 55 -663 4 -344 -3 -450 -50 -723 -244 -1407 -1255 -2590 -2611 -3055
-271 -93 -536 -153 -854 -194 -122 -16 -296 -17 -1867 -20 l-1733 -4 0 1481 0
1480 1575 0 1575 0 0 1575 0 1575 -1575 0 -1575 0 0 -1575 0 -1575 -1475 0
-1475 0 0 -1480 0 -1480 1475 0 1475 0 0 -1481 0 -1481 1778 5 c1995 5 1944 3
2462 83 2300 353 4297 1892 5254 4047 405 912 604 1905 583 2912 -7 328 -24
548 -67 845 -250 1739 -1160 3322 -2542 4423 -1010 804 -2183 1298 -3463 1457
-363 45 -210 44 -3682 47 l-3273 4 0 -1481z"/>
<path d="M1300 9095 l0 -875 870 0 870 0 0 875 0 875 -870 0 -870 0 0 -875z"/>
</g>
</svg>
